<svg width="40" height="41" viewBox="0 0 40 41" fill="none" xmlns="http://www.w3.org/2000/svg">
<path fill-rule="evenodd" clip-rule="evenodd" d="M20.7824 9.36298C21.6142 9.35228 22.4593 9.36456 23.3076 9.41086C23.9973 9.4485 24.5268 10.0545 24.4902 10.7643C24.4537 11.4742 23.8649 12.0191 23.1751 11.9815C22.3906 11.9386 21.601 11.9269 20.8136 11.937C20.785 11.9374 20.7564 11.9377 20.7279 11.9381C18.975 11.9605 17.4672 11.9797 16.3371 12.6311C15.8402 12.9174 15.301 13.1547 14.834 13.3602C14.7524 13.3961 14.6729 13.4311 14.5963 13.4652C14.0464 13.7098 13.5999 13.9256 13.2269 14.1895C13.0397 14.3219 12.7776 14.6677 12.4647 15.2942C12.3205 15.583 12.1851 15.8894 12.0503 16.2023C12.0248 16.2616 11.9988 16.3221 11.9726 16.3832C11.8669 16.6299 11.7572 16.8858 11.6535 17.1076C10.8963 18.7261 10.8375 20.5044 11.1449 22.3562C17.1974 22.3667 24.5576 22.413 29.6931 22.6163C29.85 22.6225 30.0906 22.6511 30.3037 22.6765C30.358 22.683 30.4105 22.6893 30.4594 22.6949C30.7471 22.7279 31.0541 22.7588 31.3443 22.769C31.5512 22.7762 31.716 22.7713 31.8383 22.7588C32.4669 21.2787 32.6661 19.3787 32.3375 17.8382C31.8563 15.5822 30.5015 14.0175 28.6188 13.1003C27.9945 12.7962 27.7279 12.0288 28.0234 11.3863C28.319 10.7438 29.0646 10.4695 29.6889 10.7736C32.2038 11.9987 34.1179 14.1795 34.7806 17.2863C35.256 19.5154 34.9271 22.1768 33.9365 24.2159C33.5819 24.9459 32.8762 25.1713 32.5137 25.2524C32.0914 25.3468 31.6359 25.3548 31.2596 25.3417C30.8694 25.3281 30.4843 25.2879 30.1818 25.2532C30.0759 25.241 29.9874 25.2306 29.9135 25.2218C29.7434 25.2017 29.6498 25.1907 29.597 25.1886C24.6798 24.9939 17.6832 24.9442 11.7637 24.9316C11.9644 25.5979 12.1914 26.2683 12.4304 26.9391C12.9277 28.335 13.6304 29.9008 14.5485 31.2546C15.4726 32.6171 16.5546 33.6767 17.7819 34.2029C19.5399 34.9568 21.3302 35.3195 23.2414 35.3195C24.6234 35.3195 25.4604 34.9671 26.797 34.4043C27.0067 34.316 27.2285 34.2226 27.4668 34.1245C28.1081 33.8605 28.8359 34.1815 29.0924 34.8415C29.3489 35.5015 29.037 36.2506 28.3957 36.5146C28.1883 36.6 27.9843 36.6867 27.7815 36.7729C26.4375 37.3442 25.1446 37.8938 23.2414 37.8938C21.0057 37.8938 18.888 37.466 16.8199 36.5791C14.991 35.7949 13.5714 34.3115 12.4975 32.7279C11.4176 31.1356 10.626 29.3523 10.082 27.8253C9.76215 26.9276 9.43034 25.9522 9.15158 24.928C8.2818 24.9274 7.45067 24.9273 6.67055 24.9273C5.97985 24.9273 5.41992 24.3511 5.41992 23.6402C5.41992 22.9294 5.97985 22.3531 6.67055 22.3531C7.28722 22.3531 7.93657 22.3532 8.6124 22.3535C8.32273 20.2574 8.4286 18.0669 9.39982 15.9909C9.48375 15.8115 9.57119 15.6076 9.67463 15.3664C9.70305 15.3001 9.73268 15.231 9.76378 15.1588C9.90197 14.8381 10.0613 14.4755 10.2401 14.1175C10.5732 13.4504 11.0705 12.5914 11.8099 12.0682C12.4018 11.6494 13.0473 11.3498 13.604 11.1022C13.6972 11.0608 13.7875 11.0209 13.8754 10.9821C14.3458 10.7746 14.7442 10.5987 15.115 10.3851C16.8208 9.40193 18.9255 9.3814 20.4719 9.36633C20.5781 9.36529 20.6817 9.36428 20.7824 9.36298ZM32.0398 22.7201C32.0406 22.7205 32.0332 22.7238 32.0156 22.7287C32.0303 22.7222 32.0391 22.7197 32.0398 22.7201Z" fill="#574EDC"/>
<path fill-rule="evenodd" clip-rule="evenodd" d="M23.3328 3.6486C25.0714 2.77302 27.1215 2.44659 28.9391 2.97036C30.2937 3.36069 31.301 4.07934 31.841 5.16234C32.3628 6.20893 32.3271 7.35855 32.1143 8.36466C31.7424 10.1223 30.689 12.0187 29.934 13.3778C29.8486 13.5316 29.767 13.6784 29.6907 13.8174C29.1518 14.7986 28.6794 15.8161 28.1808 16.8902C27.8643 17.5718 27.5373 18.2762 27.1761 19.0084C26.2867 20.8111 25.2418 22.6575 23.8121 24.1289C23.3237 24.6315 22.5318 24.6315 22.0434 24.1289C21.555 23.6262 21.555 22.8113 22.0434 22.3086C23.1853 21.1334 24.0865 19.5848 24.9458 17.843C25.2462 17.2342 25.5506 16.5802 25.8601 15.9152C26.3938 14.7687 26.9429 13.5892 27.5132 12.5508C27.5906 12.4097 27.6693 12.2673 27.7486 12.1238C28.5386 10.6939 29.3862 9.15963 29.6703 7.817C29.8206 7.10625 29.7664 6.64002 29.6156 6.33765C29.483 6.07168 29.1635 5.70825 28.2647 5.44924C27.1546 5.12933 25.7386 5.30292 24.4322 5.96082C23.1334 6.61492 22.0783 7.6799 21.5921 8.96656C21.3621 9.57514 21.2786 9.85508 21.1506 10.2842C21.0654 10.57 20.9604 10.922 20.7792 11.4813C20.5608 12.1557 19.8525 12.5201 19.1973 12.2953C18.542 12.0705 18.1879 11.3416 18.4063 10.6672C18.545 10.2392 18.6424 9.91544 18.7297 9.62515C18.8821 9.11858 19.0039 8.71375 19.2609 8.03355C20.018 6.02997 21.5867 4.52798 23.3328 3.6486Z" fill="#574EDC"/>
<path fill-rule="evenodd" clip-rule="evenodd" d="M11.1638 27.8534C11.8306 28.0386 12.2253 28.745 12.0454 29.4313C11.9124 29.9386 11.6517 30.5006 11.4088 31.0088C11.3509 31.1301 11.292 31.252 11.2326 31.3751C11.0227 31.81 10.8052 32.2607 10.5917 32.7553C10.0555 33.9969 9.61118 35.3721 9.59916 36.8526C9.62437 37.0534 9.72654 37.3809 9.89785 37.652C9.9808 37.7833 10.053 37.8578 10.0964 37.8922C10.5773 37.8858 11.2121 37.6248 12.0026 37.0961C12.5441 36.734 13.018 36.3505 13.4906 35.9681C13.7443 35.7627 13.9977 35.5577 14.261 35.3564C14.9392 34.8379 15.9086 33.7475 16.8774 32.5819C17.1885 32.2076 17.4834 31.8456 17.7594 31.5069C17.9035 31.33 18.0424 31.1595 18.1757 30.9969C18.5394 30.5535 18.8947 30.1272 19.1468 29.8801C19.6469 29.3899 20.4385 29.4098 20.9149 29.9245C21.3912 30.4393 21.3719 31.254 20.8718 31.7442C20.7396 31.8737 20.4802 32.178 20.0872 32.6572C19.9639 32.8076 19.83 32.9719 19.6885 33.1455C19.4075 33.4905 19.0964 33.8724 18.7782 34.2552C17.8432 35.3801 16.6955 36.7019 15.7525 37.4228C15.5893 37.5477 15.39 37.7084 15.1666 37.8886C14.6467 38.3081 13.9962 38.8329 13.3656 39.2546C12.4537 39.8645 11.2544 40.5028 9.96849 40.4649C8.88369 40.433 8.17095 39.6409 7.80094 39.0553C7.40741 38.4325 7.15238 37.6694 7.10164 37.0166L7.09766 36.9654L7.09766 36.914C7.09765 34.8903 7.70085 33.1112 8.30592 31.7099C8.54358 31.1595 8.79227 30.6444 9.0048 30.2042C9.06077 30.0883 9.11424 29.9775 9.16433 29.8727C9.42434 29.3286 9.57107 28.9874 9.6305 28.7607C9.81044 28.0744 10.4969 27.6682 11.1638 27.8534Z" fill="#574EDC"/>
</svg>
