<svg width="40" height="40" viewBox="0 0 40 40" fill="none" xmlns="http://www.w3.org/2000/svg">
<path fill-rule="evenodd" clip-rule="evenodd" d="M11.0456 5.83008C11.7363 5.83008 12.2962 6.40634 12.2962 7.11718C12.2962 8.84822 12.4533 10.4641 12.6239 12.2188C12.6513 12.5009 12.6791 12.7866 12.7066 13.0769C12.7069 13.0778 12.7095 13.0966 12.7186 13.1415C12.7301 13.198 12.7451 13.2645 12.7659 13.3561L12.769 13.3698C12.8066 13.5357 12.8604 13.7728 12.8955 14.0128C12.9294 14.2442 12.9646 14.5908 12.9029 14.9486C12.8377 15.327 12.6245 15.8954 12.0217 16.2056C11.4039 16.5235 10.6527 16.2658 10.3438 15.63C10.1379 15.206 10.1806 14.721 10.4151 14.3506C10.3958 14.2337 10.3667 14.1026 10.33 13.9411L10.3278 13.931C10.3094 13.8501 10.288 13.7556 10.27 13.6666C10.252 13.578 10.2296 13.4575 10.2177 13.3321C10.1911 13.0516 10.1638 12.7714 10.1365 12.491C9.966 10.7421 9.79492 8.98689 9.79492 7.11718C9.79492 6.40634 10.3548 5.83008 11.0456 5.83008Z" fill="#574EDC"/>
<path fill-rule="evenodd" clip-rule="evenodd" d="M12.4393 15.007C13.1144 15.165 13.8262 15.4682 14.3712 16.009C15.3531 16.9835 15.5298 18.2678 15.4449 19.3228C15.3602 20.3748 15.0072 21.3888 14.6923 22.1181C14.4477 22.6846 14.0049 23.0266 13.643 23.2285C13.2727 23.4351 12.8677 23.5624 12.5111 23.6453C11.7959 23.8115 11.0551 23.8478 10.6313 23.8478C9.86494 23.8478 9.19416 23.5633 8.70139 23.3192C8.65504 23.2962 8.60842 23.2726 8.56197 23.2488C8.51346 23.3276 8.45582 23.4021 8.38906 23.4708C7.90066 23.9734 7.10881 23.9734 6.62041 23.4708C5.56404 22.3836 5.33393 21.1308 5.52263 19.9473C5.68683 18.9174 6.17598 17.9118 6.55401 17.1346C6.56769 17.1065 6.58122 17.0787 6.59458 17.0512C6.95882 16.3014 7.59216 15.7994 8.22144 15.4783C8.85946 15.1528 9.58573 14.9638 10.2947 14.8884C11.0058 14.8128 11.7509 14.8459 12.4393 15.007ZM8.02091 20.2047C8.14488 20.2149 8.26945 20.2444 8.39084 20.295C8.66445 20.409 8.92587 20.5446 9.15132 20.6648C9.21506 20.6988 9.27523 20.7312 9.33301 20.7623C9.4942 20.849 9.63678 20.9257 9.78626 20.9997C10.1943 21.2018 10.446 21.2736 10.6313 21.2736C10.954 21.2736 11.4927 21.2429 11.9602 21.1343C12.1949 21.0797 12.3571 21.0177 12.451 20.9654C12.4515 20.9651 12.452 20.9648 12.4525 20.9646C12.6955 20.3817 12.9035 19.7147 12.9522 19.1102C13.0036 18.471 12.8686 18.0938 12.635 17.8621C12.5275 17.7553 12.2908 17.6122 11.8848 17.5172C11.4922 17.4253 11.0236 17.3988 10.5518 17.449C10.0779 17.4993 9.65218 17.6215 9.33237 17.7847C9.00383 17.9523 8.87354 18.1164 8.83177 18.2024C8.44066 19.0074 8.14322 19.6392 8.02091 20.2047ZM12.4994 20.9342C12.4995 20.9343 12.4981 20.9356 12.4949 20.938C12.4977 20.9354 12.4993 20.9342 12.4994 20.9342Z" fill="#574EDC"/>
<path fill-rule="evenodd" clip-rule="evenodd" d="M12.0892 24.918C12.7799 24.918 13.3398 25.4942 13.3398 26.2051C13.3398 26.3383 13.3398 26.4717 13.3399 26.6051C13.3405 29.0516 13.3411 31.5223 13.1386 34.0227C13.1242 34.201 13.1562 34.7285 13.2131 35.2235C13.2168 35.2559 13.2205 35.2871 13.2241 35.317C13.2984 35.4816 13.3398 35.665 13.3398 35.8584C13.3398 35.9127 13.3388 35.9865 13.3323 36.063C13.3293 36.0986 13.3225 36.1676 13.3052 36.2496C13.2965 36.2906 13.2801 36.3598 13.2499 36.4416C13.2252 36.5082 13.1601 36.6718 13.0177 36.8384C12.8621 37.0206 12.5289 37.2937 12.0332 37.2762C11.5866 37.2605 11.3035 37.0145 11.1968 36.9067C11.0059 36.7137 10.9237 36.5016 10.9111 36.469C10.9105 36.4677 10.9101 36.4666 10.9098 36.4659C10.8639 36.3509 10.8402 36.2449 10.8324 36.2102L10.8323 36.2093C10.7929 36.0332 10.757 35.7686 10.7291 35.5255C10.6743 35.0487 10.6079 34.2794 10.646 33.8089C10.8395 31.4189 10.8391 29.0471 10.8386 26.5743C10.8386 26.4515 10.8386 26.3284 10.8386 26.2051C10.8386 25.4942 11.3985 24.918 12.0892 24.918Z" fill="#574EDC"/>
<path fill-rule="evenodd" clip-rule="evenodd" d="M20.4107 5.19874C21.0934 5.30683 21.5617 5.96401 21.4567 6.6666C21.0453 9.41831 21.0493 12.1439 21.0535 15.0294C21.0539 15.3212 21.0543 15.6145 21.0543 15.9097C21.0543 16.4816 21.0441 17.0352 21.0342 17.5754C21.0082 18.99 20.9839 20.3129 21.1484 21.6333C21.3107 22.9367 21.1878 24.0076 21.0562 25.091C21.0151 25.4295 20.98 25.7852 20.9889 26.1062C20.9975 26.411 21.0437 26.5387 21.0521 26.562C21.0536 26.5661 21.0539 26.567 21.0527 26.5652C21.4359 27.1566 21.2806 27.9557 20.7059 28.3501C20.1312 28.7444 19.3547 28.5845 18.9715 27.9931C18.5812 27.3905 18.5026 26.6764 18.4887 26.1802C18.4738 25.6478 18.5314 25.1248 18.5743 24.7717C18.7052 23.6938 18.7857 22.9101 18.6674 21.9607C18.4776 20.4371 18.5074 18.8318 18.5348 17.3584C18.5441 16.8574 18.5531 16.3717 18.5531 15.9097C18.5531 15.6124 18.5525 15.3143 18.552 15.0154C18.5471 12.1606 18.542 9.23489 18.9845 6.27517C19.0895 5.57258 19.7281 5.09065 20.4107 5.19874Z" fill="#574EDC"/>
<path fill-rule="evenodd" clip-rule="evenodd" d="M23.8445 30.4247C24.5655 32.0172 24.6465 33.9853 24.1155 35.6249C23.7196 36.8471 22.9544 37.9684 21.646 38.1664C20.4307 38.3503 19.3325 37.627 18.5013 36.7715C18.4989 36.7691 18.4965 36.7666 18.4942 36.7642C17.7515 36.6398 17.096 36.2858 16.5683 35.7699C15.7291 34.9495 15.2729 33.7878 15.1608 32.6587C15.0483 31.5262 15.2669 30.274 15.968 29.2617C16.6997 28.2052 17.8773 27.5304 19.4041 27.4955C21.6047 27.4452 23.0985 28.7769 23.8445 30.4247ZM21.0478 35.5551C21.061 35.4131 21.0513 35.2664 21.0158 35.1202C20.8482 34.4306 20.1692 34.0113 19.4992 34.1837C18.9361 34.3286 18.568 34.1743 18.2909 33.9035C17.969 33.5887 17.7133 33.0442 17.6491 32.397C17.5851 31.7532 17.7255 31.1591 18.0048 30.7559C18.2534 30.3969 18.6774 30.087 19.4597 30.0691C20.4729 30.0459 21.1613 30.593 21.5773 31.5119C22.0183 32.486 22.0789 33.7724 21.7426 34.8108C21.6109 35.2176 21.4727 35.4352 21.3798 35.5395C21.3361 35.5886 21.3068 35.6077 21.2961 35.6138C21.2875 35.6188 21.2844 35.6192 21.2824 35.6195L21.2821 35.6196C21.2747 35.6207 21.1966 35.6229 21.0478 35.5551Z" fill="#574EDC"/>
<path fill-rule="evenodd" clip-rule="evenodd" d="M29.5711 4.83571C30.3294 4.50378 31.1791 4.32617 31.8913 4.32617C33.1262 4.32617 34.0861 4.87504 34.7169 5.74302C35.306 6.55365 35.5534 7.56069 35.6273 8.47389C35.7041 9.422 35.4533 10.258 34.8859 10.8959C34.3549 11.4928 33.6541 11.7948 33.0337 11.9538C31.8102 12.2675 30.4181 12.1441 29.6417 12.0375C29.3767 12.0012 29.1423 11.8819 28.9597 11.7086C28.9176 11.7711 28.8695 11.8306 28.8153 11.8863C28.3269 12.389 27.5351 12.389 27.0467 11.8863C26.5349 11.3597 26.4125 10.6922 26.4102 10.1825C26.4079 9.67241 26.522 9.16447 26.6512 8.73835C26.8926 7.94205 27.2764 7.1554 27.4875 6.72254C27.5027 6.69136 27.5171 6.66201 27.5304 6.63463C27.9773 5.71477 28.8412 5.15518 29.5711 4.83571ZM28.9569 9.81755C28.9767 9.72575 29.0036 9.62158 29.0389 9.50508C29.217 8.91777 29.516 8.30312 29.7359 7.85092C29.7467 7.82884 29.7572 7.80714 29.7676 7.78586C29.828 7.66139 30.0521 7.4225 30.55 7.20457C31.0194 6.99909 31.5373 6.90039 31.8913 6.90039C32.327 6.90039 32.5489 7.05777 32.7139 7.28478C32.9205 7.56915 33.0827 8.04586 33.1347 8.68766C33.1612 9.01531 33.0786 9.11539 33.041 9.15771C32.967 9.24087 32.7913 9.3631 32.4291 9.45595C31.6872 9.64615 30.6889 9.58424 29.9722 9.48589C29.5878 9.43314 29.2209 9.56608 28.9569 9.81755Z" fill="#574EDC"/>
<path fill-rule="evenodd" clip-rule="evenodd" d="M31.3417 13.9858C32.0286 13.9109 32.6443 14.4233 32.7171 15.1302C33.2403 20.2161 33.3493 25.1744 33.3493 30.2343C33.3493 31.2275 33.2417 33.1462 33.1373 34.5551C33.0854 35.255 33.0309 35.8775 32.9859 36.2138C32.9757 36.2904 32.9597 36.4011 32.9356 36.5033C32.9356 36.5035 32.9355 36.504 32.9353 36.5047C32.9314 36.5228 32.8916 36.7058 32.7843 36.8917C32.7498 36.9514 32.677 37.0676 32.5537 37.1844C32.4325 37.2993 32.1789 37.4921 31.8003 37.5221C31.39 37.5546 31.0724 37.3788 30.885 37.2125C30.7177 37.0639 30.6293 36.9059 30.591 36.8302C30.5132 36.6769 30.4837 36.5419 30.4753 36.5031C30.4625 36.4443 30.4555 36.3941 30.4515 36.3624C30.4436 36.2982 30.4397 36.2375 30.4375 36.1924C30.4328 36.0983 30.4312 35.9847 30.4312 35.8594C30.4312 35.6472 30.4811 35.4469 30.5696 35.2704C30.5924 35.0162 30.6175 34.7068 30.6433 34.3594C30.7473 32.9557 30.8481 31.1216 30.8481 30.2343C30.8481 25.2072 30.7392 20.3538 30.2297 15.4013C30.157 14.6944 30.6548 14.0606 31.3417 13.9858Z" fill="#574EDC"/>
</svg>
