<svg width="40" height="42" viewBox="0 0 40 42" fill="none" xmlns="http://www.w3.org/2000/svg">
<path fill-rule="evenodd" clip-rule="evenodd" d="M26.6803 3.38867C26.6803 2.67782 27.2402 2.10156 27.9309 2.10156C31.7813 2.10156 34.4932 4.19322 36.1849 7.02114C37.8487 9.8023 38.5613 13.3273 38.5613 16.4862C38.5613 17.1298 38.5862 17.7673 38.6119 18.4283C38.614 18.4821 38.6161 18.5359 38.6182 18.59C38.6457 19.2986 38.6719 20.035 38.6597 20.7735C38.635 22.2597 38.4552 23.8197 37.7856 25.402C36.3138 28.8803 32.9104 31.4431 29.9657 33.0145C28.4577 33.8193 26.7263 34.2111 25.2547 34.5442C25.0562 34.5891 24.8624 34.633 24.6745 34.6767C24.3042 34.7627 23.9176 34.8625 23.5177 34.9657C22.0113 35.3544 20.3152 35.792 18.579 35.7325C18.5017 35.7298 18.4241 35.7272 18.3464 35.7246C15.5085 35.6284 12.3874 35.5226 9.51691 33.8927C9.20082 33.7132 8.64614 33.3722 8.12933 32.9699C7.87156 32.7692 7.59659 32.5327 7.35996 32.2747C7.14463 32.0398 6.85726 31.6774 6.72299 31.2168C6.52452 30.5359 6.89994 29.8184 7.56151 29.6141C8.20065 29.4168 8.87303 29.7707 9.09687 30.4088C9.10881 30.4256 9.13385 30.4586 9.17911 30.5079C9.28536 30.6238 9.44181 30.7639 9.63832 30.9169C10.0301 31.2219 10.4754 31.4969 10.7252 31.6387C13.0597 32.9643 15.6447 33.0562 18.6624 33.1597C20.0139 33.2061 21.2592 32.8872 22.7067 32.5166C23.1564 32.4015 23.6256 32.2814 24.1236 32.1657C24.3262 32.1186 24.5268 32.0728 24.7253 32.0275C26.235 31.6828 27.6199 31.3666 28.8143 30.7292C31.5955 29.2451 34.3679 27.0317 35.4924 24.3742C35.9812 23.2191 36.1372 22.0327 36.1588 20.7296C36.1696 20.0734 36.1466 19.4045 36.119 18.6926C36.1168 18.6365 36.1146 18.5801 36.1124 18.5233C36.0869 17.8717 36.06 17.184 36.06 16.4862C36.06 13.6678 35.415 10.644 34.055 8.37076C32.723 6.14424 30.7451 4.67578 27.9309 4.67578C27.2402 4.67578 26.6803 4.09952 26.6803 3.38867Z" fill="#574EDC"/>
<path fill-rule="evenodd" clip-rule="evenodd" d="M27.5277 2.33234C28.21 2.22148 28.8504 2.70081 28.9581 3.40296C29.075 4.16475 29.2715 4.89698 29.4892 5.70818C29.5458 5.91934 29.6039 6.13585 29.6624 6.35963C29.9346 7.40051 30.2023 8.55914 30.2238 9.80174C30.2524 11.4484 30.0252 13.3185 29.5429 14.9242C29.4299 15.3005 29.3222 15.672 29.2157 16.0391C28.4099 18.8179 27.6769 21.3455 25.2721 23.8204C22.8521 26.311 19.27 28.724 15.843 29.6383C15.1175 29.8319 14.4061 30.0472 13.6729 30.2691C13.4814 30.3271 13.2885 30.3855 13.0933 30.4441C12.163 30.7234 11.1985 31.0023 10.1994 31.2238C10.2004 31.2236 10.1992 31.2239 10.1952 31.225C10.1836 31.228 10.1483 31.2374 10.0747 31.258L9.7519 31.3488C9.49843 31.4197 9.17321 31.5086 8.84692 31.5863C8.53173 31.6613 8.16813 31.7376 7.8512 31.7689C7.70111 31.7837 7.48996 31.7964 7.27336 31.7663C7.16496 31.7512 6.99533 31.7178 6.81254 31.6288C6.6264 31.5382 6.35064 31.351 6.17723 30.994C5.86834 30.3582 6.11874 29.5851 6.73653 29.2672C7.04509 29.1084 7.38694 29.0932 7.69034 29.197C7.83662 29.1768 8.03994 29.1362 8.28326 29.0783C8.56234 29.0119 8.85097 28.9332 9.09582 28.8648C9.14197 28.8518 9.19063 28.8381 9.23964 28.8242C9.40939 28.7763 9.58344 28.7271 9.67271 28.7073C10.5796 28.5063 11.4726 28.2492 12.3928 27.9729C12.5762 27.9178 12.7614 27.8617 12.9481 27.8052C13.6857 27.5819 14.4466 27.3516 15.2153 27.1465C18.1111 26.3738 21.3172 24.2502 23.5034 22.0002C25.4394 20.0077 25.9967 18.1042 26.8154 15.3077C26.9223 14.9425 27.0337 14.5619 27.1532 14.164C27.5492 12.8454 27.7473 11.2501 27.723 9.8477C27.7072 8.93876 27.5105 8.03582 27.2471 7.02853C27.1989 6.84421 27.1478 6.65416 27.0954 6.45936C26.8734 5.63463 26.6286 4.72482 26.4874 3.80444C26.3797 3.10229 26.8455 2.44321 27.5277 2.33234Z" fill="#574EDC"/>
<path fill-rule="evenodd" clip-rule="evenodd" d="M4.95028 5.31016C5.53017 4.92399 6.30445 5.09475 6.67967 5.69155C7.4014 6.83948 7.74952 8.2246 7.92848 9.52164C8.10916 10.8311 8.13094 12.1619 8.13094 13.2553C8.13094 13.9662 7.57102 14.5425 6.88031 14.5425C6.18961 14.5425 5.62968 13.9662 5.62968 13.2553C5.62968 12.1814 5.60652 11.0029 5.45207 9.88356C5.2959 8.75171 5.0187 7.78826 4.57969 7.09C4.20447 6.49319 4.37038 5.69633 4.95028 5.31016Z" fill="#574EDC"/>
<path fill-rule="evenodd" clip-rule="evenodd" d="M6.81187 9.01666C7.47494 9.2157 7.85569 9.93026 7.66229 10.6127C7.3931 11.5626 6.78931 12.3187 6.33712 12.8631C6.26121 12.9545 6.18925 13.0405 6.12111 13.1219C5.72089 13.6 5.45229 13.9209 5.28747 14.2602C4.97858 14.896 4.22736 15.1537 3.60957 14.8358C2.99179 14.5179 2.74138 13.7448 3.05028 13.109C3.36817 12.4546 3.87721 11.8524 4.26231 11.3969C4.32373 11.3242 4.382 11.2553 4.43583 11.1905C4.89678 10.6355 5.15865 10.2533 5.26109 9.8919C5.45448 9.20948 6.14879 8.81762 6.81187 9.01666Z" fill="#574EDC"/>
<path fill-rule="evenodd" clip-rule="evenodd" d="M18.5774 0.781691C19.3712 0.584592 20.0066 1.01675 20.3862 1.40736C20.7731 1.80562 20.9059 2.30513 20.9332 2.68656C20.961 3.07569 20.8931 3.49407 20.715 3.86539C20.5428 4.22468 20.1756 4.70784 19.5292 4.8488C19.2978 4.89926 19.0793 4.89556 18.8773 4.8554C18.6697 5.01304 18.4131 5.10621 18.1354 5.10621C17.4447 5.10621 16.8848 4.52996 16.8848 3.81911C16.8848 3.3627 17.0009 2.50846 17.3423 1.84516C17.5018 1.53543 17.8687 0.957668 18.5774 0.781691ZM19.5599 3.03707C19.5599 3.0371 19.5594 3.03788 19.5585 3.03936C19.5594 3.03779 19.5599 3.03705 19.5599 3.03707Z" fill="#574EDC"/>
<path fill-rule="evenodd" clip-rule="evenodd" d="M14.1164 22.4614C13.578 22.4546 13.1723 22.1686 12.9256 21.9429C12.4094 21.4707 12.3629 20.6571 12.8218 20.1258C12.8551 20.0873 12.8902 20.0512 12.9267 20.0178C12.9323 19.949 12.9433 19.8798 12.9601 19.8107C13.0234 19.5501 13.1179 19.2244 13.2861 18.9552C13.3571 18.8415 13.5695 18.5233 13.985 18.369C14.2237 18.2804 14.4984 18.2594 14.7728 18.3369C15.033 18.4105 15.2201 18.5517 15.3399 18.6708C15.5576 18.8872 15.6544 19.1299 15.6936 19.2386C15.7424 19.3739 15.7711 19.5043 15.7892 19.6103C15.8257 19.8246 15.8376 20.0535 15.8319 20.2689C15.8262 20.486 15.8016 20.7298 15.7461 20.9715C15.6946 21.1958 15.5956 21.512 15.3862 21.8006C15.1565 22.1174 14.7307 22.4691 14.1164 22.4614ZM15.436 20.2617C15.4371 20.2586 15.4377 20.2572 15.4378 20.2572C15.4378 20.2573 15.4372 20.2588 15.436 20.2617ZM14.5957 20.0261C14.5958 20.0262 14.5932 20.0243 14.588 20.0195C14.5931 20.0235 14.5957 20.0259 14.5957 20.0261Z" fill="#574EDC"/>
<path fill-rule="evenodd" clip-rule="evenodd" d="M36.5391 34.0875C36.7575 33.4131 37.4658 33.0486 38.1211 33.2734C38.5588 33.4236 38.8762 33.7277 39.0751 33.9777C39.2857 34.2426 39.4629 34.5708 39.5608 34.9265C39.6523 35.2589 39.7191 35.7893 39.4639 36.318C39.1685 36.9301 38.6065 37.2142 38.0721 37.2753C37.3856 37.3538 36.7673 36.8448 36.691 36.1382C36.6622 35.8708 36.7151 35.6134 36.8293 35.3925C36.514 35.0586 36.3862 34.5597 36.5391 34.0875Z" fill="#574EDC"/>
<path fill-rule="evenodd" clip-rule="evenodd" d="M11.4646 8.81352C11.8477 9.40498 11.6924 10.2041 11.1177 10.5984C10.4797 11.0362 9.83405 11.0319 9.4576 11.0294C9.43095 11.0293 9.40565 11.0291 9.38181 11.0291C7.16521 11.0291 4.98039 11.0508 2.93771 11.437C2.25837 11.5654 1.60651 11.1027 1.48173 10.4035C1.35696 9.7044 1.80652 9.03352 2.48586 8.9051C4.78458 8.47057 7.18831 8.45489 9.38181 8.45489L9.40247 8.45489C9.50486 8.4549 9.57457 8.4549 9.63865 8.45284C9.69541 8.45102 9.72805 8.44798 9.7467 8.44546C10.3197 8.06531 11.0851 8.22767 11.4646 8.81352Z" fill="#574EDC"/>
</svg>
