<svg width="40" height="40" viewBox="0 0 40 40" fill="none" xmlns="http://www.w3.org/2000/svg">
<path fill-rule="evenodd" clip-rule="evenodd" d="M9.60384 18.9558C9.49349 18.8577 9.31661 18.6652 9.22978 18.3613C8.9889 17.5182 8.92713 16.6735 8.87602 15.9635L8.87446 15.9418C8.82123 15.2023 8.7778 14.599 8.62989 14.0192C8.5399 13.6664 8.47878 13.2858 8.42692 12.9629C8.42376 12.9433 8.42064 12.9238 8.41754 12.9046C8.3597 12.5453 8.30847 12.2398 8.23617 11.961C8.08825 11.3906 7.91808 11.1981 7.75117 11.1097C7.14074 10.7866 6.90786 10.0297 7.23103 9.41929C7.36708 9.16233 7.57997 8.97226 7.82643 8.86242C7.75235 8.70266 7.71101 8.52463 7.71101 8.33694C7.71101 7.64624 8.27094 7.08631 8.96164 7.08631C11.9058 7.08631 14.9163 7.0938 17.9613 7.61367C18.3619 7.68207 18.7729 7.81467 19.1294 8.08234C19.5082 8.36666 19.7256 8.72764 19.8482 9.07805C19.9584 9.39278 19.9952 9.71196 20.0176 9.93064C20.0257 10.0095 20.0323 10.0803 20.0385 10.1468C20.0529 10.2999 20.0651 10.4307 20.0881 10.5858C20.3185 12.1447 20.4257 13.6429 20.4257 15.2154C20.4257 15.3752 20.4386 15.5332 20.4557 15.7425C20.4589 15.7813 20.4622 15.8218 20.4656 15.8644C20.4844 16.1003 20.5094 16.4356 20.4753 16.7691C20.4399 17.1162 20.3316 17.569 19.9972 17.9738C19.6544 18.3888 19.192 18.6119 18.7169 18.7175C18.6922 18.723 18.6619 18.7324 18.4903 18.8198C18.4828 18.8236 18.4749 18.8277 18.4667 18.8319C18.3125 18.9108 18.0297 19.0555 17.6747 19.1344C17.6044 19.15 17.5445 19.1566 17.5316 19.158C17.5311 19.1581 17.5306 19.1581 17.5302 19.1582C17.507 19.1608 17.4858 19.1626 17.4705 19.1639C17.4391 19.1664 17.4047 19.1686 17.3715 19.1706C17.3037 19.1745 17.2155 19.1787 17.1128 19.1831C16.9062 19.192 16.6236 19.2024 16.2926 19.2133C15.6298 19.2352 14.7625 19.2595 13.8991 19.2786C13.0373 19.2976 12.172 19.3116 11.5163 19.3125C11.1909 19.3129 10.9033 19.3101 10.6895 19.3022C10.5872 19.2984 10.4755 19.2925 10.3771 19.2816C10.3347 19.2769 10.2487 19.2665 10.1527 19.2426C10.1106 19.2321 10.0057 19.2046 9.88468 19.1448C9.82337 19.1144 9.7165 19.0558 9.60384 18.9558ZM9.79551 9.58829C10.276 10.1347 10.516 10.7882 10.6573 11.3332C10.7636 11.7429 10.8313 12.1609 10.887 12.507L10.8879 12.5129C10.9471 12.8806 10.9922 13.1605 11.0535 13.4009C11.2578 14.2017 11.3151 15.004 11.3634 15.6803C11.3659 15.7152 11.3684 15.7497 11.3708 15.7839C11.3978 16.1583 11.4243 16.4962 11.4648 16.8112C11.4807 16.8112 11.4968 16.8112 11.5131 16.8112C12.1427 16.8104 12.9877 16.7969 13.8438 16.7779C14.6983 16.759 15.5566 16.735 16.2102 16.7134C16.5374 16.7026 16.8106 16.6926 17.0054 16.6842C17.0763 16.6811 17.1346 16.6784 17.18 16.676C17.2107 16.6629 17.2618 16.6385 17.3546 16.5912C17.3615 16.5877 17.3686 16.5841 17.3761 16.5803C17.5043 16.5148 17.7183 16.4053 17.9891 16.3242C17.9863 16.2564 17.9809 16.1715 17.9723 16.0632C17.9699 16.0333 17.9672 16.0012 17.9644 15.9672C17.9473 15.7616 17.9245 15.4872 17.9245 15.2154C17.9245 13.7623 17.8258 12.3864 17.6137 10.9516C17.5802 10.7248 17.5586 10.4939 17.5426 10.3231C17.5377 10.2711 17.5334 10.2246 17.5294 10.1855C17.5251 10.1436 17.521 10.1072 17.5171 10.0753C14.9839 9.64512 12.4506 9.59409 9.79551 9.58829ZM17.2681 16.6708C17.2671 16.6709 17.2655 16.671 17.2631 16.6712C17.2814 16.6692 17.2858 16.6694 17.2681 16.6708Z" fill="#574EDC"/>
<path fill-rule="evenodd" clip-rule="evenodd" d="M33.0818 19.5937C33.0818 19.5937 33.0818 19.5937 33.082 19.5937C31.4276 19.5937 29.7914 19.5309 28.1525 19.4292C28.0278 19.4215 27.856 19.426 27.5935 19.4329C27.5155 19.435 27.4294 19.4372 27.3342 19.4394C26.9685 19.4479 26.5058 19.4531 26.0622 19.4069C25.6543 19.3643 25.0693 19.2626 24.5817 18.9256C24.3145 18.7408 24.0572 18.4718 23.8986 18.0988C23.7403 17.7264 23.7192 17.3417 23.7759 16.9875C24.0258 15.4252 24.3871 13.8407 24.8586 12.3214C25.1066 11.5222 25.2634 10.6979 25.4361 9.7905L25.4422 9.7582C25.6041 8.9075 25.7811 7.98267 26.0662 7.06122C26.0299 6.81623 26.0659 6.55805 26.185 6.31972C26.4939 5.70193 27.2451 5.45153 27.8629 5.76042C28.5694 6.11366 29.1364 6.70165 29.5242 7.17804C29.8397 7.56571 30.2101 7.90137 30.6573 8.28879C30.7044 8.32956 30.7526 8.37114 30.8017 8.41355C31.1983 8.75558 31.6575 9.15163 32.0796 9.60993C33.6561 11.3215 34.8489 13.2286 35.74 15.345C35.7433 15.3529 35.7482 15.3643 35.7544 15.379C35.8229 15.5406 36.0581 16.0957 36.2637 16.6476C36.3739 16.9437 36.4889 17.2737 36.5639 17.5558C36.5994 17.6894 36.641 17.8664 36.6569 18.0459C36.6645 18.1317 36.6726 18.281 36.6437 18.4536C36.6203 18.5927 36.5339 18.992 36.1489 19.2881C35.7465 19.5976 35.2608 19.655 35.0368 19.6755C34.7467 19.702 34.4409 19.6948 34.1818 19.6808C33.9267 19.6669 33.6739 19.6435 33.4756 19.6252C33.4683 19.6246 33.461 19.6239 33.4539 19.6232C33.3489 19.6135 33.2641 19.6058 33.193 19.6004C33.1583 19.5977 33.1311 19.5959 33.1103 19.5949C33.0903 19.5938 33.0818 19.5937 33.0818 19.5937ZM28.0791 9.30964C28.0177 9.60656 27.9592 9.9112 27.8994 10.2257C27.8938 10.2549 27.8883 10.2842 27.8827 10.3136C27.7178 11.1807 27.538 12.1264 27.2474 13.0628C26.8598 14.3118 26.5507 15.6174 26.3233 16.9193C26.5948 16.9474 26.9184 16.9472 27.276 16.9389C27.3324 16.9375 27.3925 16.9359 27.455 16.9342C27.7343 16.9264 28.0602 16.9174 28.3075 16.9328C29.9075 17.0321 31.4906 17.0925 33.082 17.0925C33.2512 17.0925 33.4783 17.1135 33.6518 17.1296C33.6627 17.1306 33.6733 17.1316 33.6837 17.1325L33.6897 17.1331C33.7177 17.1357 33.7458 17.1383 33.7739 17.1408C33.6346 16.7877 33.5038 16.4788 33.4512 16.3545C33.4443 16.3383 33.4388 16.3252 33.4347 16.3156C32.6483 14.4478 31.6078 12.7897 30.2398 11.3045C29.921 10.9584 29.574 10.6585 29.1648 10.3049C29.1172 10.2638 29.0688 10.222 29.0195 10.1793C28.7228 9.92225 28.3984 9.63677 28.0791 9.30964Z" fill="#574EDC"/>
<path fill-rule="evenodd" clip-rule="evenodd" d="M18.8039 34.4189C18.6462 34.3183 18.4202 34.172 18.2722 34.0459C17.5907 33.4654 16.9419 32.8568 16.3181 32.2717C16.2956 32.2506 16.273 32.2294 16.2505 32.2083C15.5983 31.5966 14.9714 31.0109 14.3178 30.4612C13.7137 29.9531 13.0972 29.3412 12.5176 28.7661C12.2978 28.5479 12.0832 28.335 11.8767 28.135C11.0804 27.3641 10.3466 26.7245 9.60563 26.3128C9.00185 25.9774 8.78431 25.216 9.11974 24.6122C9.45518 24.0084 10.2166 23.7909 10.8203 24.1263C11.8678 24.7083 12.7997 25.5471 13.6166 26.3381C13.8765 26.5897 14.1219 26.8333 14.3585 27.0681C14.9069 27.6124 15.4073 28.1092 15.9279 28.547C16.6407 29.1466 17.3147 29.7772 17.9616 30.3839C17.9787 30.4 17.9959 30.4161 18.013 30.4321C18.649 31.0286 19.2592 31.6009 19.8942 32.1419C19.8919 32.1399 19.8951 32.1422 19.9048 32.1488C19.9314 32.1673 20.0068 32.2194 20.1486 32.3098C20.3126 32.4144 20.5061 32.5331 20.6862 32.6432C20.7091 32.6571 20.7321 32.6712 20.7551 32.6852C20.9013 32.7745 21.0445 32.8619 21.1299 32.9169C21.1536 32.9322 21.1922 32.9573 21.2304 32.9848L21.2311 32.9853C21.2447 32.9952 21.2938 33.0305 21.3484 33.0797C21.3489 33.0801 21.3493 33.0805 21.3499 33.081C21.3695 33.0987 21.454 33.1747 21.5359 33.2908C21.5712 33.3409 21.6808 33.5002 21.7342 33.7374C21.7987 34.0235 21.7889 34.5286 21.3732 34.9216C21.0529 35.2245 20.6905 35.2548 20.5942 35.2611C20.4579 35.2699 20.3511 35.2541 20.305 35.2463C20.2063 35.2298 20.1313 35.2047 20.1082 35.1969C20.0493 35.177 20.0022 35.1563 19.9858 35.149C19.9432 35.1302 19.9003 35.1091 19.8672 35.0926C19.765 35.0415 19.6728 34.9783 19.5916 34.9056C19.55 34.8801 19.5031 34.8515 19.4515 34.8199C19.4292 34.8064 19.4061 34.7922 19.3822 34.7776C19.203 34.6682 18.9907 34.538 18.8039 34.4189Z" fill="#574EDC"/>
<path fill-rule="evenodd" clip-rule="evenodd" d="M11.6719 36.4746C10.9812 36.4746 10.4213 35.9147 10.4213 35.224C10.4213 34.576 10.6755 33.9911 10.8485 33.6205C10.9271 33.452 10.9931 33.3178 11.0492 33.2037C11.151 32.9967 11.2202 32.856 11.2729 32.6978C12.4513 29.1626 14.92 26.7718 17.2849 24.4816C17.6954 24.084 18.1028 23.6894 18.4998 23.2924C18.9882 22.804 19.7801 22.804 20.2685 23.2924C20.7569 23.7808 20.7569 24.5727 20.2685 25.0611C19.8185 25.5111 19.3778 25.9404 18.95 26.3571C16.5857 28.6602 14.6156 30.5794 13.6458 33.4888C13.5365 33.8166 13.3499 34.197 13.2166 34.4686C13.1768 34.5497 13.1418 34.621 13.115 34.6784C12.9502 35.0315 12.9226 35.1763 12.9226 35.224C12.9226 35.9147 12.3626 36.4746 11.6719 36.4746Z" fill="#574EDC"/>
<path fill-rule="evenodd" clip-rule="evenodd" d="M26.7801 35.9919C26.7709 35.9875 26.7622 35.9832 26.754 35.9791C25.1916 35.2127 23.9772 33.6172 23.5014 32.0312C22.8974 30.018 23.1371 27.877 24.1598 26.2052C25.2027 24.5006 27.0289 23.3459 29.3892 23.3459C31.2715 23.3459 33.3103 23.3857 35.2058 24.86C36.0596 25.524 36.7026 26.2196 37.1664 27.0652C37.625 27.9014 37.8657 28.8073 38.0243 29.8229C38.4284 32.4086 37.2396 34.2838 35.5161 35.442C34.6001 36.0576 33.529 36.4806 32.4394 36.7467C31.9859 37.1987 31.357 37.3074 30.9548 37.3157C30.3713 37.3278 29.7435 37.1736 29.2282 37.0114C28.1921 36.6851 27.1425 36.1699 26.7801 35.9919ZM29.8904 34.597C29.064 34.3263 28.2026 33.9038 27.8601 33.7357L27.8556 33.7335C26.9961 33.3119 26.1992 32.3194 25.8972 31.3125C25.4801 29.9223 25.6725 28.5256 26.2935 27.5106C26.8943 26.5284 27.9235 25.8472 29.3892 25.8472C31.2889 25.8472 32.5164 25.937 33.6702 26.8344C34.3279 27.3459 34.7132 27.7938 34.9734 28.2681C35.2387 28.7518 35.4177 29.3426 35.5531 30.209C35.7807 31.6655 35.1904 32.6473 34.1209 33.366C33.0103 34.1124 31.4171 34.5236 29.8904 34.597Z" fill="#574EDC"/>
</svg>
