<svg width="40" height="40" viewBox="0 0 40 40" fill="none" xmlns="http://www.w3.org/2000/svg">
<path fill-rule="evenodd" clip-rule="evenodd" d="M18.503 1.45459C19.0777 1.06028 19.8541 1.2201 20.2373 1.81157C20.3743 2.02317 20.7501 2.71584 21.1262 3.40925C21.1989 3.54309 21.2715 3.67695 21.3424 3.8074C21.5749 4.23511 21.8047 4.65535 21.993 4.99059C22.0874 5.15857 22.168 5.29926 22.2314 5.40602C22.2769 5.48246 22.3028 5.52325 22.3131 5.53939C22.3196 5.54964 22.3198 5.54994 22.3146 5.54309L22.3536 5.59468L22.3874 5.65017C22.8836 6.46575 23.3246 7.22492 23.7124 7.89251C23.9447 8.2925 24.158 8.65961 24.3526 8.98629C24.8948 9.89655 25.3453 10.5869 25.8465 11.176L25.8669 11.2C25.9168 11.2123 25.9822 11.2261 26.0646 11.2394C26.3438 11.2846 26.6079 11.2977 26.8435 11.3094C26.9331 11.3138 27.0185 11.3181 27.0992 11.3238C28.2847 11.408 29.4578 11.4152 30.6842 11.4229C30.9285 11.4244 31.1749 11.4259 31.424 11.4281C33.5165 11.4462 35.7023 11.888 37.5481 12.3739C37.7845 12.4361 38.3204 12.5927 38.6526 13.0909C39.1309 13.8081 38.8068 14.5089 38.6531 14.7569C38.5142 14.9809 38.3237 15.1708 38.2414 15.2528C38.2363 15.2579 38.2316 15.2626 38.2273 15.2669C38.2175 15.2767 38.2084 15.2858 38.1998 15.2944C38.159 15.3352 38.1306 15.3637 38.1026 15.3931C38.0875 15.409 38.0767 15.4209 38.069 15.4297C38.0621 15.4375 38.0593 15.4412 38.0593 15.4412L38.0594 15.441C37.6471 15.981 37.0893 16.4137 36.6062 16.744C36.2421 16.993 35.8483 17.2301 35.5273 17.4235C35.4222 17.4868 35.3249 17.5454 35.239 17.5982C34.3983 18.1147 33.5024 18.5296 32.6841 18.9086C32.5503 18.9706 32.4185 19.0316 32.2894 19.0919C31.3386 19.5364 30.4949 19.9595 29.7502 20.5147C29.7059 20.5477 29.6553 20.5828 29.6193 20.6077C29.6077 20.6157 29.5964 20.6235 29.5852 20.6313C29.5548 20.6523 29.525 20.6728 29.492 20.696C29.4563 20.7209 29.4213 20.7458 29.3873 20.7705C29.3896 20.7813 29.392 20.7924 29.3945 20.8039C29.4315 20.9734 29.4857 21.2222 29.5107 21.4298C29.7059 23.0535 30.0947 24.6361 30.5403 26.2717C30.641 26.6415 30.7453 27.0162 30.8508 27.3949C31.2043 28.6647 31.5706 29.9805 31.8585 31.3135C32.0477 32.1897 32.1496 33.0634 32.2406 33.871C32.2454 33.9141 32.2503 33.957 32.2551 33.9997C32.3424 34.7769 32.4227 35.4905 32.5587 36.1908C32.7641 37.2473 31.9268 37.8684 31.3055 38.0109C30.7032 38.149 30.0079 38.0097 29.2637 37.7166C27.7364 37.1153 25.2973 35.5775 21.3774 32.1709C21.234 32.0462 21.0846 31.8918 20.9698 31.7726C20.9491 31.7511 20.9288 31.73 20.9089 31.7092C20.8036 31.5997 20.7077 31.4999 20.6087 31.4032C20.5495 31.3453 20.4966 31.296 20.4498 31.2547C20.3213 31.3053 20.1595 31.376 19.9646 31.4682C19.4138 31.7286 18.7125 32.106 17.9774 32.5181C17.3675 32.86 16.7524 33.2155 16.1997 33.5348C16.0893 33.5986 15.9814 33.661 15.8766 33.7215C15.2751 34.0686 14.7194 34.3873 14.4178 34.5308C13.9887 34.7349 13.5679 34.9308 13.1524 35.1242C12.3466 35.4994 11.5609 35.8651 10.7743 36.2633C10.7782 36.2613 10.7808 36.26 10.7809 36.2601C10.7811 36.2605 10.7559 36.2757 10.667 36.3318C10.5822 36.3854 10.4543 36.466 10.316 36.5415C10.1846 36.6132 9.99188 36.7096 9.77267 36.7727C9.58718 36.8261 9.16422 36.9221 8.70633 36.7237C8.28478 36.541 8.08785 36.1984 8.01937 36.066C7.93456 35.9021 7.88793 35.7437 7.86127 35.6379C7.80645 35.4202 7.77957 35.1904 7.76434 35.0164C7.73265 34.6545 7.73258 34.2967 7.73258 34.2146C7.73258 33.445 7.94323 32.701 8.13644 32.1076C8.21646 31.8619 8.2906 31.6483 8.35839 31.453C8.47694 31.1114 8.57609 30.8257 8.65346 30.5217C8.90584 29.53 9.2445 28.5218 9.56394 27.5708C9.69804 27.1716 9.82875 26.7825 9.94827 26.4089C10.36 25.122 10.6774 23.917 10.7577 22.7043C10.701 22.6794 10.6431 22.6556 10.5821 22.6321C9.24354 22.1155 7.94446 21.27 6.82297 20.54C6.54984 20.3623 6.28724 20.1914 6.03717 20.0337C5.77691 19.8697 5.5049 19.702 5.22686 19.5307C4.58903 19.1376 3.91942 18.7249 3.28697 18.2909C2.42708 17.701 1.44601 16.9585 0.700687 15.9723C0.457477 15.6505 0.312791 15.1591 0.49836 14.6458C0.640803 14.2518 0.914938 14.038 1.02742 13.9578C1.27208 13.7832 1.54907 13.6929 1.68381 13.6515C1.97577 13.5618 2.40392 13.4813 2.33718 13.4966C3.69393 13.1863 5.09763 13.0834 6.3598 12.9924C8.31393 12.8515 10.3188 12.7151 12.3298 12.7151C12.8552 12.7151 13.3693 12.7725 13.8075 12.8214L13.8303 12.8239C14.1147 12.8556 14.3686 12.8835 14.6072 12.9005C15.2545 11.63 15.7684 10.2935 16.2976 8.88568C16.3337 8.78972 16.3699 8.69337 16.4062 8.59668C16.9043 7.26955 17.4263 5.87855 18.076 4.52853C18.19 4.2916 18.3654 4.10674 18.5725 3.98422C18.5505 3.94378 18.5289 3.90424 18.5077 3.86569C18.4138 3.69422 18.3326 3.54725 18.2681 3.4327C18.2358 3.37541 18.2092 3.32899 18.1883 3.29322C18.1655 3.25438 18.156 3.23936 18.1561 3.23948C17.773 2.64802 17.9283 1.8489 18.503 1.45459ZM19.9438 6.48454C19.5098 7.47245 19.1273 8.49115 18.7302 9.54875C18.6971 9.63705 18.6638 9.72561 18.6304 9.81446C18.094 11.2414 17.5235 12.7332 16.7817 14.1754C16.7029 14.3285 16.5968 14.4677 16.5408 14.5392C16.4667 14.634 16.3798 14.7362 16.2899 14.8328C16.2042 14.9249 16.0924 15.0372 15.9698 15.1367C15.9099 15.1854 15.8204 15.2532 15.7101 15.3148C15.633 15.3579 15.3864 15.4919 15.0511 15.4919C14.5355 15.4919 14.0274 15.4352 13.5927 15.3867L13.5608 15.3831C13.0957 15.3313 12.7069 15.2893 12.3298 15.2893C10.4172 15.2893 8.4931 15.4191 6.53462 15.5603C5.7142 15.6195 4.92155 15.6791 4.15806 15.7823C4.324 15.905 4.49646 16.027 4.67442 16.1491C5.25562 16.5478 5.83757 16.9063 6.4485 17.2827C6.73929 17.4619 7.03665 17.6451 7.34361 17.8386C7.6624 18.0395 7.97168 18.2402 8.27449 18.4367C9.37358 19.1498 10.3873 19.8076 11.4604 20.2218C11.8898 20.3875 12.2219 20.5638 12.5797 20.7742C12.9314 20.981 13.169 21.3043 13.2778 21.67C13.3717 21.9859 13.35 22.2673 13.3315 22.4174C13.3146 22.5532 13.2842 22.6885 13.2705 22.7495C13.269 22.7564 13.2677 22.7623 13.2666 22.7672C13.2623 22.7864 13.2595 22.8002 13.2576 22.8094C13.163 24.377 12.7602 25.8506 12.3241 27.2139C12.1789 27.6676 12.0333 28.1006 11.8915 28.5224C11.5873 29.4275 11.3004 30.2806 11.0731 31.1739C10.969 31.5831 10.8068 32.0528 10.6666 32.4586C10.6079 32.6285 10.5531 32.7872 10.5081 32.9257C10.4207 33.194 10.3534 33.4289 10.3073 33.6371C10.927 33.3349 11.556 33.042 12.1724 32.755C12.5786 32.5658 12.9794 32.3792 13.3683 32.1941C13.5576 32.1041 14.0046 31.8505 14.6533 31.4762C14.7556 31.4171 14.8616 31.3558 14.9708 31.2927C15.5235 30.9733 16.1555 30.6081 16.781 30.2575C17.5265 29.8396 18.2889 29.4276 18.9203 29.129C19.2332 28.9811 19.5431 28.8469 19.818 28.7543C19.9546 28.7083 20.1102 28.663 20.27 28.6351C20.4022 28.612 20.6682 28.5754 20.9649 28.6517C21.3124 28.7411 21.5967 28.9235 21.7876 29.0645C21.9911 29.215 22.1775 29.3864 22.3308 29.5362C22.4612 29.6636 22.589 29.7967 22.6936 29.9056C22.712 29.9247 22.7296 29.9431 22.7465 29.9606C22.8742 30.0932 22.9466 30.1653 22.9912 30.2041C26.5576 33.3036 28.6859 34.6543 29.8745 35.1923C29.8378 34.8961 29.8051 34.605 29.7734 34.3222C29.7675 34.2704 29.7617 34.2188 29.756 34.1675C29.6641 33.352 29.5743 32.6017 29.4168 31.8719C29.1469 30.6222 28.8091 29.4085 28.46 28.1539C28.3511 27.7629 28.2412 27.368 28.1319 26.9667C27.679 25.3041 27.2475 23.5691 27.0284 21.7458C27.0198 21.6743 27.0013 21.5886 26.9684 21.4359C26.9575 21.3852 26.945 21.3272 26.9307 21.2598C26.8883 21.0597 26.8162 20.715 26.8162 20.3841C26.8162 19.8126 27.1379 19.4174 27.2419 19.2933C27.3933 19.1128 27.5667 18.962 27.6992 18.8551C27.9078 18.6867 28.326 18.3979 28.2827 18.4301C29.2482 17.7102 30.2935 17.1976 31.2551 16.7482C31.3978 16.6814 31.5382 16.6163 31.6765 16.5521C32.5013 16.1695 33.2502 15.8221 33.9569 15.3879C34.0784 15.3132 34.1986 15.2408 34.3179 15.1689C34.6232 14.985 34.9225 14.8047 35.2221 14.5998C35.274 14.5643 35.324 14.5294 35.372 14.4949C34.0529 14.2127 32.6865 14.0133 31.403 14.0022C31.167 14.0001 30.9294 13.9987 30.6903 13.9973C29.4633 13.9898 28.1983 13.9821 26.9271 13.8919C26.9087 13.8906 26.8755 13.8891 26.8304 13.8869C26.6116 13.8766 26.1136 13.8532 25.6761 13.7824C25.4066 13.7388 25.0641 13.6648 24.7465 13.5219C24.5236 13.4217 24.1054 13.195 23.8495 12.7343C23.2552 12.0127 22.7472 11.2165 22.2201 10.3317C21.9934 9.95105 21.7697 9.56555 21.5336 9.15881C21.1679 8.52878 20.7726 7.84777 20.2909 7.05494C20.1903 6.90939 20.0652 6.69743 19.9438 6.48454ZM2.34205 16.138C2.34197 16.1379 2.34394 16.1371 2.34821 16.1354C2.34427 16.1372 2.34213 16.138 2.34205 16.138Z" fill="#574EDC"/>
</svg>
