<svg width="40" height="40" viewBox="0 0 40 40" fill="none" xmlns="http://www.w3.org/2000/svg">
<path d="M21.7749 3.64347C18.2896 3.23815 14.4796 2.70342 11.2946 4.44878C7.99714 6.25577 6.53463 10.152 5.36259 13.3766C3.0697 19.6848 3.08872 29.3624 10.0287 33.2732C14.8175 35.9718 21.7953 36.7262 27.1034 35.2726C35.1239 33.0761 35.7879 24.8409 34.4632 18.2362C33.5059 13.4629 31.8346 8.67719 27.2653 5.93443C22.5695 3.11567 17.094 2.72015 11.7067 3.14363" stroke="#574EDC" stroke-width="2.5" stroke-linecap="round"/>
<path d="M17.5017 9.92302C17.4305 10.3578 17.209 10.4878 17.7154 10.6593C18.416 10.8966 19.0218 11.2336 19.6403 10.6203C20.022 10.2418 20.1113 9.74785 19.7146 9.51948C18.9612 9.08575 18.2503 8.8303 17.5389 9.37263" stroke="#574EDC" stroke-width="2.5" stroke-linecap="round"/>
<path d="M18.4854 16.4579C18.317 18.9522 18.2953 21.292 18.7665 23.4928" stroke="#574EDC" stroke-width="2.5" stroke-linecap="round"/>
<path d="M12.2021 13.027C15.5258 15.757 17.9865 16.4242 18.9842 16.4916" stroke="#574EDC" stroke-width="2.5" stroke-linecap="round"/>
<path d="M18.3833 16.6644C20.5482 15.5949 24.7412 12.871 24.7412 12.871" stroke="#574EDC" stroke-width="2.5" stroke-linecap="round"/>
<path d="M18.5464 22.9769C16.8815 25.3702 13.6526 28.6602 13.6189 29.1591" stroke="#574EDC" stroke-width="2.5" stroke-linecap="round"/>
<path d="M19.0449 23.0105C21.2704 24.7778 25.1261 29.4346 25.0924 29.9335" stroke="#574EDC" stroke-width="2.5" stroke-linecap="round"/>
</svg>
