<svg width="43" height="42" viewBox="0 0 43 42" fill="none" xmlns="http://www.w3.org/2000/svg">
<path fill-rule="evenodd" clip-rule="evenodd" d="M10.0924 18.4743C9.86367 19.0836 10.1167 19.7842 10.6951 20.0853C10.856 20.169 10.9693 20.2342 11.0494 20.2851C11.0443 20.3129 11.0383 20.344 11.0311 20.3788C10.9109 20.9627 10.7373 21.9687 10.5505 23.0515C10.488 23.4137 10.4241 23.7844 10.3601 24.1507C10.0963 25.6624 9.83664 27.0773 9.65744 27.7436C9.53074 28.2148 9.35358 28.2909 9.2217 28.3295C8.97673 28.4013 8.53809 28.3862 7.90045 28.1672C6.63178 27.7314 5.28709 26.7405 4.77463 26.1755C3.64997 24.9357 3.09683 23.5652 3.08354 22.3084C3.07056 21.0811 3.56849 19.8245 4.81206 18.7369C5.14107 18.4492 5.70316 18.1864 6.44914 18.0419C7.18034 17.9002 7.99342 17.8913 8.74042 18.023C9.27578 18.1174 9.73384 18.2759 10.0924 18.4743ZM13.4954 19.4987C13.6435 20.0449 13.5497 20.5639 13.4781 20.9122C13.3672 21.4509 13.2055 22.3878 13.0218 23.4526C12.9575 23.8252 12.8905 24.2135 12.822 24.6058C12.5665 26.0697 12.2853 27.6224 12.0681 28.4303C11.7356 29.6664 10.9704 30.4938 9.90628 30.8055C8.95527 31.084 7.94439 30.896 7.10867 30.609C5.43062 30.0327 3.73329 28.7998 2.94627 27.9322C1.48422 26.3204 0.603803 24.3578 0.582428 22.3364C0.560742 20.2856 1.42704 18.3192 3.19234 16.7753C3.96094 16.1031 4.9792 15.7073 5.98634 15.5121C7.00826 15.3141 8.12107 15.3021 9.16276 15.4858C10.1938 15.6676 11.2425 16.0571 12.0616 16.7408C12.8494 17.3984 13.4151 18.3282 13.4954 19.4987Z" fill="#574EDC"/>
<path fill-rule="evenodd" clip-rule="evenodd" d="M26.0177 5.20006C22.8065 5.19762 20.0861 5.19554 17.9457 6.84118C17.3882 7.26977 16.8367 7.83806 16.2611 8.48813C16.0438 8.73351 15.8035 9.01422 15.5577 9.3012C15.2112 9.70583 14.8541 10.1229 14.536 10.471C13.7699 11.3094 13.2389 12.3026 12.7595 13.4338C12.5463 13.9368 12.3506 14.4487 12.1454 14.9856C12.1185 15.056 12.0914 15.1268 12.0642 15.1981C11.8325 15.8031 11.5865 16.4366 11.3059 17.0607C11.0158 17.7058 10.2725 17.9868 9.64565 17.6883C9.01881 17.3897 8.74579 16.6248 9.03585 15.9796C9.28295 15.43 9.50571 14.8585 9.73706 14.2543C9.76368 14.1848 9.79045 14.1147 9.8174 14.0442C10.0207 13.512 10.234 12.9539 10.4668 12.4047C10.9969 11.1538 11.6652 9.8552 12.7139 8.70748C13.0296 8.36192 13.3165 8.02589 13.6222 7.66766C13.8655 7.3826 14.1208 7.08349 14.4123 6.75433C15.0179 6.07027 15.6972 5.35667 16.4487 4.77889C19.2812 2.60118 22.8103 2.61387 25.786 2.62457C25.9913 2.62531 26.1938 2.62604 26.3934 2.62604C27.5286 2.62604 28.426 3.07614 29.1412 3.54974C29.4605 3.76116 29.7681 3.99456 30.0401 4.20096C30.0664 4.22093 30.0924 4.24064 30.1181 4.26006C30.4221 4.49044 30.6882 4.68841 30.9573 4.85774C31.9442 5.4785 32.6149 6.41121 33.1046 7.28769C33.4797 7.95922 33.7979 8.69522 34.0634 9.30932C34.1385 9.48317 34.2095 9.64725 34.2763 9.79733C34.9011 11.2012 35.3346 12.7096 35.3346 14.3606C35.3346 14.5428 35.3166 14.7769 35.3021 14.9648C35.3 14.9927 35.2979 15.0195 35.296 15.045C35.2785 15.2774 35.2643 15.4948 35.2637 15.6922C35.2634 15.7843 35.2663 15.8565 35.2704 15.9113C35.6065 16.2876 35.7052 16.8511 35.477 17.34C35.178 17.9808 34.4309 18.2508 33.8083 17.943C33.18 17.6325 32.9553 17.0315 32.8705 16.7042C32.7778 16.3463 32.7616 15.973 32.7624 15.6843C32.7633 15.3821 32.7846 15.0805 32.8022 14.8464C32.8041 14.8203 32.806 14.7954 32.8078 14.7717C32.8244 14.5515 32.8333 14.4333 32.8333 14.3606C32.8333 13.1864 32.5276 12.0497 32.0023 10.8694C31.9126 10.6679 31.8267 10.4695 31.742 10.274C31.4855 9.68144 31.2405 9.11554 30.9362 8.57082C30.5398 7.86125 30.1256 7.35152 29.6529 7.05416C29.2811 6.8203 28.9364 6.56132 28.6351 6.33308C28.6119 6.31549 28.589 6.2981 28.5663 6.28091C28.2815 6.06493 28.0369 5.87948 27.7878 5.71457C27.265 5.36837 26.8475 5.20025 26.3934 5.20025C26.2674 5.20025 26.1422 5.20016 26.0177 5.20006ZM35.2873 16.0408C35.2872 16.0403 35.287 16.0398 35.2869 16.0392C35.2908 16.051 35.2904 16.0527 35.2873 16.0408Z" fill="#574EDC"/>
<path fill-rule="evenodd" clip-rule="evenodd" d="M36.8558 15.0872C37.835 15.494 38.7685 16.1246 39.4912 16.8754C40.5066 17.9302 41.2235 19.52 41.6681 21.053C42.118 22.604 42.3441 24.288 42.2469 25.6506C42.1698 26.732 41.4982 27.6623 40.924 28.2863C40.3101 28.9534 39.577 29.5167 38.9923 29.8638C37.4981 30.7508 35.7203 31.2559 34.0425 30.9387C32.28 30.6055 30.8153 29.3961 30.0487 27.2725L29.9766 27.0728L29.9708 26.8599L31.221 26.8242C29.9708 26.8599 29.9708 26.86 29.9708 26.8599L29.9611 26.4795C29.9551 26.2374 29.9468 25.8905 29.9376 25.471C29.9191 24.6322 29.897 23.5013 29.8822 22.335C29.8674 21.1703 29.8599 19.9628 29.8711 18.9732C29.8754 18.5938 29.8825 18.2409 29.8934 17.9316C29.8586 17.8572 29.8358 17.7902 29.8206 17.7376C29.8008 17.6691 29.7895 17.6091 29.7826 17.5631C29.7756 17.5163 29.772 17.4753 29.7701 17.4424C29.7662 17.3781 29.7675 17.3244 29.7693 17.288C29.7712 17.2499 29.7743 17.2168 29.7772 17.1909C29.7829 17.1403 29.7903 17.096 29.7963 17.0635C29.8084 16.9984 29.8231 16.9357 29.8361 16.8842C29.8627 16.779 29.8963 16.6638 29.9297 16.5582C29.963 16.4526 30.0016 16.339 30.0402 16.2378C30.0591 16.1882 30.0829 16.1287 30.1102 16.069C30.1238 16.0391 30.1428 15.9993 30.1667 15.9554C30.1789 15.933 30.195 15.9048 30.2147 15.8734C30.2335 15.8434 30.2621 15.8004 30.3003 15.752C30.3199 15.7273 30.345 15.6972 30.3757 15.6646C30.406 15.6325 30.447 15.5922 30.4988 15.5498C30.5206 15.5321 30.5463 15.5122 30.576 15.4916C30.5837 15.4805 30.5914 15.4696 30.5992 15.4587C30.8708 15.0819 31.2319 14.8036 31.7143 14.6788C32.0839 14.5833 32.4782 14.5974 32.7538 14.6073L32.7564 14.6074C32.8302 14.61 32.9053 14.6131 32.983 14.6163C33.2268 14.6263 33.496 14.6373 33.8297 14.6392C34.8564 14.4774 35.9248 14.7005 36.8558 15.0872ZM32.5112 17.1758C32.4876 17.2256 32.4616 17.2833 32.4319 17.3511C32.4305 17.3648 32.4291 17.3802 32.4275 17.3975C32.4186 17.4964 32.4101 17.6263 32.4026 17.7874C32.3875 18.1093 32.3777 18.5233 32.3722 19.0032C32.3614 19.9613 32.3686 21.1443 32.3832 22.3014C32.3979 23.4568 32.4199 24.579 32.4382 25.4127C32.4474 25.8295 32.4556 26.1738 32.4616 26.4138L32.4654 26.5641C32.9507 27.7607 33.6987 28.2564 34.4945 28.4069C35.4155 28.581 36.5869 28.3199 37.7426 27.6339C38.1329 27.4023 38.6716 26.9902 39.108 26.5161C39.5839 25.999 39.7409 25.6224 39.7524 25.4622C39.822 24.4855 39.6577 23.1213 39.2714 21.7892C38.8798 20.4392 38.3149 19.3111 37.7143 18.6872C37.2415 18.196 36.5978 17.756 35.9196 17.4744C35.2307 17.1882 34.6101 17.1071 34.1574 17.1926L34.0455 17.2138H33.9317C33.4946 17.2138 33.1329 17.1988 32.8615 17.1876C32.7913 17.1847 32.7272 17.1821 32.6693 17.18C32.6068 17.1778 32.5546 17.1765 32.5112 17.1758Z" fill="#574EDC"/>
<path fill-rule="evenodd" clip-rule="evenodd" d="M36.6629 30.0926C37.3491 30.0111 37.9695 30.5175 38.0487 31.2236C38.2252 32.7969 37.9465 33.8829 37.2855 34.8248C36.9944 35.2398 36.647 35.5995 36.3438 35.9112C36.3225 35.9332 36.3012 35.9551 36.28 35.9769C35.9841 36.2809 35.6997 36.5732 35.4055 36.9305C34.0817 38.5384 32.5421 39.65 30.7614 40.4991C29.7236 40.9939 28.5529 41.1684 27.4812 41.2204C26.4224 41.2717 25.3606 41.2061 24.4959 41.1527L24.4478 41.1498C23.9701 41.1203 23.4482 41.0108 23.1093 40.9396C23.089 40.9354 23.0695 40.9313 23.0506 40.9274C22.959 40.9082 22.8879 40.8936 22.8328 40.8829C22.7815 40.8894 22.7294 40.8928 22.6764 40.8928C21.9857 40.8928 21.4258 40.3166 21.4258 39.6057C21.4258 39.0658 21.7313 38.6777 22.04 38.4851C22.2789 38.336 22.5046 38.3058 22.5856 38.2966C22.7705 38.2756 22.9376 38.296 23.0061 38.3048C23.1716 38.3258 23.3755 38.3685 23.5377 38.4024L23.5485 38.4047C23.9365 38.4858 24.3037 38.562 24.5975 38.5802C25.4929 38.6354 26.4409 38.6937 27.3635 38.649C28.2927 38.6039 29.0942 38.4569 29.7099 38.1634C31.2149 37.4458 32.4438 36.5459 33.4972 35.2664C33.8615 34.8239 34.215 34.4609 34.5044 34.1637C34.5287 34.1388 34.5524 34.1144 34.5757 34.0904C34.8932 33.7639 35.101 33.5412 35.2578 33.3177C35.4928 32.9828 35.6816 32.5676 35.564 31.5188C35.4848 30.8126 35.9768 30.1741 36.6629 30.0926ZM22.6987 40.8595C22.6991 40.8595 22.6995 40.8596 22.6999 40.8596C22.6843 40.8584 22.6824 40.8574 22.6987 40.8595Z" fill="#574EDC"/>
<path fill-rule="evenodd" clip-rule="evenodd" d="M22.8489 35.112C22.6779 34.8715 22.4446 34.6574 22.1432 34.521C21.8276 34.3781 21.5106 34.3536 21.2352 34.3901C20.7247 34.4576 20.3209 34.7351 20.0668 34.954C19.791 35.1916 19.5525 35.4806 19.3715 35.7687C19.2045 36.0345 19.0145 36.4132 18.9594 36.8359C18.8504 37.673 19.0124 38.2898 19.3594 38.8103C19.4502 38.9465 19.5913 39.1216 19.6487 39.1928C19.6603 39.2073 19.6685 39.2174 19.6722 39.2221C19.7282 39.2947 19.7429 39.3235 19.7518 39.3445C19.9144 39.7284 20.237 39.9896 20.6041 40.0814C20.6053 40.0926 20.6065 40.1039 20.6079 40.1152C20.6953 40.8203 21.3215 41.3191 22.0067 41.2292C22.8967 41.1124 23.5796 40.4621 23.982 39.9101C24.403 39.3327 24.7618 38.5329 24.7618 37.7082C24.7618 37.1662 24.6319 36.6674 24.3455 36.2407C24.0719 35.8332 23.7226 35.5937 23.4692 35.4461C23.345 35.3738 23.2219 35.3116 23.1327 35.2665L23.1294 35.2648C23.0291 35.2141 22.9669 35.1825 22.9114 35.1507C22.8805 35.1331 22.8606 35.1201 22.8489 35.112ZM22.0335 38.2896C22.1027 38.1835 22.1595 38.0722 22.1994 37.9668C22.2505 37.8318 22.2606 37.7429 22.2606 37.7082C22.2606 37.7055 22.2606 37.7029 22.2606 37.7004C22.2537 37.6961 22.246 37.6916 22.2376 37.6866C22.1844 37.6557 22.1229 37.624 22.0265 37.5753C22.0212 37.5726 22.0157 37.5698 22.0102 37.567C21.9257 37.5243 21.8101 37.466 21.6956 37.4004C21.6173 37.3556 21.5278 37.3011 21.4332 37.2345C21.4327 37.2354 21.4323 37.2364 21.4318 37.2373C21.4258 37.3012 21.4264 37.3411 21.4277 37.3624C21.4381 37.3774 21.4549 37.3998 21.4852 37.4379C21.4917 37.4462 21.5017 37.4585 21.5136 37.4734C21.5462 37.5139 21.5939 37.5733 21.6307 37.6209C21.7506 37.7764 21.9051 37.9948 22.0335 38.2896ZM21.421 37.2611C21.4203 37.2632 21.4199 37.2643 21.4199 37.2643C21.4198 37.2643 21.4202 37.2632 21.421 37.2611Z" fill="#574EDC"/>
</svg>
