<svg width="40" height="43" viewBox="0 0 40 43" fill="none" xmlns="http://www.w3.org/2000/svg">
<path fill-rule="evenodd" clip-rule="evenodd" d="M22.0309 0.793518C23.6235 1.30619 25.1462 2.13585 26.2034 2.91302C29.3854 5.25219 32.2091 8.1209 34.4745 11.4023C37.1783 15.3187 38.7702 19.2261 38.7702 24.2204C38.7702 29.0595 37.5236 32.7853 34.8446 36.7957C33.839 38.3011 32.2049 39.3594 30.5398 40.018C28.8619 40.6817 27.0059 40.9989 25.4039 40.903C25.3313 40.8987 25.2589 40.8943 25.1867 40.89C18.7108 40.5031 14.1458 40.2303 8.77045 35.4429C6.95491 33.8259 5.06385 31.5645 3.56623 29.0778C2.076 26.6033 0.914723 23.805 0.677472 21.1192C0.328686 17.1706 0.984059 12.4468 3.77253 9.16699C5.53635 7.0924 7.82577 5.17257 10.1062 3.77265C11.9386 2.64772 13.9406 2.34046 15.8421 2.29819C16.005 2.29457 16.168 2.29289 16.3307 2.29286C16.1071 1.64494 16.4192 0.925445 17.045 0.667827C18.6231 0.0181725 20.4801 0.294312 22.0309 0.793518ZM22.5102 3.72368C22.5119 3.7558 22.5124 3.78823 22.5117 3.82092C22.497 4.5316 21.9253 5.09547 21.2348 5.08035C20.507 5.06441 19.7598 5.01949 19.0337 4.97584C18.8591 4.96534 18.6858 4.95491 18.5142 4.94498C17.614 4.89289 16.7441 4.85295 15.8961 4.8718C14.1986 4.90954 12.6917 5.18282 11.3875 5.98344C9.316 7.25512 7.2337 9.00517 5.65491 10.8621C3.50233 13.394 2.85044 17.2858 3.16846 20.8861C3.3574 23.0251 4.31374 25.4327 5.69224 27.7216C7.06334 29.9983 8.79212 32.0579 10.4072 33.4964C15.1386 37.7102 18.9487 37.9382 25.5269 38.3318L25.5491 38.3331C26.7592 38.4055 28.2604 38.1618 29.6424 37.6152C31.0372 37.0635 32.1659 36.2618 32.7834 35.3374C35.2051 31.7122 36.2689 28.488 36.2689 24.2204C36.2689 19.8912 34.9217 16.4944 32.4355 12.8933C30.3387 9.85615 27.7161 7.18853 24.7496 5.00775C24.1639 4.57725 23.3754 4.1115 22.5102 3.72368Z" fill="#574EDC"/>
<path fill-rule="evenodd" clip-rule="evenodd" d="M12.1476 14.5038C13.0762 14.2505 14.3422 14.1736 15.3825 15.0495C16.3992 15.9056 17.262 17.1778 17.4521 18.6935C17.5599 19.5537 17.4269 20.667 17.1482 21.6437C16.8841 22.5693 16.3882 23.7333 15.5046 24.3699C14.8454 24.8447 14.0756 25.0161 13.4212 25.0676C12.754 25.1202 12.0955 25.0567 11.5631 24.967C10.6345 24.8106 9.97681 24.314 9.49211 23.7989C9.18318 23.4706 8.87145 23.0424 8.63075 22.7118C8.54263 22.5908 8.46403 22.4828 8.39857 22.3976C7.9865 21.8613 8.05585 21.0919 8.54392 20.6417C8.53567 20.4221 8.50138 20.1775 8.45115 19.8637C8.44587 19.8308 8.44034 19.7966 8.43464 19.7614C8.38384 19.4481 8.31925 19.0496 8.30231 18.6574C8.28266 18.2024 8.31968 17.663 8.54697 17.1156C8.78032 16.5537 9.17315 16.0816 9.71412 15.6995C10.3174 15.2734 11.1986 14.7628 12.1476 14.5038ZM10.8401 21.4507C10.991 21.6579 11.1219 21.8307 11.2888 22.008C11.5391 22.2739 11.7375 22.3879 11.967 22.4266C12.3762 22.4955 12.8242 22.5329 13.2304 22.5009C13.6494 22.4679 13.9199 22.3693 14.0702 22.261C14.2245 22.1498 14.5201 21.718 14.7483 20.9183C14.9619 20.1697 15.0222 19.4282 14.9714 19.0229C14.8819 18.3092 14.4482 17.5888 13.7986 17.0418C13.664 16.9285 13.3823 16.8301 12.7885 16.9921C12.2151 17.1485 11.5994 17.49 11.1294 17.822C10.9272 17.9648 10.8702 18.0713 10.847 18.1272C10.8177 18.1978 10.7913 18.3157 10.8011 18.5431C10.811 18.7714 10.85 19.0146 10.9057 19.3615C10.9101 19.3888 10.9146 19.4166 10.9191 19.4452C10.9762 19.8016 11.0471 20.2609 11.0471 20.7412C11.0471 21.0034 10.9709 21.2473 10.8401 21.4507Z" fill="#574EDC"/>
<path fill-rule="evenodd" clip-rule="evenodd" d="M14.1917 20.0972C14.3073 19.3964 14.9531 18.9248 15.634 19.0438C18.1838 19.4894 20.6604 19.8837 23.1369 19.8837C23.8276 19.8837 24.3875 20.4599 24.3875 21.1708C24.3875 21.8816 23.8276 22.4579 23.1369 22.4579C20.4265 22.4579 17.762 22.0267 15.2153 21.5816C14.5343 21.4626 14.076 20.798 14.1917 20.0972Z" fill="#574EDC"/>
<path fill-rule="evenodd" clip-rule="evenodd" d="M24.8086 15.4542C25.8179 15.0456 27.0135 15.0345 27.9826 15.3381C29.6699 15.8666 30.7033 17.2799 31.0504 18.7805C31.3939 20.2658 31.1012 21.9818 29.9836 23.224C29.6407 23.6051 29.255 24.0079 28.8437 24.3527C28.44 24.6912 27.9486 25.0281 27.3876 25.2089C27.2941 25.2391 27.1985 25.2649 27.1012 25.2857C26.6802 25.5375 26.1361 25.5223 25.722 25.2028C25.6298 25.17 25.5376 25.1311 25.4456 25.0857C24.8088 24.7714 24.3204 24.2125 23.935 23.5384C23.8336 23.3609 23.7782 23.1687 23.7652 22.9763C23.0086 21.6456 22.6934 20.1013 22.7203 18.4075C22.7453 16.8388 23.7531 15.8816 24.8086 15.4542ZM26.731 22.7166C26.8608 22.6575 27.0377 22.5466 27.264 22.3568C27.5414 22.1243 27.835 21.8233 28.1483 21.475C28.6182 20.9528 28.7967 20.153 28.6171 19.3766C28.441 18.6154 27.957 18.0209 27.2543 17.8008C26.7862 17.6541 26.1722 17.6684 25.7243 17.8498C25.3224 18.0125 25.2251 18.2099 25.2213 18.4497C25.1919 20.2956 25.663 21.6698 26.731 22.7166Z" fill="#574EDC"/>
<path fill-rule="evenodd" clip-rule="evenodd" d="M14.2502 31.2954C14.6881 30.7457 15.4761 30.6653 16.0103 31.1159C17.1696 32.0939 18.8647 32.8834 20.6219 33.1723C22.3843 33.4619 24.0462 33.2252 25.2639 32.3793C25.3872 32.2937 25.4127 32.2448 25.4138 32.2426L25.4138 32.2426C25.4152 32.24 25.4182 32.2343 25.4216 32.2195C25.4253 32.2034 25.4309 32.1697 25.4309 32.1114C25.4309 31.4005 25.9909 30.8243 26.6816 30.8243C27.3723 30.8243 27.9322 31.4005 27.9322 32.1114C27.9322 32.5787 27.8393 33.0491 27.6016 33.4904C27.3665 33.927 27.032 34.2569 26.6633 34.513C24.753 35.84 22.3848 36.0688 20.2275 35.7143C18.0651 35.3589 15.9511 34.3945 14.4247 33.1068C13.8905 32.6562 13.8124 31.8452 14.2502 31.2954Z" fill="#574EDC"/>
</svg>
