<svg width="40" height="40" viewBox="0 0 40 40" fill="none" xmlns="http://www.w3.org/2000/svg">
<path d="M11.6367 6.87512C11.5196 7.92874 11.4613 8.98156 11.4177 10.0444C11.3542 11.5907 11.3576 13.1389 11.3082 14.6858C11.2607 16.1729 11.2474 17.6479 11.363 19.1325C11.5889 22.0365 11.8563 24.9267 11.9135 27.8404C11.9323 28.8025 12.0249 29.7564 12.0716 30.7147C12.1062 31.4231 12.1842 32.1449 12.1842 32.8529C12.1842 33.5278 12.2065 34.2225 12.242 34.8968C12.2482 35.0153 12.262 35.1556 12.321 35.2618C12.3903 35.3864 12.5187 35.0398 12.5674 34.9607" stroke="#574EDC" stroke-width="2.5" stroke-linecap="round"/>
<path d="M11.6914 6.16342C14.239 5.68574 16.81 5.96238 19.3895 5.91401C20.0692 5.90127 26.2361 5.82206 26.3212 6.21208C27.1207 9.87657 27.1864 13.5951 27.3492 17.3319C27.5484 21.901 27.75 26.5287 27.2671 31.0888C27.2501 31.2492 27.0804 34.005 26.9113 33.9205" stroke="#574EDC" stroke-width="2.5" stroke-linecap="round"/>
<path d="M13.4434 35.3438C16.8109 35.3438 20.1805 35.2601 23.5473 35.1917C24.5731 35.1709 25.5994 35.1796 26.6254 35.1796C26.7994 35.1796 27.3825 35.2485 26.966 35.0701" stroke="#574EDC" stroke-width="2.5" stroke-linecap="round"/>
<path d="M19.0235 30.249C18.996 30.5794 18.9348 30.8843 19.2546 31.1128C19.5485 31.3227 20.6392 31.678 20.602 31.0094C20.5541 30.1467 19.4187 29.5014 19.0782 30.5227" stroke="#574EDC" stroke-width="2.5" stroke-linecap="round"/>
<path d="M16.5 9.90821C17.289 9.90821 16.6586 9.82533 17.4472 9.82007C18.3215 9.81424 19.3327 9.68468 20.1941 9.86414C20.622 9.95327 21.0851 9.90821 21.5211 9.90821" stroke="#574EDC" stroke-width="2.5" stroke-linecap="round"/>
<path d="M27.2256 11C28.3017 11.1131 33.2041 11.2085 33.2492 11.6049C33.5615 14.3474 34.617 28.0533 33.64 28.5523C32.6631 29.0513 29.9097 29.0315 28.8092 29.0213" stroke="#574EDC" stroke-width="2.5" stroke-linecap="round"/>
<path d="M10.9995 11C9.58182 11 7.4037 11.0558 6.00111 11.266C3.00462 11.7151 3.94033 27.8459 6.49951 28.5C8.05462 28.8975 9.72725 28.513 11.3125 28.513" stroke="#574EDC" stroke-width="2.5" stroke-linecap="round"/>
</svg>
