<svg xmlns="http://www.w3.org/2000/svg" width="48" height="48" fill="none" viewBox="0 0 48 48"><path fill="#6C7898" d="m27.35 16.01-1.64 2.9L20.09 9 2.84 39.38h11.68c0 1.6 1.27 2.9 2.85 2.9H2.84a2.84 2.84 0 0 1-2.46-1.45c-.5-.9-.5-2 0-2.9L17.63 7.57c.5-.9 1.44-1.45 2.46-1.45s1.96.55 2.46 1.45l4.8 8.44Z"/><path fill="#6C7898" d="M39.8 37.93 29 18.91 27.34 16l-1.64 2.9-10.8 19.02c-.52.9-.52 2 0 2.9.5.9 1.44 1.44 2.46 1.44h19.96c1.02 0 1.96-.55 2.47-1.44.5-.9.5-2 0-2.9Zm-22.43 1.45 9.98-17.58 9.98 17.58H17.37Z"/><path fill="#6C7898" d="M47.52 40.83c-.5.9-1.44 1.44-2.46 1.44h-7.73c1.57 0 2.85-1.3 2.85-2.89h4.88L31.2 15 29 18.9l-1.64-2.89 1.4-2.46c.5-.9 1.45-1.44 2.46-1.44 1.02 0 1.96.55 2.46 1.44l13.85 24.38c.51.9.51 2 0 2.9Z"/></svg>