<svg width="632" height="446" viewBox="0 0 632 446" fill="none" xmlns="http://www.w3.org/2000/svg">
<g filter="url(#filter0_f)">
<rect x="247" y="45" width="263" height="70" rx="24" fill="#9DC696" fill-opacity="0.3"/>
</g>
<g filter="url(#filter1_b)">
<path d="M239 51C239 44.3726 244.373 39 251 39H505C511.627 39 517 44.3726 517 51V95C517 101.627 511.627 107 505 107H251C244.373 107 239 101.627 239 95V51Z" fill="white"/>
</g>
<g opacity="0.5" filter="url(#filter2_f)">
<circle cx="236.5" cy="78.5" r="17.5" fill="#5BD247"/>
</g>
<circle cx="237" cy="71" r="21" fill="#89DD7C"/>
<circle cx="237" cy="71" r="30" stroke="#89DD7C" stroke-opacity="0.3" stroke-width="12"/>
<circle cx="237" cy="71" r="42" stroke="#89DD7C" stroke-opacity="0.1" stroke-width="12"/>
<path fill-rule="evenodd" clip-rule="evenodd" d="M229.588 60.8824C229.588 60.1676 230.168 59.5882 230.882 59.5882C231.597 59.5882 232.176 60.1676 232.176 60.8824C232.176 61.5971 231.597 62.1765 230.882 62.1765C230.168 62.1765 229.588 61.5971 229.588 60.8824ZM230.882 57C228.738 57 227 58.7382 227 60.8824C227 62.5728 228.08 64.0108 229.588 64.5438V76.2797C228.08 76.8127 227 78.2508 227 79.9412C227 82.0853 228.738 83.8235 230.882 83.8235C233.027 83.8235 234.765 82.0853 234.765 79.9412C234.765 78.2508 233.684 76.8127 232.176 76.2797V64.5438C233.684 64.0108 234.765 62.5728 234.765 60.8824C234.765 58.7382 233.027 57 230.882 57ZM229.588 79.9412C229.588 79.2265 230.168 78.6471 230.882 78.6471C231.597 78.6471 232.176 79.2265 232.176 79.9412C232.176 80.6559 231.597 81.2353 230.882 81.2353C230.168 81.2353 229.588 80.6559 229.588 79.9412ZM245.118 78.6471C244.403 78.6471 243.824 79.2265 243.824 79.9412C243.824 80.6559 244.403 81.2353 245.118 81.2353C245.832 81.2353 246.412 80.6559 246.412 79.9412C246.412 79.2265 245.832 78.6471 245.118 78.6471ZM241.235 79.9412C241.235 78.2506 242.316 76.8124 243.824 76.2796V66.3529C243.824 65.1256 243.181 64.2606 242.263 63.6045C241.931 63.3677 241.579 63.1703 241.235 63.0076V65.0588C241.235 65.7735 240.656 66.3529 239.941 66.3529C239.226 66.3529 238.647 65.7735 238.647 65.0588V59.8824C238.647 59.1676 239.226 58.5882 239.941 58.5882H245.118C245.832 58.5882 246.412 59.1676 246.412 59.8824C246.412 60.5971 245.832 61.1765 245.118 61.1765H243.282C243.445 61.2768 243.607 61.384 243.767 61.4984C245.114 62.46 246.412 64.0215 246.412 66.3529V76.2799C247.92 76.813 249 78.2509 249 79.9412C249 82.0853 247.262 83.8235 245.118 83.8235C242.973 83.8235 241.235 82.0853 241.235 79.9412Z" fill="#0D5B00"/>
<rect x="302" y="67" width="154" height="12" rx="4" fill="#89DD7C"/>
<g filter="url(#filter3_f)">
<rect x="58" y="360" width="263" height="70" rx="24" fill="#8EAEDE" fill-opacity="0.3"/>
</g>
<g filter="url(#filter4_b)">
<path d="M50 366C50 359.373 55.3726 354 62 354H316C322.627 354 328 359.373 328 366V410C328 416.627 322.627 422 316 422H62C55.3726 422 50 416.627 50 410V366Z" fill="white"/>
</g>
<rect x="113" y="382" width="134" height="12" rx="4" fill="#7CC4F8"/>
<circle cx="57" cy="386" r="21" fill="#7CC4F8"/>
<circle cx="57" cy="386" r="30" stroke="#7CC4F8" stroke-opacity="0.3" stroke-width="12"/>
<circle cx="57" cy="386" r="42" stroke="#7CC4F8" stroke-opacity="0.1" stroke-width="12"/>
<path fill-rule="evenodd" clip-rule="evenodd" d="M49 376.129C49 373.991 50.7331 372.258 52.871 372.258C55.0088 372.258 56.7419 373.991 56.7419 376.129C56.7419 377.814 55.6648 379.248 54.1614 379.78V389.329C54.1844 389.315 54.2075 389.301 54.2307 389.288C55.4549 388.58 57.0135 388.117 58.4018 387.705C58.5607 387.658 58.7173 387.611 58.8709 387.565C60.4768 387.083 61.8077 386.63 62.716 385.954C63.1454 385.635 63.4397 385.293 63.6213 384.909C63.7057 384.731 63.7738 384.526 63.8159 384.288C62.3241 383.75 61.2577 382.322 61.2577 380.645C61.2577 378.507 62.9908 376.774 65.1287 376.774C67.2665 376.774 68.9996 378.507 68.9996 380.645C68.9996 382.332 67.9212 383.766 66.4164 384.297C66.3581 384.914 66.2034 385.486 65.954 386.013C65.5534 386.86 64.9454 387.512 64.2559 388.025C62.9263 389.014 61.1523 389.574 59.613 390.037C59.4648 390.081 59.3186 390.125 59.1744 390.168C57.7145 390.604 56.4653 390.976 55.5234 391.522C54.9743 391.839 54.6037 392.171 54.3894 392.567C55.7725 393.158 56.7419 394.53 56.7419 396.129C56.7419 398.267 55.0088 400 52.871 400C50.7331 400 49 398.267 49 396.129C49 394.444 50.0772 393.01 51.5807 392.478V379.78C50.0772 379.248 49 377.814 49 376.129ZM52.871 374.839C52.1583 374.839 51.5806 375.416 51.5806 376.129C51.5806 376.842 52.1583 377.419 52.871 377.419C53.5836 377.419 54.1613 376.842 54.1613 376.129C54.1613 375.416 53.5836 374.839 52.871 374.839ZM52.871 394.839C52.1583 394.839 51.5806 395.416 51.5806 396.129C51.5806 396.842 52.1583 397.419 52.871 397.419C53.5836 397.419 54.1613 396.842 54.1613 396.129C54.1613 395.416 53.5836 394.839 52.871 394.839ZM63.8383 380.645C63.8383 379.933 64.416 379.355 65.1287 379.355C65.8413 379.355 66.419 379.933 66.419 380.645C66.419 381.358 65.8413 381.935 65.1287 381.935C64.416 381.935 63.8383 381.358 63.8383 380.645Z" fill="#062984"/>
<g filter="url(#filter5_f)">
<rect x="178" y="150" width="263" height="70" rx="24" fill="#8EAEDE" fill-opacity="0.3"/>
</g>
<g filter="url(#filter6_b)">
<path d="M170 156C170 149.373 175.373 144 182 144H436C442.627 144 448 149.373 448 156V200C448 206.627 442.627 212 436 212H182C175.373 212 170 206.627 170 200V156Z" fill="white"/>
</g>
<rect x="233" y="172" width="100" height="12" rx="4" fill="#7CC4F8"/>
<rect x="341" y="172" width="28" height="12" rx="4" fill="#7CC4F8"/>
<circle cx="177" cy="176" r="21" fill="#7CC4F8"/>
<circle cx="177" cy="176" r="30" stroke="#7CC4F8" stroke-opacity="0.3" stroke-width="12"/>
<circle cx="177" cy="176" r="42" stroke="#7CC4F8" stroke-opacity="0.1" stroke-width="12"/>
<path fill-rule="evenodd" clip-rule="evenodd" d="M169 166.129C169 163.991 170.733 162.258 172.871 162.258C175.009 162.258 176.742 163.991 176.742 166.129C176.742 167.814 175.665 169.248 174.161 169.78V179.329C174.184 179.315 174.208 179.301 174.231 179.288C175.455 178.58 177.014 178.117 178.402 177.705C178.561 177.658 178.717 177.611 178.871 177.565C180.477 177.083 181.808 176.63 182.716 175.954C183.145 175.635 183.44 175.293 183.621 174.909C183.706 174.731 183.774 174.526 183.816 174.288C182.324 173.75 181.258 172.322 181.258 170.645C181.258 168.507 182.991 166.774 185.129 166.774C187.267 166.774 189 168.507 189 170.645C189 172.332 187.921 173.766 186.416 174.297C186.358 174.914 186.203 175.486 185.954 176.013C185.553 176.86 184.945 177.512 184.256 178.025C182.926 179.014 181.152 179.574 179.613 180.037C179.465 180.081 179.319 180.125 179.174 180.168C177.714 180.604 176.465 180.976 175.523 181.522C174.974 181.839 174.604 182.171 174.389 182.567C175.773 183.158 176.742 184.53 176.742 186.129C176.742 188.267 175.009 190 172.871 190C170.733 190 169 188.267 169 186.129C169 184.444 170.077 183.01 171.581 182.478V169.78C170.077 169.248 169 167.814 169 166.129ZM172.871 164.839C172.158 164.839 171.581 165.416 171.581 166.129C171.581 166.842 172.158 167.419 172.871 167.419C173.584 167.419 174.161 166.842 174.161 166.129C174.161 165.416 173.584 164.839 172.871 164.839ZM172.871 184.839C172.158 184.839 171.581 185.416 171.581 186.129C171.581 186.842 172.158 187.419 172.871 187.419C173.584 187.419 174.161 186.842 174.161 186.129C174.161 185.416 173.584 184.839 172.871 184.839ZM183.838 170.645C183.838 169.933 184.416 169.355 185.129 169.355C185.841 169.355 186.419 169.933 186.419 170.645C186.419 171.358 185.841 171.935 185.129 171.935C184.416 171.935 183.838 171.358 183.838 170.645Z" fill="#062984"/>
<g filter="url(#filter7_f)">
<rect x="118" y="255" width="263" height="70" rx="24" fill="#9DC696" fill-opacity="0.3"/>
</g>
<g filter="url(#filter8_b)">
<path d="M110 261C110 254.373 115.373 249 122 249H376C382.627 249 388 254.373 388 261V305C388 311.627 382.627 317 376 317H122C115.373 317 110 311.627 110 305V261Z" fill="white"/>
</g>
<rect x="173" y="277" width="35" height="12" rx="4" fill="#89DD7C"/>
<rect x="219" y="277" width="126" height="12" rx="4" fill="#89DD7C"/>
<g opacity="0.5" filter="url(#filter9_f)">
<circle cx="116.5" cy="288.5" r="17.5" fill="#5BD247"/>
</g>
<circle cx="117" cy="281" r="21" fill="#89DD7C"/>
<circle cx="117" cy="281" r="30" stroke="#89DD7C" stroke-opacity="0.3" stroke-width="12"/>
<circle cx="117" cy="281" r="42" stroke="#89DD7C" stroke-opacity="0.1" stroke-width="12"/>
<path fill-rule="evenodd" clip-rule="evenodd" d="M109.588 270.882C109.588 270.168 110.168 269.588 110.882 269.588C111.597 269.588 112.176 270.168 112.176 270.882C112.176 271.597 111.597 272.176 110.882 272.176C110.168 272.176 109.588 271.597 109.588 270.882ZM110.882 267C108.738 267 107 268.738 107 270.882C107 272.573 108.08 274.011 109.588 274.544V286.28C108.08 286.813 107 288.251 107 289.941C107 292.085 108.738 293.824 110.882 293.824C113.027 293.824 114.765 292.085 114.765 289.941C114.765 288.251 113.684 286.813 112.176 286.28V274.544C113.684 274.011 114.765 272.573 114.765 270.882C114.765 268.738 113.027 267 110.882 267ZM109.588 289.941C109.588 289.226 110.168 288.647 110.882 288.647C111.597 288.647 112.176 289.226 112.176 289.941C112.176 290.656 111.597 291.235 110.882 291.235C110.168 291.235 109.588 290.656 109.588 289.941ZM125.118 288.647C124.403 288.647 123.824 289.226 123.824 289.941C123.824 290.656 124.403 291.235 125.118 291.235C125.832 291.235 126.412 290.656 126.412 289.941C126.412 289.226 125.832 288.647 125.118 288.647ZM121.235 289.941C121.235 288.251 122.316 286.812 123.824 286.28V276.353C123.824 275.126 123.181 274.261 122.263 273.605C121.931 273.368 121.579 273.17 121.235 273.008V275.059C121.235 275.774 120.656 276.353 119.941 276.353C119.226 276.353 118.647 275.774 118.647 275.059V269.882C118.647 269.168 119.226 268.588 119.941 268.588H125.118C125.832 268.588 126.412 269.168 126.412 269.882C126.412 270.597 125.832 271.176 125.118 271.176H123.282C123.445 271.277 123.607 271.384 123.767 271.498C125.114 272.46 126.412 274.021 126.412 276.353V286.28C127.92 286.813 129 288.251 129 289.941C129 292.085 127.262 293.824 125.118 293.824C122.973 293.824 121.235 292.085 121.235 289.941Z" fill="#0D5B00"/>
<defs>
<filter id="filter0_f" x="227" y="25" width="303" height="110" filterUnits="userSpaceOnUse" color-interpolation-filters="sRGB">
<feFlood flood-opacity="0" result="BackgroundImageFix"/>
<feBlend mode="normal" in="SourceGraphic" in2="BackgroundImageFix" result="shape"/>
<feGaussianBlur stdDeviation="10" result="effect1_foregroundBlur"/>
</filter>
<filter id="filter1_b" x="222" y="22" width="312" height="102" filterUnits="userSpaceOnUse" color-interpolation-filters="sRGB">
<feFlood flood-opacity="0" result="BackgroundImageFix"/>
<feGaussianBlur in="BackgroundImage" stdDeviation="8.5"/>
<feComposite in2="SourceAlpha" operator="in" result="effect1_backgroundBlur"/>
<feBlend mode="normal" in="SourceGraphic" in2="effect1_backgroundBlur" result="shape"/>
</filter>
<filter id="filter2_f" x="207" y="49" width="59" height="59" filterUnits="userSpaceOnUse" color-interpolation-filters="sRGB">
<feFlood flood-opacity="0" result="BackgroundImageFix"/>
<feBlend mode="normal" in="SourceGraphic" in2="BackgroundImageFix" result="shape"/>
<feGaussianBlur stdDeviation="6" result="effect1_foregroundBlur"/>
</filter>
<filter id="filter3_f" x="42" y="344" width="295" height="102" filterUnits="userSpaceOnUse" color-interpolation-filters="sRGB">
<feFlood flood-opacity="0" result="BackgroundImageFix"/>
<feBlend mode="normal" in="SourceGraphic" in2="BackgroundImageFix" result="shape"/>
<feGaussianBlur stdDeviation="8" result="effect1_foregroundBlur"/>
</filter>
<filter id="filter4_b" x="33" y="337" width="312" height="102" filterUnits="userSpaceOnUse" color-interpolation-filters="sRGB">
<feFlood flood-opacity="0" result="BackgroundImageFix"/>
<feGaussianBlur in="BackgroundImage" stdDeviation="8.5"/>
<feComposite in2="SourceAlpha" operator="in" result="effect1_backgroundBlur"/>
<feBlend mode="normal" in="SourceGraphic" in2="effect1_backgroundBlur" result="shape"/>
</filter>
<filter id="filter5_f" x="158" y="130" width="303" height="110" filterUnits="userSpaceOnUse" color-interpolation-filters="sRGB">
<feFlood flood-opacity="0" result="BackgroundImageFix"/>
<feBlend mode="normal" in="SourceGraphic" in2="BackgroundImageFix" result="shape"/>
<feGaussianBlur stdDeviation="10" result="effect1_foregroundBlur"/>
</filter>
<filter id="filter6_b" x="153" y="127" width="312" height="102" filterUnits="userSpaceOnUse" color-interpolation-filters="sRGB">
<feFlood flood-opacity="0" result="BackgroundImageFix"/>
<feGaussianBlur in="BackgroundImage" stdDeviation="8.5"/>
<feComposite in2="SourceAlpha" operator="in" result="effect1_backgroundBlur"/>
<feBlend mode="normal" in="SourceGraphic" in2="effect1_backgroundBlur" result="shape"/>
</filter>
<filter id="filter7_f" x="102" y="239" width="295" height="102" filterUnits="userSpaceOnUse" color-interpolation-filters="sRGB">
<feFlood flood-opacity="0" result="BackgroundImageFix"/>
<feBlend mode="normal" in="SourceGraphic" in2="BackgroundImageFix" result="shape"/>
<feGaussianBlur stdDeviation="8" result="effect1_foregroundBlur"/>
</filter>
<filter id="filter8_b" x="93" y="232" width="312" height="102" filterUnits="userSpaceOnUse" color-interpolation-filters="sRGB">
<feFlood flood-opacity="0" result="BackgroundImageFix"/>
<feGaussianBlur in="BackgroundImage" stdDeviation="8.5"/>
<feComposite in2="SourceAlpha" operator="in" result="effect1_backgroundBlur"/>
<feBlend mode="normal" in="SourceGraphic" in2="effect1_backgroundBlur" result="shape"/>
</filter>
<filter id="filter9_f" x="87" y="259" width="59" height="59" filterUnits="userSpaceOnUse" color-interpolation-filters="sRGB">
<feFlood flood-opacity="0" result="BackgroundImageFix"/>
<feBlend mode="normal" in="SourceGraphic" in2="BackgroundImageFix" result="shape"/>
<feGaussianBlur stdDeviation="6" result="effect1_foregroundBlur"/>
</filter>
</defs>
</svg>
