<svg width="1024" height="512" viewBox="0 0 1024 512" fill="none" xmlns="http://www.w3.org/2000/svg">
<rect width="1024" height="512" fill="url(#paint0_linear_1436_2742)"/>
<path d="M801.705 252.04C797.595 252.04 794.535 250.855 792.525 248.485C790.545 246.085 789.555 242.38 789.555 237.37V222.25H797.295V238.27C797.295 240.88 797.64 242.725 798.33 243.805C799.05 244.855 800.175 245.38 801.705 245.38C803.235 245.38 804.36 244.855 805.08 243.805C805.83 242.725 806.205 240.88 806.205 238.27V222.25H813.675V237.37C813.675 242.38 812.7 246.085 810.75 248.485C808.8 250.855 805.785 252.04 801.705 252.04Z" fill="white"/>
<path d="M824.469 251.5V222.25H832.209V251.5H824.469Z" fill="white"/>
<path d="M216.62 289.12L188 222.16H204.524L217.592 253.372L230.66 222.16H247.184L218.564 289.12H216.62ZM285.848 265.144V222.16H301.616V262.768C301.616 271.408 305.72 274.432 311.228 274.432C317.276 274.432 321.056 271.408 321.056 262.768V222.16H336.932V265.144C336.932 280.48 325.484 289.12 311.228 289.12C296.432 289.12 285.848 280.048 285.848 265.144ZM379.7 286.96V222.16H422.576V236.2H395.576V247.864H420.524V261.688H395.576V273.352H423.764V286.96H379.7ZM463.508 267.952H478.952C478.952 271.732 481.976 274.756 485.648 274.756C489.644 274.756 492.128 272.488 492.128 269.14C492.128 264.28 485.756 262.876 480.464 261.04C469.556 257.152 463.508 252.076 463.508 240.952C463.508 229.504 473.336 220 485.54 220C499.904 220 506.708 229.18 507.572 241.168H492.668C492.668 237.496 490.4 234.472 485.972 234.472C482.516 234.472 479.168 236.524 479.168 240.736C479.168 245.596 485.108 246.46 490.616 248.08C502.172 251.536 507.572 258.016 507.572 268.168C507.572 279.616 497.852 289.12 485.648 289.12C471.5 289.12 463.508 279.616 463.508 267.952ZM561.032 286.96V236.2H546.56V222.16H591.704V236.2H577.016V286.96H561.032ZM631.448 286.96V222.16H647.324V286.96H631.448ZM690.74 254.56C690.74 235.228 705.32 220 725.84 220C738.152 220 746.684 224.644 753.596 231.88L742.688 242.248C738.152 237.82 732.32 235.012 725.84 235.012C714.284 235.012 706.832 243.652 706.832 254.56C706.832 265.468 714.284 274.108 725.84 274.108C732.32 274.108 738.152 271.3 742.688 266.872L753.272 277.24C746.792 284.044 737.828 289.12 725.84 289.12C705.32 289.12 690.74 273.892 690.74 254.56Z" fill="white"/>
<defs>
<linearGradient id="paint0_linear_1436_2742" x1="6.47869e-06" y1="266.667" x2="1160.15" y2="266.667" gradientUnits="userSpaceOnUse">
<stop stop-color="#2550C0"/>
<stop offset="1" stop-color="#6E85E8"/>
</linearGradient>
</defs>
</svg>
