<svg width="180" height="20" viewBox="0 0 180 20" fill="none" xmlns="http://www.w3.org/2000/svg">
<path d="M170.475 8.9C169.333 8.9 168.483 8.57083 167.925 7.9125C167.375 7.24583 167.1 6.21667 167.1 4.825V0.625H169.25V5.075C169.25 5.8 169.345 6.3125 169.537 6.6125C169.737 6.90417 170.05 7.05 170.475 7.05C170.9 7.05 171.212 6.90417 171.412 6.6125C171.62 6.3125 171.725 5.8 171.725 5.075V0.625H173.8V4.825C173.8 6.21667 173.529 7.24583 172.987 7.9125C172.445 8.57083 171.608 8.9 170.475 8.9Z" fill="#6E85E8"/>
<path d="M176.798 8.75V0.625H178.948V8.75H176.798Z" fill="#6E85E8"/>
<path d="M7.95 19.2L0 0.6H4.59L8.22 9.27L11.85 0.6H16.44L8.49 19.2H7.95ZM27.18 12.54V0.6H31.56V11.88C31.56 14.28 32.7 15.12 34.23 15.12C35.91 15.12 36.96 14.28 36.96 11.88V0.6H41.37V12.54C41.37 16.8 38.19 19.2 34.23 19.2C30.12 19.2 27.18 16.68 27.18 12.54ZM53.25 18.6V0.6H65.16V4.5H57.66V7.74H64.59V11.58H57.66V14.82H65.49V18.6H53.25ZM76.53 13.32H80.82C80.82 14.37 81.66 15.21 82.68 15.21C83.79 15.21 84.48 14.58 84.48 13.65C84.48 12.3 82.71 11.91 81.24 11.4C78.21 10.32 76.53 8.91 76.53 5.82C76.53 2.64 79.26 0 82.65 0C86.64 0 88.53 2.55 88.77 5.88H84.63C84.63 4.86 84 4.02 82.77 4.02C81.81 4.02 80.88 4.59 80.88 5.76C80.88 7.11 82.53 7.35 84.06 7.8C87.27 8.76 88.77 10.56 88.77 13.38C88.77 16.56 86.07 19.2 82.68 19.2C78.75 19.2 76.53 16.56 76.53 13.32ZM103.62 18.6V4.5H99.6V0.6H112.14V4.5H108.06V18.6H103.62ZM123.18 18.6V0.6H127.59V18.6H123.18ZM139.65 9.6C139.65 4.23 143.7 0 149.4 0C152.82 0 155.19 1.29 157.11 3.3L154.08 6.18C152.82 4.95 151.2 4.17 149.4 4.17C146.19 4.17 144.12 6.57 144.12 9.6C144.12 12.63 146.19 15.03 149.4 15.03C151.2 15.03 152.82 14.25 154.08 13.02L157.02 15.9C155.22 17.79 152.73 19.2 149.4 19.2C143.7 19.2 139.65 14.97 139.65 9.6Z" fill="url(#paint0_linear)"/>
<defs>
<linearGradient id="paint0_linear" x1="9.94011e-07" y1="10" x2="178" y2="10" gradientUnits="userSpaceOnUse">
<stop stop-color="#2550C0"/>
<stop offset="1" stop-color="#6E85E8"/>
</linearGradient>
</defs>
</svg>
