<svg width="33" height="32" viewBox="0 0 33 32" fill="none" xmlns="http://www.w3.org/2000/svg">
<g clip-path="url(#clip0)">
<g clip-path="url(#clip1)">
<path d="M32.1974 16.062V16.0623C32.1973 24.8042 24.9832 31.9993 16.2144 31.9993C7.44557 31.9993 0.231445 24.8041 0.231445 16.0621C0.231445 7.32012 7.44557 0.125 16.2144 0.125C24.9832 0.125 32.1973 7.32 32.1974 16.062ZM30.1343 16.0623V16.062C30.1343 8.45012 23.8497 2.188 16.2144 2.188C8.57907 2.188 2.29445 8.45012 2.29445 16.0621C2.29445 23.6741 8.57907 29.9362 16.2144 29.9362C23.8497 29.9362 30.1343 23.6741 30.1343 16.0623ZM5.0417 22.4026V9.937H8.03082L9.8257 18.4401L11.6003 9.937H14.5962V22.4026H12.7407V12.59L10.7771 22.4026H8.85407L6.8972 12.59V22.4026H5.0417ZM16.5193 22.4026V9.937H18.5166V22.4026H16.5193ZM22.6461 22.4026V12.0457H19.7109V9.937H27.5718V12.0457H24.6433V22.4026H22.6461Z" fill="#6C7898"/>
</g>
</g>
<defs>
<clipPath id="clip0">
<rect width="32" height="32" fill="white" transform="translate(0.231445)"/>
</clipPath>
<clipPath id="clip1">
<rect width="32" height="32" fill="white" transform="translate(0.231445)"/>
</clipPath>
</defs>
</svg>
