<svg width="162" height="16" viewBox="0 0 162 16" fill="none" xmlns="http://www.w3.org/2000/svg">
    <path fill-rule="evenodd" clip-rule="evenodd" d="M0 0.48L6.36 15.36H6.792L13.152 0.48H9.48L6.576 7.416L3.672 0.48H0ZM21.744 0.48V10.032C21.744 13.344 24.096 15.36 27.384 15.36C30.552 15.36 33.096 13.44 33.096 10.032V0.48H29.568V9.504C29.568 11.424 28.728 12.096 27.384 12.096C26.16 12.096 25.248 11.424 25.248 9.504V0.48H21.744ZM42.6 0.48V14.88H52.392V11.856H46.128V9.264H51.672V6.192H46.128V3.6H52.128V0.48H42.6ZM64.656 10.656H61.224C61.224 13.248 63 15.36 66.144 15.36C68.856 15.36 71.016 13.248 71.016 10.704C71.016 8.448 69.816 7.008 67.248 6.24C67.0832 6.19153 66.9167 6.1461 66.7518 6.10114C65.6925 5.8122 64.704 5.54259 64.704 4.608C64.704 3.672 65.448 3.216 66.216 3.216C67.2 3.216 67.704 3.888 67.704 4.704H71.016C70.824 2.04 69.312 0 66.12 0C63.408 0 61.224 2.112 61.224 4.656C61.224 7.128 62.568 8.256 64.992 9.12C65.138 9.17066 65.2878 9.21985 65.438 9.2692C66.4978 9.61733 67.584 9.97411 67.584 10.92C67.584 11.664 67.032 12.168 66.144 12.168C65.328 12.168 64.656 11.496 64.656 10.656ZM82.896 3.6V14.88H86.448V3.6H89.712V0.48H79.68V3.6H82.896ZM98.544 0.48V14.88H102.072V0.48H98.544ZM119.52 0C114.96 0 111.72 3.384 111.72 7.68C111.72 11.976 114.96 15.36 119.52 15.36C122.184 15.36 124.176 14.232 125.616 12.72L123.264 10.416C122.256 11.4 120.96 12.024 119.52 12.024C116.952 12.024 115.296 10.104 115.296 7.68C115.296 5.256 116.952 3.336 119.52 3.336C120.96 3.336 122.256 3.96 123.264 4.944L125.688 2.64C124.152 1.032 122.256 0 119.52 0ZM143.216 6.88988C143.589 7.04322 144.003 7.11988 144.456 7.11988C144.903 7.11988 145.313 7.04322 145.686 6.88988C146.059 6.73655 146.376 6.51655 146.636 6.22988C146.903 5.93655 147.109 5.57988 147.256 5.15988C147.403 4.73322 147.476 4.25322 147.476 3.71988C147.476 3.18655 147.403 2.71322 147.256 2.29988C147.109 1.88655 146.903 1.53655 146.636 1.24988C146.376 0.963217 146.059 0.74655 145.686 0.599883C145.313 0.453216 144.903 0.379883 144.456 0.379883C144.003 0.379883 143.589 0.453216 143.216 0.599883C142.849 0.74655 142.533 0.963217 142.266 1.24988C142.006 1.52988 141.803 1.87988 141.656 2.29988C141.509 2.71322 141.436 3.18655 141.436 3.71988C141.436 4.25322 141.509 4.73322 141.656 5.15988C141.803 5.57988 142.006 5.93655 142.266 6.22988C142.533 6.51655 142.849 6.73655 143.216 6.88988ZM145.376 5.12988C145.156 5.46988 144.849 5.63988 144.456 5.63988C144.063 5.63988 143.753 5.46988 143.526 5.12988C143.306 4.78322 143.196 4.31322 143.196 3.71988C143.196 3.12655 143.306 2.66988 143.526 2.34988C143.753 2.02322 144.063 1.85988 144.456 1.85988C144.849 1.85988 145.156 2.02322 145.376 2.34988C145.603 2.66988 145.716 3.12655 145.716 3.71988C145.716 4.31322 145.603 4.78322 145.376 5.12988ZM134 0.499883V6.99988H136.02C136.487 6.99988 136.917 6.93655 137.31 6.80988C137.71 6.68322 138.053 6.48655 138.34 6.21988C138.633 5.95322 138.86 5.61322 139.02 5.19988C139.18 4.78655 139.26 4.29322 139.26 3.71988C139.26 3.14655 139.177 2.65655 139.01 2.24988C138.85 1.84322 138.623 1.50988 138.33 1.24988C138.037 0.989884 137.683 0.799884 137.27 0.679883C136.863 0.559883 136.413 0.499883 135.92 0.499883H134ZM135.82 5.61988H135.72V1.87988H135.82C136.053 1.87988 136.273 1.90655 136.48 1.95988C136.687 2.00655 136.863 2.09655 137.01 2.22988C137.163 2.36322 137.283 2.54988 137.37 2.78988C137.457 3.02988 137.5 3.33988 137.5 3.71988C137.5 4.09988 137.457 4.41322 137.37 4.65988C137.283 4.90655 137.163 5.09988 137.01 5.23988C136.863 5.37988 136.687 5.47988 136.48 5.53988C136.273 5.59322 136.053 5.61988 135.82 5.61988ZM152.76 7.11988C152.347 7.11988 151.95 7.05322 151.57 6.91988C151.197 6.77988 150.867 6.57322 150.58 6.29988C150.3 6.01988 150.077 5.67322 149.91 5.25988C149.743 4.83988 149.66 4.35322 149.66 3.79988C149.66 3.25322 149.747 2.76988 149.92 2.34988C150.093 1.92322 150.323 1.56655 150.61 1.27988C150.903 0.98655 151.237 0.763217 151.61 0.609883C151.99 0.45655 152.387 0.379883 152.8 0.379883C153.233 0.379883 153.62 0.46655 153.96 0.639883C154.3 0.80655 154.587 1.00655 154.82 1.23988L153.92 2.33988C153.76 2.19988 153.593 2.08655 153.42 1.99988C153.253 1.90655 153.06 1.85988 152.84 1.85988C152.647 1.85988 152.463 1.90322 152.29 1.98988C152.123 2.07655 151.973 2.19988 151.84 2.35988C151.713 2.51988 151.61 2.71655 151.53 2.94988C151.457 3.18322 151.42 3.44655 151.42 3.73988C151.42 4.35322 151.547 4.82322 151.8 5.14988C152.06 5.47655 152.4 5.63988 152.82 5.63988C153.073 5.63988 153.297 5.58655 153.49 5.47988C153.69 5.36655 153.86 5.23322 154 5.07988L154.9 6.15988C154.62 6.47988 154.297 6.71988 153.93 6.87988C153.57 7.03988 153.18 7.11988 152.76 7.11988ZM157.576 6.89988C158.016 7.04655 158.443 7.11988 158.856 7.11988C159.263 7.11988 159.623 7.06322 159.936 6.94988C160.25 6.83655 160.513 6.68655 160.726 6.49988C160.946 6.30655 161.113 6.08322 161.226 5.82988C161.34 5.57655 161.396 5.31322 161.396 5.03988C161.396 4.58655 161.286 4.21655 161.066 3.92988C160.846 3.64322 160.533 3.41988 160.126 3.25988L159.336 2.94988C159.036 2.83655 158.8 2.73988 158.626 2.65988C158.46 2.57322 158.376 2.45322 158.376 2.29988C158.376 2.15322 158.436 2.04322 158.556 1.96988C158.676 1.89655 158.843 1.85988 159.056 1.85988C159.296 1.85988 159.516 1.89988 159.716 1.97988C159.923 2.05988 160.136 2.17655 160.356 2.32988L161.216 1.24988C160.916 0.949884 160.573 0.729883 160.186 0.589883C159.806 0.449883 159.43 0.379883 159.056 0.379883C158.703 0.379883 158.376 0.433217 158.076 0.539884C157.783 0.64655 157.53 0.793217 157.316 0.979883C157.103 1.15988 156.936 1.37322 156.816 1.61988C156.696 1.85988 156.636 2.11988 156.636 2.39988C156.636 2.63322 156.67 2.84655 156.736 3.03988C156.81 3.23322 156.906 3.40655 157.026 3.55988C157.146 3.70655 157.286 3.83655 157.446 3.94988C157.606 4.05655 157.773 4.14322 157.946 4.20988L158.756 4.54988C158.896 4.60322 159.02 4.65322 159.126 4.69988C159.233 4.73988 159.323 4.78322 159.396 4.82988C159.476 4.87655 159.536 4.92655 159.576 4.97988C159.616 5.03322 159.636 5.09988 159.636 5.17988C159.636 5.32655 159.576 5.43988 159.456 5.51988C159.343 5.59988 159.156 5.63988 158.896 5.63988C158.656 5.63988 158.4 5.58322 158.126 5.46988C157.86 5.34988 157.61 5.19655 157.376 5.00988L156.396 6.18988C156.75 6.50988 157.143 6.74655 157.576 6.89988Z" fill="url(#paint0_linear)"/>
    <defs>
    <linearGradient id="paint0_linear" x1="161" y1="5.50002" x2="-2.44809e-06" y2="8.00001" gradientUnits="userSpaceOnUse">
    <stop stop-color="#191B1E"/>
    <stop offset="1" stop-color="#2C82E0"/>
    </linearGradient>
    </defs>
</svg>

