<?xml version="1.0" encoding="UTF-8"?>
<svg id="Layer_1" data-name="Layer 1" xmlns="http://www.w3.org/2000/svg" xmlns:xlink="http://www.w3.org/1999/xlink" viewBox="0 0 160.71 31.21">
  <defs>
    <style>
      .cls-1 {
        stroke-width: 1.5px;
      }

      .cls-1, .cls-2, .cls-3 {
        fill: none;
      }

      .cls-1, .cls-3 {
        stroke: #fff;
      }

      .cls-4 {
        clip-path: url(#clippath);
      }

      .cls-5 {
        fill: #ff8b00;
      }

      .cls-6 {
        fill: #55b2c6;
      }

      .cls-3 {
        stroke-width: 2px;
      }

      .cls-7 {
        fill: #b4bbbf;
      }

      .cls-8 {
        fill: red;
      }
    </style>
    <clipPath id="clippath">
      <rect class="cls-2" x="1.17" width="159.54" height="30.43"/>
    </clipPath>
  </defs>
  <g class="cls-4">
    <g>
      <path class="cls-5" d="M148.7,20.84v-6.17h-10.37l-6.09,6.17h16.45Z"/>
      <path class="cls-6" d="M160.38,5.55h-13l-6.13,6.17h19.13V5.55Z"/>
      <path class="cls-8" d="M126.21,27l3.11-3.16h10.51v6.17h-13.63v-3.01Z"/>
      <path class="cls-7" d="M128.5,17.83h6.72l6.13-6.17h-12.85v6.17Z"/>
      <path class="cls-7" d="M121.15,27h5.06l6.03-6.17h-11.1v6.17Z"/>
      <path class="cls-7" d="M147.38,5.55l-3.12,3.16h-19.86V2.54h22.97v3.01Z"/>
      <g>
        <path class="cls-3" d="M16.89,25.92H7.35l-1.65,4.14H1.51L10.32,9.15h3.65l8.81,20.92h-4.23l-1.65-4.14Zm-1.31-3.31l-3.46-8.53-3.46,8.53h6.91Z"/>
        <path d="M16.89,25.92H7.35l-1.65,4.14H1.51L10.32,9.15h3.65l8.81,20.92h-4.23l-1.65-4.14Zm-1.31-3.31l-3.46-8.53-3.46,8.53h6.91Z"/>
      </g>
      <g>
        <path class="cls-3" d="M80.9,16.84c1.22-1.83,4.28-2.02,5.55-2.02v3.55c-1.56,0-3.12,.05-4.04,.74-.92,.69-1.41,1.63-1.41,2.76v8.19h-3.8V14.82h3.65l.05,2.02Z"/>
        <path d="M80.9,16.84c1.22-1.83,4.28-2.02,5.55-2.02v3.55c-1.56,0-3.12,.05-4.04,.74-.92,.69-1.41,1.63-1.41,2.76v8.19h-3.8V14.82h3.65l.05,2.02Z"/>
      </g>
      <g>
        <rect class="cls-1" x="88.54" y="14.82" width="3.8" height="15.24"/>
        <rect x="88.54" y="14.82" width="3.8" height="15.24"/>
      </g>
      <g>
        <rect class="cls-1" x="88.54" y="8.01" width="3.8" height="4.54"/>
        <rect x="88.54" y="8.01" width="3.8" height="4.54"/>
      </g>
      <g>
        <path class="cls-1" d="M111.17,8.01V30.06h-3.65l-.1-2.32c-.54,.79-1.22,1.43-2.04,1.92-.83,.44-1.85,.69-3.02,.69-1.02,0-2-.2-2.82-.54-.88-.39-1.65-.89-2.29-1.58s-1.17-1.53-1.51-2.47c-.39-.94-.54-2.02-.54-3.21s.19-2.27,.54-3.26c.39-.99,.88-1.83,1.51-2.52,.63-.69,1.41-1.23,2.29-1.63,.88-.39,1.8-.59,2.82-.59,1.17,0,2.14,.2,2.97,.64,.83,.44,1.51,1.04,2.04,1.87V8.06h3.8v-.05Zm-7.98,19.04c1.26,0,2.24-.44,3.02-1.28s1.17-1.97,1.17-3.35-.39-2.47-1.17-3.35c-.78-.84-1.75-1.28-3.02-1.28s-2.24,.44-2.97,1.28c-.78,.84-1.17,1.97-1.17,3.35s.39,2.47,1.17,3.31c.78,.89,1.75,1.33,2.97,1.33Z"/>
        <path d="M111.17,8.01V30.06h-3.65l-.1-2.32c-.54,.79-1.22,1.43-2.04,1.92-.83,.44-1.85,.69-3.02,.69-1.02,0-2-.2-2.82-.54-.88-.39-1.65-.89-2.29-1.58s-1.17-1.53-1.51-2.47c-.39-.94-.54-2.02-.54-3.21s.19-2.27,.54-3.26c.39-.99,.88-1.83,1.51-2.52,.63-.69,1.41-1.23,2.29-1.63,.88-.39,1.8-.59,2.82-.59,1.17,0,2.14,.2,2.97,.64,.83,.44,1.51,1.04,2.04,1.87V8.06h3.8v-.05Zm-7.98,19.04c1.26,0,2.24-.44,3.02-1.28s1.17-1.97,1.17-3.35-.39-2.47-1.17-3.35c-.78-.84-1.75-1.28-3.02-1.28s-2.24,.44-2.97,1.28c-.78,.84-1.17,1.97-1.17,3.35s.39,2.47,1.17,3.31c.78,.89,1.75,1.33,2.97,1.33Z"/>
      </g>
      <g>
        <path class="cls-3" d="M44.73,18.27h-9.39v3.31h5.35c-.15,1.68-.78,2.96-1.85,4-1.07,.99-2.43,1.48-4.19,1.48-.97,0-1.9-.2-2.68-.54-.83-.35-1.51-.84-2.09-1.53-.58-.64-1.02-1.43-1.36-2.37-.34-.94-.49-1.92-.49-3.06s.15-2.12,.49-3.06c.29-.94,.78-1.68,1.36-2.37,.58-.64,1.27-1.13,2.09-1.53,.83-.35,1.7-.54,2.73-.54,2.04,0,3.6,.49,4.67,1.48l2.53-2.57c-1.9-1.48-4.33-2.27-7.2-2.27-1.61,0-3.07,.25-4.38,.79-1.31,.54-2.43,1.23-3.36,2.17-.92,.94-1.66,2.07-2.14,3.4-.49,1.33-.73,2.81-.73,4.39s.24,3.06,.78,4.39c.54,1.33,1.22,2.47,2.14,3.4,.92,.94,2.04,1.68,3.36,2.17,1.31,.54,2.77,.79,4.33,.79s2.97-.25,4.23-.79c1.27-.54,2.34-1.23,3.21-2.17,.88-.94,1.56-2.07,2.04-3.4,.49-1.33,.73-2.81,.73-4.39v-.64c-.15-.1-.19-.35-.19-.54Z"/>
        <path d="M44.73,18.27h-9.39v3.31h5.35c-.15,1.68-.78,2.96-1.85,4-1.07,.99-2.43,1.48-4.19,1.48-.97,0-1.9-.2-2.68-.54-.83-.35-1.51-.84-2.09-1.53-.58-.64-1.02-1.43-1.36-2.37-.34-.94-.49-1.92-.49-3.06s.15-2.12,.49-3.06c.29-.94,.78-1.68,1.36-2.37,.58-.64,1.27-1.13,2.09-1.53,.83-.35,1.7-.54,2.73-.54,2.04,0,3.6,.49,4.67,1.48l2.53-2.57c-1.9-1.48-4.33-2.27-7.2-2.27-1.61,0-3.07,.25-4.38,.79-1.31,.54-2.43,1.23-3.36,2.17-.92,.94-1.66,2.07-2.14,3.4-.49,1.33-.73,2.81-.73,4.39s.24,3.06,.78,4.39c.54,1.33,1.22,2.47,2.14,3.4,.92,.94,2.04,1.68,3.36,2.17,1.31,.54,2.77,.79,4.33,.79s2.97-.25,4.23-.79c1.27-.54,2.34-1.23,3.21-2.17,.88-.94,1.56-2.07,2.04-3.4,.49-1.33,.73-2.81,.73-4.39v-.64c-.15-.1-.19-.35-.19-.54Z"/>
      </g>
      <g>
        <path class="cls-3" d="M74.42,18.27h-9.39v3.31h5.35c-.15,1.68-.78,2.96-1.85,4-1.07,.99-2.43,1.48-4.19,1.48-.97,0-1.9-.2-2.68-.54-.83-.35-1.51-.84-2.09-1.53-.58-.64-1.02-1.43-1.36-2.37-.34-.94-.49-1.92-.49-3.06s.15-2.12,.49-3.06c.29-.94,.78-1.68,1.36-2.37,.58-.64,1.27-1.13,2.09-1.53,.83-.35,1.7-.54,2.73-.54,2.04,0,3.6,.49,4.67,1.48l2.53-2.57c-1.9-1.48-4.33-2.27-7.2-2.27-1.61,0-3.07,.25-4.38,.79-1.31,.54-2.43,1.23-3.36,2.17-.92,.94-1.65,2.07-2.14,3.4-.49,1.33-.73,2.81-.73,4.39s.24,3.06,.78,4.39c.54,1.33,1.22,2.47,2.14,3.4,.92,.94,2.04,1.68,3.36,2.17,1.31,.54,2.77,.79,4.33,.79s2.97-.25,4.23-.79c1.27-.54,2.34-1.23,3.21-2.17,.88-.94,1.56-2.07,2.04-3.4,.49-1.33,.73-2.81,.73-4.39v-.64c-.15-.1-.19-.35-.19-.54Z"/>
        <path d="M74.42,18.27h-9.39v3.31h5.35c-.15,1.68-.78,2.96-1.85,4-1.07,.99-2.43,1.48-4.19,1.48-.97,0-1.9-.2-2.68-.54-.83-.35-1.51-.84-2.09-1.53-.58-.64-1.02-1.43-1.36-2.37-.34-.94-.49-1.92-.49-3.06s.15-2.12,.49-3.06c.29-.94,.78-1.68,1.36-2.37,.58-.64,1.27-1.13,2.09-1.53,.83-.35,1.7-.54,2.73-.54,2.04,0,3.6,.49,4.67,1.48l2.53-2.57c-1.9-1.48-4.33-2.27-7.2-2.27-1.61,0-3.07,.25-4.38,.79-1.31,.54-2.43,1.23-3.36,2.17-.92,.94-1.65,2.07-2.14,3.4-.49,1.33-.73,2.81-.73,4.39s.24,3.06,.78,4.39c.54,1.33,1.22,2.47,2.14,3.4,.92,.94,2.04,1.68,3.36,2.17,1.31,.54,2.77,.79,4.33,.79s2.97-.25,4.23-.79c1.27-.54,2.34-1.23,3.21-2.17,.88-.94,1.56-2.07,2.04-3.4,.49-1.33,.73-2.81,.73-4.39v-.64c-.15-.1-.19-.35-.19-.54Z"/>
      </g>
    </g>
  </g>
</svg>