<?xml version="1.0" encoding="UTF-8"?>
<svg id="Layer_1" data-name="Layer 1" xmlns="http://www.w3.org/2000/svg" xmlns:xlink="http://www.w3.org/1999/xlink" viewBox="0 0 182.97 30.96">
  <defs>
    <style>
      .cls-1 {
        fill: #ffa70b;
      }

      .cls-2 {
        fill: #5c7ef1;
      }

      .cls-3 {
        clip-path: url(#clippath);
      }

      .cls-4, .cls-5 {
        fill: none;
      }

      .cls-5 {
        stroke: #fff;
        stroke-miterlimit: 10;
        stroke-width: 1.5px;
      }

      .cls-6 {
        fill: #8c9dff;
      }

      .cls-7 {
        fill: #02004e;
      }
    </style>
    <clipPath id="clippath">
      <rect class="cls-4" x=".97" width="182" height="30"/>
    </clipPath>
  </defs>
  <g class="cls-3">
    <g>
      <path class="cls-7" d="M26.09,13.45h-6.28c-.38,0-.69,.31-.69,.69v4.27c0,.38,.31,.69,.69,.69h6.28c.38,0,.69-.31,.69-.69v-4.27c0-.38-.31-.69-.69-.69Z"/>
      <path class="cls-2" d="M26.09,4.03H.69c-.38,0-.69,.31-.69,.69v5.21c0,.38,.31,.69,.69,.69H26.09c.38,0,.69-.31,.69-.69V4.72c0-.38-.31-.69-.69-.69Z"/>
      <path class="cls-6" d="M6.01,21.92H.69c-.38,0-.69,.31-.69,.69v4.27c0,.38,.31,.69,.69,.69H6.01c.38,0,.69-.31,.69-.69v-4.27c0-.38-.31-.69-.69-.69Z"/>
      <path class="cls-7" d="M26.09,21.92H11.21c-.38,0-.69,.31-.69,.69v4.27c0,.38,.31,.69,.69,.69h14.88c.38,0,.69-.31,.69-.69v-4.27c0-.38-.31-.69-.69-.69Z"/>
      <path class="cls-1" d="M14.61,13.45H.69c-.38,0-.69,.31-.69,.69v4.27c0,.38,.31,.69,.69,.69H14.61c.38,0,.69-.31,.69-.69v-4.27c0-.38-.31-.69-.69-.69Z"/>
      <g>
        <polygon class="cls-5" points="35.64 6.59 47.84 6.59 47.84 9.97 39.23 9.97 39.23 14.26 47.68 14.26 47.68 17.64 39.23 17.64 39.23 25.36 35.64 25.36 35.64 6.59"/>
        <polygon class="cls-7" points="35.64 6.59 47.84 6.59 47.84 9.97 39.23 9.97 39.23 14.26 47.68 14.26 47.68 17.64 39.23 17.64 39.23 25.36 35.64 25.36 35.64 6.59"/>
      </g>
      <g>
        <polygon class="cls-5" points="51.97 22.15 56.71 22.15 56.71 9.81 52.13 9.81 52.13 6.59 60.14 6.59 60.14 22.15 64.55 22.15 64.55 25.36 51.97 25.36 51.97 22.15"/>
        <polygon class="cls-7" points="51.97 22.15 56.71 22.15 56.71 9.81 52.13 9.81 52.13 6.59 60.14 6.59 60.14 22.15 64.55 22.15 64.55 25.36 51.97 25.36 51.97 22.15"/>
      </g>
      <g>
        <path class="cls-5" d="M77.47,23.43c-.36,.84-.87,1.44-1.53,1.8-.65,.34-1.42,.51-2.29,.51-.82,0-1.59-.15-2.32-.46-.71-.3-1.33-.75-1.88-1.34-.54-.59-.98-1.31-1.31-2.15-.31-.84-.46-1.8-.46-2.87v-.43c0-1.05,.15-2,.46-2.84,.31-.84,.73-1.56,1.25-2.15,.53-.59,1.14-1.04,1.83-1.34,.71-.32,1.46-.48,2.26-.48,.96,0,1.73,.16,2.32,.48,.6,.32,1.07,.82,1.42,1.5h.49v-1.61h3.43v9.28c0,.54,.25,.8,.74,.8h.52v3.22h-2.34c-.62,0-1.13-.18-1.53-.54-.38-.36-.57-.82-.57-1.39h-.49Zm-3.05-.91c1,0,1.8-.32,2.4-.97,.6-.66,.9-1.56,.9-2.68v-.32c0-1.13-.3-2.01-.9-2.65-.6-.66-1.4-.99-2.4-.99s-1.8,.33-2.4,.99c-.6,.64-.9,1.53-.9,2.65v.32c0,1.13,.3,2.02,.9,2.68,.6,.64,1.4,.97,2.4,.97Z"/>
        <path class="cls-7" d="M77.47,23.43c-.36,.84-.87,1.44-1.53,1.8-.65,.34-1.42,.51-2.29,.51-.82,0-1.59-.15-2.32-.46-.71-.3-1.33-.75-1.88-1.34-.54-.59-.98-1.31-1.31-2.15-.31-.84-.46-1.8-.46-2.87v-.43c0-1.05,.15-2,.46-2.84,.31-.84,.73-1.56,1.25-2.15,.53-.59,1.14-1.04,1.83-1.34,.71-.32,1.46-.48,2.26-.48,.96,0,1.73,.16,2.32,.48,.6,.32,1.07,.82,1.42,1.5h.49v-1.61h3.43v9.28c0,.54,.25,.8,.74,.8h.52v3.22h-2.34c-.62,0-1.13-.18-1.53-.54-.38-.36-.57-.82-.57-1.39h-.49Zm-3.05-.91c1,0,1.8-.32,2.4-.97,.6-.66,.9-1.56,.9-2.68v-.32c0-1.13-.3-2.01-.9-2.65-.6-.66-1.4-.99-2.4-.99s-1.8,.33-2.4,.99c-.6,.64-.9,1.53-.9,2.65v.32c0,1.13,.3,2.02,.9,2.68,.6,.64,1.4,.97,2.4,.97Z"/>
      </g>
      <g>
        <path class="cls-5" d="M85.03,12.06h4V6.59h3.43v5.47h4.88v3.22h-4.88v6.06c0,.54,.25,.8,.74,.8h3.65v3.22h-5.72c-.62,0-1.13-.2-1.53-.59-.38-.39-.57-.89-.57-1.5v-7.99h-4v-3.22Z"/>
        <path class="cls-7" d="M85.03,12.06h4V6.59h3.43v5.47h4.88v3.22h-4.88v6.06c0,.54,.25,.8,.74,.8h3.65v3.22h-5.72c-.62,0-1.13-.2-1.53-.59-.38-.39-.57-.89-.57-1.5v-7.99h-4v-3.22Z"/>
      </g>
      <g>
        <polygon class="cls-5" points="102.01 22.15 106.75 22.15 106.75 9.81 102.17 9.81 102.17 6.59 110.18 6.59 110.18 22.15 114.59 22.15 114.59 25.36 102.01 25.36 102.01 22.15"/>
        <polygon class="cls-7" points="102.01 22.15 106.75 22.15 106.75 9.81 102.17 9.81 102.17 6.59 110.18 6.59 110.18 22.15 114.59 22.15 114.59 25.36 102.01 25.36 102.01 22.15"/>
      </g>
      <g>
        <path class="cls-5" d="M132.01,18.87c0,1.11-.19,2.09-.57,2.95-.38,.84-.9,1.56-1.55,2.15-.65,.57-1.41,1.01-2.26,1.31-.83,.3-1.72,.46-2.64,.46s-1.82-.15-2.67-.46c-.83-.3-1.58-.74-2.23-1.31-.65-.59-1.17-1.3-1.55-2.15-.38-.86-.57-1.84-.57-2.95v-.32c0-1.09,.19-2.06,.57-2.9,.38-.86,.9-1.58,1.55-2.17s1.4-1.04,2.23-1.34c.85-.3,1.74-.46,2.67-.46s1.81,.15,2.64,.46c.85,.3,1.61,.75,2.26,1.34,.65,.59,1.17,1.31,1.55,2.17,.38,.84,.57,1.81,.57,2.9v.32Zm-7.03,3.65c.49,0,.96-.08,1.39-.24,.44-.16,.82-.39,1.14-.7,.33-.3,.58-.67,.76-1.1,.2-.45,.3-.95,.3-1.5v-.54c0-.55-.1-1.05-.3-1.47-.18-.45-.44-.82-.76-1.13-.33-.3-.71-.54-1.14-.7-.43-.16-.9-.24-1.39-.24s-.95,.08-1.39,.24c-.44,.16-.82,.39-1.14,.7-.33,.3-.59,.68-.79,1.13-.18,.43-.27,.92-.27,1.47v.54c0,.55,.09,1.05,.27,1.5,.2,.43,.46,.8,.79,1.1,.33,.3,.71,.54,1.14,.7,.43,.16,.9,.24,1.39,.24Z"/>
        <path class="cls-7" d="M132.01,18.87c0,1.11-.19,2.09-.57,2.95-.38,.84-.9,1.56-1.55,2.15-.65,.57-1.41,1.01-2.26,1.31-.83,.3-1.72,.46-2.64,.46s-1.82-.15-2.67-.46c-.83-.3-1.58-.74-2.23-1.31-.65-.59-1.17-1.3-1.55-2.15-.38-.86-.57-1.84-.57-2.95v-.32c0-1.09,.19-2.06,.57-2.9,.38-.86,.9-1.58,1.55-2.17s1.4-1.04,2.23-1.34c.85-.3,1.74-.46,2.67-.46s1.81,.15,2.64,.46c.85,.3,1.61,.75,2.26,1.34,.65,.59,1.17,1.31,1.55,2.17,.38,.84,.57,1.81,.57,2.9v.32Zm-7.03,3.65c.49,0,.96-.08,1.39-.24,.44-.16,.82-.39,1.14-.7,.33-.3,.58-.67,.76-1.1,.2-.45,.3-.95,.3-1.5v-.54c0-.55-.1-1.05-.3-1.47-.18-.45-.44-.82-.76-1.13-.33-.3-.71-.54-1.14-.7-.43-.16-.9-.24-1.39-.24s-.95,.08-1.39,.24c-.44,.16-.82,.39-1.14,.7-.33,.3-.59,.68-.79,1.13-.18,.43-.27,.92-.27,1.47v.54c0,.55,.09,1.05,.27,1.5,.2,.43,.46,.8,.79,1.1,.33,.3,.71,.54,1.14,.7,.43,.16,.9,.24,1.39,.24Z"/>
      </g>
      <g>
        <path class="cls-5" d="M145.1,23.12h-.49c-.15,.3-.33,.58-.54,.86-.2,.26-.47,.5-.82,.7-.33,.21-.73,.37-1.2,.5-.45,.12-1.01,.18-1.66,.18-.83,0-1.62-.14-2.34-.42-.71-.3-1.34-.72-1.88-1.28-.53-.57-.95-1.27-1.25-2.09-.29-.82-.44-1.76-.44-2.82v-.47c0-1.04,.15-1.97,.46-2.79,.33-.82,.76-1.5,1.31-2.06,.56-.57,1.21-1.01,1.93-1.3,.75-.3,1.53-.44,2.34-.44,1.09,0,1.95,.2,2.59,.6,.63,.38,1.13,.93,1.5,1.64h.49v-1.88h3.43V28.18c0,.59-.2,1.08-.6,1.46-.38,.38-.88,.57-1.5,.57h-9.1v-3.13h7.03c.49,0,.74-.26,.74-.78v-3.18Zm-3.6-.89c1.07,0,1.93-.32,2.59-.97,.67-.66,1.01-1.52,1.01-2.58v-.31c0-1.06-.34-1.91-1.01-2.56-.65-.66-1.52-.99-2.59-.99s-1.94,.32-2.61,.97c-.66,.63-.98,1.49-.98,2.58v.31c0,1.1,.33,1.97,.98,2.61,.67,.63,1.54,.94,2.61,.94Z"/>
        <path class="cls-7" d="M145.1,23.12h-.49c-.15,.3-.33,.58-.54,.86-.2,.26-.47,.5-.82,.7-.33,.21-.73,.37-1.2,.5-.45,.12-1.01,.18-1.66,.18-.83,0-1.62-.14-2.34-.42-.71-.3-1.34-.72-1.88-1.28-.53-.57-.95-1.27-1.25-2.09-.29-.82-.44-1.76-.44-2.82v-.47c0-1.04,.15-1.97,.46-2.79,.33-.82,.76-1.5,1.31-2.06,.56-.57,1.21-1.01,1.93-1.3,.75-.3,1.53-.44,2.34-.44,1.09,0,1.95,.2,2.59,.6,.63,.38,1.13,.93,1.5,1.64h.49v-1.88h3.43V28.18c0,.59-.2,1.08-.6,1.46-.38,.38-.88,.57-1.5,.57h-9.1v-3.13h7.03c.49,0,.74-.26,.74-.78v-3.18Zm-3.6-.89c1.07,0,1.93-.32,2.59-.97,.67-.66,1.01-1.52,1.01-2.58v-.31c0-1.06-.34-1.91-1.01-2.56-.65-.66-1.52-.99-2.59-.99s-1.94,.32-2.61,.97c-.66,.63-.98,1.49-.98,2.58v.31c0,1.1,.33,1.97,.98,2.61,.67,.63,1.54,.94,2.61,.94Z"/>
      </g>
      <g>
        <path class="cls-5" d="M152.38,22.15h4.58v-6.86h-4.25v-3.22h7.68v10.08h3.92v3.22h-11.93v-3.22Zm8.85-14.02c0,.36-.07,.7-.22,1.02-.13,.3-.31,.57-.54,.8-.24,.21-.52,.39-.85,.54-.31,.13-.64,.19-.98,.19-.36,0-.7-.06-1.01-.19-.31-.14-.58-.32-.82-.54-.24-.23-.43-.5-.57-.8-.13-.32-.19-.66-.19-1.02s.06-.69,.19-.99c.15-.32,.34-.59,.57-.8,.24-.23,.51-.41,.82-.54,.31-.14,.64-.21,1.01-.21s.67,.07,.98,.21c.33,.13,.61,.3,.85,.54,.24,.21,.42,.48,.54,.8,.14,.3,.22,.63,.22,.99Z"/>
        <path class="cls-7" d="M152.38,22.15h4.58v-6.86h-4.25v-3.22h7.68v10.08h3.92v3.22h-11.93v-3.22Zm8.85-14.02c0,.36-.07,.7-.22,1.02-.13,.3-.31,.57-.54,.8-.24,.21-.52,.39-.85,.54-.31,.13-.64,.19-.98,.19-.36,0-.7-.06-1.01-.19-.31-.14-.58-.32-.82-.54-.24-.23-.43-.5-.57-.8-.13-.32-.19-.66-.19-1.02s.06-.69,.19-.99c.15-.32,.34-.59,.57-.8,.24-.23,.51-.41,.82-.54,.31-.14,.64-.21,1.01-.21s.67,.07,.98,.21c.33,.13,.61,.3,.85,.54,.24,.21,.42,.48,.54,.8,.14,.3,.22,.63,.22,.99Z"/>
      </g>
      <g>
        <path class="cls-5" d="M182,20.48c-.31,1.57-1.04,2.84-2.21,3.81-1.14,.97-2.68,1.45-4.6,1.45-1,0-1.93-.15-2.81-.46-.85-.3-1.6-.74-2.23-1.31-.64-.57-1.13-1.28-1.5-2.12-.36-.84-.54-1.8-.54-2.87v-.32c0-1.07,.18-2.04,.54-2.9,.36-.86,.86-1.59,1.5-2.2,.65-.61,1.41-1.07,2.26-1.39,.87-.32,1.8-.48,2.78-.48,1.89,0,3.41,.48,4.58,1.45,1.18,.97,1.92,2.23,2.23,3.81l-3.38,.86c-.11-.79-.45-1.47-1.04-2.04-.58-.57-1.4-.86-2.45-.86-.49,0-.95,.09-1.39,.27-.44,.18-.82,.44-1.14,.78-.33,.32-.59,.72-.79,1.21-.18,.46-.27,.99-.27,1.58v.16c0,.59,.09,1.12,.27,1.58,.2,.45,.46,.82,.79,1.13,.33,.3,.71,.54,1.14,.7,.44,.14,.9,.21,1.39,.21,1.05,0,1.85-.26,2.4-.78,.56-.52,.93-1.22,1.09-2.09l3.38,.83Z"/>
        <path class="cls-7" d="M182,20.48c-.31,1.57-1.04,2.84-2.21,3.81-1.14,.97-2.68,1.45-4.6,1.45-1,0-1.93-.15-2.81-.46-.85-.3-1.6-.74-2.23-1.31-.64-.57-1.13-1.28-1.5-2.12-.36-.84-.54-1.8-.54-2.87v-.32c0-1.07,.18-2.04,.54-2.9,.36-.86,.86-1.59,1.5-2.2,.65-.61,1.41-1.07,2.26-1.39,.87-.32,1.8-.48,2.78-.48,1.89,0,3.41,.48,4.58,1.45,1.18,.97,1.92,2.23,2.23,3.81l-3.38,.86c-.11-.79-.45-1.47-1.04-2.04-.58-.57-1.4-.86-2.45-.86-.49,0-.95,.09-1.39,.27-.44,.18-.82,.44-1.14,.78-.33,.32-.59,.72-.79,1.21-.18,.46-.27,.99-.27,1.58v.16c0,.59,.09,1.12,.27,1.58,.2,.45,.46,.82,.79,1.13,.33,.3,.71,.54,1.14,.7,.44,.14,.9,.21,1.39,.21,1.05,0,1.85-.26,2.4-.78,.56-.52,.93-1.22,1.09-2.09l3.38,.83Z"/>
      </g>
    </g>
  </g>
</svg>