<svg width="48" height="48" viewBox="0 0 48 48" fill="none" xmlns="http://www.w3.org/2000/svg">
<g clip-path="url(#clip0_1_20)">
<path d="M21.7493 22.3227L10.7227 12.9893C10.2723 12.6124 9.74441 12.3393 9.17657 12.1894C8.60874 12.0395 8.01486 12.0165 7.43712 12.122C6.85938 12.2275 6.31196 12.4589 5.83374 12.7998C5.35552 13.1407 4.95823 13.5827 4.6701 14.0945C4.38196 14.6062 4.21005 15.1751 4.16658 15.7608C4.1231 16.3465 4.20913 16.9346 4.41854 17.4833C4.62796 18.0319 4.95563 18.5278 5.37827 18.9356C5.80092 19.3433 6.30817 19.653 6.864 19.8427H6.904L7.008 19.8747L20.9173 24.112C21.0183 24.1485 21.1247 24.1674 21.232 24.168C21.4483 24.1669 21.6583 24.0953 21.8302 23.9641C22.0022 23.8329 22.1266 23.6492 22.1848 23.4409C22.243 23.2326 22.2317 23.011 22.1526 22.8097C22.0736 22.6084 21.9311 22.4384 21.7467 22.3253L21.7493 22.3227Z" fill="url(#paint0_linear_1_20)"/>
<path d="M23.96 6.91467C23.9632 6.38975 23.824 5.87378 23.5573 5.42165C23.2906 4.96952 22.9063 4.59814 22.4454 4.34701C21.9844 4.09587 21.464 3.97438 20.9395 3.99545C20.415 4.01652 19.906 4.17937 19.4667 4.46667L6 12.6427C5.54211 12.9411 5.15024 13.3302 4.84858 13.786C4.54691 14.2418 4.34186 14.7546 4.24607 15.2927C4.15028 15.8308 4.16578 16.3828 4.29163 16.9147C4.41747 17.4466 4.65099 17.947 4.97776 18.3851C5.30453 18.8233 5.71762 19.1898 6.19154 19.4621C6.66547 19.7343 7.19016 19.9066 7.73324 19.9682C8.27633 20.0298 8.82627 19.9795 9.34915 19.8203C9.87202 19.6611 10.3567 19.3965 10.7733 19.0427L22.8453 9.20533L22.9413 9.12533C23.2604 8.85204 23.5167 8.51299 23.6925 8.13143C23.8683 7.74986 23.9596 7.33479 23.96 6.91467Z" fill="url(#paint1_linear_1_20)"/>
<path d="M43.544 24.5333L23.112 4.856C22.8353 4.57835 22.5054 4.35947 22.1421 4.2125C21.7787 4.06552 21.3894 3.99348 20.9976 4.00069C20.6057 4.00791 20.2193 4.09423 19.8616 4.25448C19.5039 4.41474 19.1823 4.64561 18.916 4.93325C18.6498 5.22089 18.4444 5.55937 18.3122 5.92835C18.18 6.29734 18.1238 6.68923 18.1468 7.0805C18.1698 7.47177 18.2717 7.85436 18.4463 8.20528C18.6208 8.55621 18.8645 8.86825 19.1627 9.12267L19.2 9.15467L40.9067 27.4427C41.1931 27.6829 41.5421 27.8364 41.9128 27.885C42.2835 27.9336 42.6603 27.8753 42.9989 27.7171C43.3376 27.5588 43.624 27.3071 43.8245 26.9916C44.025 26.676 44.1312 26.3098 44.1307 25.936C44.1306 25.675 44.0788 25.4166 43.9781 25.1758C43.8773 24.935 43.7298 24.7166 43.544 24.5333Z" fill="url(#paint2_linear_1_20)"/>
<path d="M44.1333 25.944C44.136 25.5813 44.038 25.225 43.8502 24.9148C43.6623 24.6045 43.3921 24.3524 43.0696 24.1866C42.747 24.0207 42.3848 23.9477 42.0232 23.9754C41.6616 24.0032 41.3148 24.1308 41.0213 24.344L16.2987 36.424C15.8057 36.6717 15.3693 37.0187 15.0169 37.4432C14.6645 37.8677 14.4038 38.3604 14.251 38.8906C14.0982 39.4207 14.0568 39.9767 14.1293 40.5236C14.2017 41.0705 14.3865 41.5965 14.6721 42.0685C14.9576 42.5406 15.3377 42.9484 15.7885 43.2665C16.2393 43.5846 16.751 43.8059 17.2914 43.9167C17.8319 44.0275 18.3894 44.0253 18.929 43.9102C19.4685 43.7951 19.9784 43.5696 20.4267 43.248L43.288 27.5573C43.549 27.3769 43.7622 27.1358 43.9095 26.8548C44.0567 26.5738 44.1335 26.2613 44.1333 25.944Z" fill="url(#paint3_linear_1_20)"/>
<path d="M16 16H32V32H16V16Z" fill="black"/>
<path d="M17.7413 29H23.7413V30H17.7413V29Z" fill="white"/>
<path d="M17.4907 20.1253L17.936 19.704C17.9784 19.7709 18.036 19.8268 18.1041 19.8671C18.1723 19.9074 18.249 19.931 18.328 19.936C18.4987 19.936 18.6107 19.816 18.6107 19.584V18.0053H19.2987V19.5893C19.3089 19.7169 19.2924 19.8452 19.2502 19.966C19.2079 20.0867 19.1409 20.1973 19.0533 20.2907C18.9629 20.379 18.8556 20.4481 18.7379 20.4939C18.6201 20.5397 18.4943 20.5613 18.368 20.5573C18.1973 20.5642 18.0277 20.5283 17.8744 20.4528C17.7212 20.3774 17.5893 20.2648 17.4907 20.1253Z" fill="white"/>
<path d="M19.608 18.0053H21.616V18.5893H20.2827V18.9707H21.48V19.504H20.2933V19.9013H21.6267V20.488H19.6L19.608 18.0053Z" fill="white"/>
<path d="M22.5947 18.6107H21.848V18.0053H24.0373V18.6107H23.288V20.5013H22.5947V18.6107Z" fill="white"/>
<path d="M17.768 21.488H18.9467C19.069 21.4779 19.1922 21.4923 19.3089 21.5303C19.4257 21.5683 19.5337 21.6292 19.6267 21.7093C19.6797 21.7625 19.7214 21.8258 19.7494 21.8954C19.7773 21.9651 19.7909 22.0396 19.7893 22.1147C19.7913 22.2363 19.7551 22.3556 19.6857 22.4556C19.6163 22.5556 19.5173 22.6313 19.4027 22.672C19.5445 22.698 19.6725 22.7738 19.7634 22.8858C19.8543 22.9977 19.9023 23.1385 19.8987 23.2827C19.8987 23.7333 19.5493 24 18.952 24H17.768V21.488ZM19.1013 22.2587C19.1013 22.12 18.9893 22.0453 18.7867 22.0453H18.4427V22.4827H18.776C18.984 22.4827 19.1067 22.4107 19.1067 22.2667L19.1013 22.2587ZM18.8613 22.968H18.4427V23.4293H18.8747C19.088 23.4293 19.2053 23.3467 19.2053 23.2C19.2 23.0587 19.0987 22.968 18.8667 22.968H18.8613Z" fill="white"/>
<path d="M20.12 21.488H21.2267C21.3732 21.4761 21.5206 21.4935 21.6602 21.5393C21.7999 21.5851 21.929 21.6583 22.04 21.7547C22.1149 21.8312 22.1732 21.9223 22.2112 22.0223C22.2493 22.1223 22.2664 22.2291 22.2613 22.336C22.2661 22.502 22.2192 22.6654 22.127 22.8034C22.0347 22.9415 21.9018 23.0475 21.7467 23.1067L22.344 24H21.544L21.04 23.2427H20.808V24H20.1147L20.12 21.488ZM21.1867 22.688C21.4187 22.688 21.56 22.5733 21.56 22.3893C21.56 22.1893 21.4133 22.088 21.184 22.088H20.8133V22.6933L21.1867 22.688Z" fill="white"/>
<path d="M23.224 21.4693H23.8907L24.9573 23.9867H24.2133L24.0347 23.536H23.0667L22.888 24H22.1653L23.224 21.4693ZM23.832 22.9973L23.552 22.2907L23.2693 22.9973H23.832Z" fill="white"/>
<path d="M25.0667 21.48H25.76V23.9787H25.0667V21.48Z" fill="white"/>
<path d="M26.016 21.48H26.6667L27.5653 22.8133V21.48H28.2507V23.9787H27.6453L26.704 22.608V23.9787H26.016V21.48Z" fill="white"/>
<path d="M28.3653 23.608L28.7493 23.1467C28.9742 23.3347 29.2563 23.4409 29.5493 23.448C29.7387 23.448 29.8373 23.3813 29.8373 23.2747C29.8373 23.1653 29.7573 23.112 29.4133 23.032C28.88 22.9093 28.472 22.7653 28.472 22.2507C28.472 21.7867 28.84 21.4507 29.44 21.4507C29.8109 21.4368 30.1747 21.5549 30.4667 21.784L30.1333 22.2587C29.9316 22.1062 29.6874 22.0205 29.4347 22.0133C29.2667 22.0133 29.184 22.08 29.184 22.1733C29.184 22.288 29.2693 22.3387 29.6187 22.416C30.192 22.5413 30.5467 22.728 30.5467 23.1947C30.5467 23.704 30.144 23.9947 29.5387 23.9947C29.1135 24.0128 28.6964 23.8753 28.3653 23.608Z" fill="white"/>
</g>
<defs>
<linearGradient id="paint0_linear_1_20" x1="8.704" y1="16.3093" x2="22.072" y2="22.8107" gradientUnits="userSpaceOnUse">
<stop offset="0.21" stop-color="#FE2857"/>
<stop offset="1" stop-color="#293896"/>
</linearGradient>
<linearGradient id="paint1_linear_1_20" x1="4.63467" y1="18.6293" x2="22.12" y2="5.66133" gradientUnits="userSpaceOnUse">
<stop stop-color="#FE2857"/>
<stop offset="0.01" stop-color="#FE2857"/>
<stop offset="0.86" stop-color="#FF318C"/>
</linearGradient>
<linearGradient id="paint2_linear_1_20" x1="19.7787" y1="5.75467" x2="42.7387" y2="26.6027" gradientUnits="userSpaceOnUse">
<stop offset="0.02" stop-color="#FF318C"/>
<stop offset="0.21" stop-color="#FE2857"/>
<stop offset="0.86" stop-color="#FDB60D"/>
</linearGradient>
<linearGradient id="paint3_linear_1_20" x1="41.456" y1="23.9467" x2="14.6853" y2="42.3733" gradientUnits="userSpaceOnUse">
<stop offset="0.01" stop-color="#FDB60D"/>
<stop offset="0.86" stop-color="#FCF84A"/>
</linearGradient>
<clipPath id="clip0_1_20">
<rect width="48" height="48" fill="white"/>
</clipPath>
</defs>
</svg>
