<svg width="46" height="46" viewBox="0 0 46 46" fill="none" xmlns="http://www.w3.org/2000/svg">
<path d="M0.5 0.5H45.5V45.5H0.5V0.5Z" fill="black"/>
<path d="M5.3975 37.0625H22.2725V39.875H5.3975V37.0625Z" fill="white"/>
<path d="M4.6925 12.125L5.945 10.94C6.06419 11.1281 6.22623 11.2853 6.41786 11.3987C6.60949 11.5121 6.82526 11.5785 7.0475 11.5925C7.5275 11.5925 7.8425 11.2625 7.8425 10.61V6.125H9.7775V10.625C9.80645 10.9773 9.76354 11.3318 9.65138 11.667C9.53921 12.0022 9.36013 12.3111 9.125 12.575C8.8667 12.8152 8.56338 13.0018 8.23254 13.1241C7.9017 13.2464 7.54992 13.3019 7.1975 13.2875C6.716 13.3191 6.23428 13.2292 5.79658 13.0261C5.35887 12.823 4.97923 12.5131 4.6925 12.125Z" fill="white"/>
<path d="M10.625 6.125H16.2725V7.7675H12.5225V8.8475H15.89V10.3475H12.575V11.465H16.325V13.1225H10.625V6.125Z" fill="white"/>
<path d="M19.0475 7.8425H16.9475V6.125H23.105V7.8275H20.9975V13.1525H19.0475V7.8425Z" fill="white"/>
<path d="M5.4725 15.935H8.7875C9.48207 15.8828 10.1692 16.1065 10.7 16.5575C10.8487 16.7084 10.9652 16.8879 11.0425 17.0852C11.1199 17.2824 11.1564 17.4932 11.15 17.705C11.1584 18.0468 11.0585 18.3825 10.8645 18.6641C10.6705 18.9457 10.3924 19.1586 10.07 19.2725C10.469 19.3456 10.8288 19.5589 11.0846 19.8737C11.3403 20.1886 11.4752 20.5845 11.465 20.99C11.465 22.1975 10.4825 22.9325 8.8025 22.9325H5.4725V15.935ZM9.2225 18.1025C9.2225 17.7125 8.9075 17.5025 8.3375 17.5025H7.37V18.7325H8.3C8.8925 18.7325 9.2375 18.5375 9.2375 18.125L9.2225 18.1025ZM8.5475 20.0975H7.37V21.395H8.585C9.185 21.395 9.515 21.1625 9.515 20.75C9.515 20.375 9.215 20.0975 8.5625 20.0975H8.5475Z" fill="white"/>
<path d="M12.125 15.935H15.2C16.0192 15.8815 16.8267 16.1507 17.45 16.685C17.6706 16.8968 17.8446 17.1522 17.9608 17.435C18.077 17.7179 18.133 18.0218 18.125 18.3275C18.1385 18.7943 18.0064 19.2538 17.7471 19.6422C17.4877 20.0306 17.1139 20.3286 16.6775 20.495L18.3575 22.9475H16.1075L14.6975 20.8175H14.045V22.9475H12.125V15.935ZM15.125 19.31C15.7775 19.31 16.1675 18.9875 16.1675 18.4775C16.1675 17.915 15.7625 17.6375 15.1175 17.6375H14.0375V19.3325L15.125 19.31Z" fill="white"/>
<path d="M20.8175 15.875H22.6925L25.6925 22.955H23.6L23.0975 21.6875H20.375L19.8725 22.955H17.84L20.8175 15.875ZM22.52 20.1725L21.77 18.185L20.975 20.1725H22.52Z" fill="white"/>
<path d="M25.97 15.9125H27.92V22.94H25.97V15.9125Z" fill="white"/>
<path d="M28.67 15.9125H30.485L33.0125 19.6625V15.9125H34.94V22.94H33.245L30.5975 19.085V22.94H28.67V15.9125Z" fill="white"/>
<path d="M35.27 21.875L36.3575 20.5775C36.9894 21.1074 37.783 21.4063 38.6075 21.425C39.14 21.425 39.4175 21.245 39.4175 20.9375C39.4175 20.6375 39.185 20.4875 38.225 20.255C36.725 19.91 35.5775 19.505 35.5775 18.0575C35.5775 16.7525 36.605 15.8075 38.2925 15.8075C39.3381 15.7673 40.364 16.0995 41.1875 16.745L40.2425 18.125C39.6735 17.6994 38.9877 17.4585 38.2775 17.435C37.805 17.435 37.5725 17.6225 37.5725 17.885C37.5725 18.2 37.8125 18.3425 38.795 18.5675C40.4 18.9125 41.375 19.4375 41.375 20.75C41.375 22.1825 40.2425 23 38.5325 23C37.345 23.0299 36.1867 22.6304 35.27 21.875Z" fill="white"/>
</svg>
