<svg width="33" height="33" viewBox="0 0 33 33" fill="none" xmlns="http://www.w3.org/2000/svg">
<path d="M0.5 0.5H32.5V32.5H0.5V0.5Z" fill="black"/>
<path d="M3.98267 26.5H15.9827V28.5H3.98267V26.5Z" fill="white"/>
<path d="M3.48133 8.76667L4.372 7.924C4.45676 8.05775 4.57199 8.16953 4.70826 8.25018C4.84453 8.33083 4.99796 8.37806 5.156 8.388C5.49733 8.388 5.72133 8.15333 5.72133 7.68933V4.5H7.09733V7.7C7.11792 7.95051 7.08741 8.20259 7.00765 8.44095C6.92789 8.67932 6.80054 8.89899 6.63333 9.08667C6.44966 9.25747 6.23396 9.39018 5.9987 9.47715C5.76343 9.56411 5.51328 9.6036 5.26267 9.59333C4.92027 9.6158 4.57771 9.55188 4.26645 9.40743C3.9552 9.26299 3.68523 9.04266 3.48133 8.76667Z" fill="white"/>
<path d="M7.7 4.5H11.716V5.668H9.04933V6.436H11.444V7.50267H9.08666V8.29733H11.7533V9.476H7.7V4.5Z" fill="white"/>
<path d="M13.6893 5.72133H12.196V4.5H16.5747V5.71067H15.076V9.49733H13.6893V5.72133Z" fill="white"/>
<path d="M4.036 11.476H6.39333C6.88725 11.4389 7.37588 11.598 7.75333 11.9187C7.85904 12.026 7.94191 12.1536 7.99691 12.2939C8.05191 12.4341 8.0779 12.5841 8.07333 12.7347C8.07933 12.9777 8.00827 13.2165 7.87032 13.4167C7.73237 13.6169 7.5346 13.7684 7.30533 13.8493C7.58907 13.9013 7.84492 14.053 8.02679 14.2769C8.20866 14.5008 8.3046 14.7823 8.29733 15.0707C8.29733 15.9293 7.59867 16.452 6.404 16.452H4.036V11.476ZM6.70267 13.0173C6.70267 12.74 6.47867 12.5907 6.07333 12.5907H5.38533V13.4653H6.04667C6.468 13.4653 6.71333 13.3267 6.71333 13.0333L6.70267 13.0173ZM6.22267 14.436H5.38533V15.3587H6.24933C6.676 15.3587 6.91067 15.1933 6.91067 14.9C6.91067 14.6333 6.69733 14.436 6.23333 14.436H6.22267Z" fill="white"/>
<path d="M8.76667 11.476H10.9533C11.5359 11.438 12.1101 11.6294 12.5533 12.0093C12.7102 12.1599 12.8339 12.3416 12.9166 12.5427C12.9992 12.7438 13.039 12.96 13.0333 13.1773C13.0429 13.5093 12.949 13.836 12.7646 14.1122C12.5801 14.3884 12.3143 14.6004 12.004 14.7187L13.1987 16.4627H11.5987L10.596 14.948H10.132V16.4627H8.76667V11.476ZM10.9 13.876C11.364 13.876 11.6413 13.6467 11.6413 13.284C11.6413 12.884 11.3533 12.6867 10.8947 12.6867H10.1267V13.892L10.9 13.876Z" fill="white"/>
<path d="M14.948 11.4333H16.2813L18.4147 16.468H16.9267L16.5693 15.5667H14.6333L14.276 16.468H12.8307L14.948 11.4333ZM16.1587 14.4893L15.6253 13.076L15.06 14.4893H16.1587Z" fill="white"/>
<path d="M18.612 11.46H19.9987V16.4573H18.612V11.46Z" fill="white"/>
<path d="M20.532 11.46H21.8227L23.62 14.1267V11.46H24.9907V16.4573H23.7853L21.9027 13.716V16.4573H20.532V11.46Z" fill="white"/>
<path d="M25.2253 15.7L25.9987 14.7773C26.4481 15.1541 27.0124 15.3667 27.5987 15.38C27.9773 15.38 28.1747 15.252 28.1747 15.0333C28.1747 14.82 28.0093 14.7133 27.3267 14.548C26.26 14.3027 25.444 14.0147 25.444 12.9853C25.444 12.0573 26.1747 11.3853 27.3747 11.3853C28.1182 11.3567 28.8477 11.593 29.4333 12.052L28.7613 13.0333C28.3567 12.7307 27.869 12.5594 27.364 12.5427C27.028 12.5427 26.8627 12.676 26.8627 12.8627C26.8627 13.0867 27.0333 13.188 27.732 13.348C28.8733 13.5933 29.5667 13.9667 29.5667 14.9C29.5667 15.9187 28.7613 16.5 27.5453 16.5C26.7009 16.5212 25.8772 16.2372 25.2253 15.7Z" fill="white"/>
</svg>
