<svg width="81" height="24" viewBox="0 0 81 24" fill="none" xmlns="http://www.w3.org/2000/svg">
    <path d="M14.775 1.875L12 6.6375L9.225 1.875H0L12 22.5L24 1.875H14.775Z" fill="#42B883"/>
    <path d="M14.775 1.875L12 6.6375L9.225 1.875H4.8L12 14.25L19.2 1.875H14.775Z" fill="#35495E"/>
    <path d="M34.2955 6.36364L37.5341 15.8409H37.6648L40.9034 6.36364H42.8011L38.6136 18H36.5852L32.3977 6.36364H34.2955ZM50.0736 14.3807V9.27273H51.7781V18H50.1077V16.4886H50.0168C49.816 16.9545 49.494 17.3428 49.0509 17.6534C48.6115 17.9602 48.0641 18.1136 47.4088 18.1136C46.8482 18.1136 46.352 17.9905 45.9202 17.7443C45.4921 17.4943 45.155 17.125 44.9088 16.6364C44.6664 16.1477 44.5452 15.5436 44.5452 14.8239V9.27273H46.244V14.6193C46.244 15.214 46.4088 15.6875 46.7384 16.0398C47.0679 16.392 47.4959 16.5682 48.0224 16.5682C48.3406 16.5682 48.6569 16.4886 48.9713 16.3295C49.2895 16.1705 49.5527 15.9299 49.7611 15.608C49.9732 15.286 50.0774 14.8769 50.0736 14.3807ZM58.0222 18.1761C57.1623 18.1761 56.4218 17.9924 55.8006 17.625C55.1831 17.2538 54.7059 16.733 54.3687 16.0625C54.0354 15.3883 53.8687 14.5985 53.8687 13.6932C53.8687 12.7992 54.0354 12.0114 54.3687 11.3295C54.7059 10.6477 55.1756 10.1155 55.7778 9.73295C56.3839 9.35038 57.0922 9.15909 57.9028 9.15909C58.3953 9.15909 58.8725 9.24053 59.3347 9.40341C59.7968 9.56629 60.2116 9.82197 60.579 10.1705C60.9464 10.5189 61.2362 10.9716 61.4483 11.5284C61.6604 12.0814 61.7665 12.7538 61.7665 13.5455V14.1477H54.829V12.875H60.1017C60.1017 12.428 60.0108 12.0322 59.829 11.6875C59.6472 11.339 59.3915 11.0644 59.0619 10.8636C58.7362 10.6629 58.3536 10.5625 57.9142 10.5625C57.4369 10.5625 57.0203 10.6799 56.6642 10.9148C56.3119 11.1458 56.0392 11.4489 55.846 11.8239C55.6566 12.1951 55.5619 12.5985 55.5619 13.0341V14.0284C55.5619 14.6117 55.6642 15.108 55.8687 15.517C56.0771 15.9261 56.3669 16.2386 56.7381 16.4545C57.1093 16.6667 57.543 16.7727 58.0392 16.7727C58.3612 16.7727 58.6547 16.7273 58.9199 16.6364C59.185 16.5417 59.4142 16.4015 59.6074 16.2159C59.8006 16.0303 59.9483 15.8011 60.0506 15.5284L61.6585 15.8182C61.5297 16.2917 61.2987 16.7064 60.9653 17.0625C60.6358 17.4148 60.221 17.6894 59.721 17.8864C59.2248 18.0795 58.6585 18.1761 58.0222 18.1761ZM64.9707 18.108C64.6601 18.108 64.3931 17.9981 64.1696 17.7784C63.9461 17.5549 63.8344 17.286 63.8344 16.9716C63.8344 16.661 63.9461 16.3958 64.1696 16.1761C64.3931 15.9527 64.6601 15.8409 64.9707 15.8409C65.2813 15.8409 65.5484 15.9527 65.7719 16.1761C65.9954 16.3958 66.1071 16.661 66.1071 16.9716C66.1071 17.1799 66.0541 17.3712 65.948 17.5455C65.8457 17.7159 65.7094 17.8523 65.5389 17.9545C65.3685 18.0568 65.1791 18.108 64.9707 18.108ZM68.5827 9.27273H70.2815V18.5682C70.2815 19.1515 70.1755 19.6439 69.9634 20.0455C69.755 20.447 69.4444 20.7519 69.0315 20.9602C68.6224 21.1686 68.1168 21.2727 67.5145 21.2727C67.4539 21.2727 67.3971 21.2727 67.344 21.2727C67.2872 21.2727 67.2285 21.2708 67.1679 21.267V19.8068C67.2209 19.8068 67.2683 19.8068 67.3099 19.8068C67.3478 19.8068 67.3914 19.8068 67.4406 19.8068C67.8421 19.8068 68.1319 19.6989 68.3099 19.483C68.4918 19.2708 68.5827 18.9621 68.5827 18.5568V9.27273ZM69.4236 7.92614C69.1281 7.92614 68.8743 7.82765 68.6622 7.63068C68.4539 7.42992 68.3497 7.19129 68.3497 6.91477C68.3497 6.63447 68.4539 6.39583 68.6622 6.19886C68.8743 5.99811 69.1281 5.89773 69.4236 5.89773C69.719 5.89773 69.9709 5.99811 70.1793 6.19886C70.3914 6.39583 70.4974 6.63447 70.4974 6.91477C70.4974 7.19129 70.3914 7.42992 70.1793 7.63068C69.9709 7.82765 69.719 7.92614 69.4236 7.92614ZM79.3068 11.4034L77.767 11.6761C77.7027 11.4792 77.6004 11.2917 77.4602 11.1136C77.3239 10.9356 77.1383 10.7898 76.9034 10.6761C76.6686 10.5625 76.375 10.5057 76.0227 10.5057C75.5417 10.5057 75.1402 10.6136 74.8182 10.8295C74.4962 11.0417 74.3352 11.3163 74.3352 11.6534C74.3352 11.9451 74.4432 12.1799 74.6591 12.358C74.875 12.536 75.2235 12.6818 75.7045 12.7955L77.0909 13.1136C77.8939 13.2992 78.4924 13.5852 78.8864 13.9716C79.2803 14.358 79.4773 14.8598 79.4773 15.4773C79.4773 16 79.3258 16.4659 79.0227 16.875C78.7235 17.2803 78.3049 17.5985 77.767 17.8295C77.233 18.0606 76.6136 18.1761 75.9091 18.1761C74.9318 18.1761 74.1345 17.9678 73.517 17.5511C72.8996 17.1307 72.5208 16.5341 72.3807 15.7614L74.0227 15.5114C74.125 15.9394 74.3352 16.2633 74.6534 16.483C74.9716 16.6989 75.3864 16.8068 75.8977 16.8068C76.4545 16.8068 76.8996 16.6913 77.233 16.4602C77.5663 16.2254 77.733 15.9394 77.733 15.6023C77.733 15.3295 77.6307 15.1004 77.4261 14.9148C77.2254 14.7292 76.9167 14.589 76.5 14.4943L75.0227 14.1705C74.2083 13.9848 73.6061 13.6894 73.2159 13.2841C72.8295 12.8788 72.6364 12.3655 72.6364 11.7443C72.6364 11.2292 72.7803 10.7784 73.0682 10.392C73.3561 10.0057 73.7538 9.70455 74.2614 9.48864C74.7689 9.26894 75.3504 9.15909 76.0057 9.15909C76.9489 9.15909 77.6913 9.36364 78.233 9.77273C78.7746 10.178 79.1326 10.7216 79.3068 11.4034Z"
          fill="#e1e1e1"/>
</svg>
