<svg width="97" height="32" viewBox="0 0 97 32" fill="none" xmlns="http://www.w3.org/2000/svg">
<path d="M19.7 2.5L16 8.85L12.3 2.5H0L16 30L32 2.5H19.7Z" fill="#42B883"/>
<path d="M19.7 2.5L16 8.85L12.3 2.5H6.4L16 19L25.6 2.5H19.7Z" fill="#35495E"/>
<path d="M43.5028 9.90909L46.6669 19.8551H46.7884L49.9588 9.90909H53.027L48.5142 23H44.9474L40.4283 9.90909H43.5028ZM61.0477 18.8196V13.1818H63.7707V23H61.1563V21.2166H61.054C60.8325 21.7919 60.4638 22.2543 59.9482 22.6037C59.4369 22.9531 58.8126 23.1278 58.0754 23.1278C57.4191 23.1278 56.8417 22.9787 56.3431 22.6804C55.8445 22.3821 55.4546 21.9581 55.1734 21.4084C54.8964 20.8587 54.7558 20.2003 54.7515 19.4332V13.1818H57.4745V18.9474C57.4788 19.527 57.6343 19.9851 57.9411 20.3217C58.2479 20.6584 58.6592 20.8267 59.1748 20.8267C59.5029 20.8267 59.8097 20.7521 60.0952 20.603C60.3808 20.4496 60.6109 20.2237 60.7856 19.9254C60.9646 19.6271 61.0519 19.2585 61.0477 18.8196ZM70.6232 23.1918C69.6132 23.1918 68.7439 22.9872 68.0152 22.5781C67.2908 22.1648 66.7326 21.581 66.3405 20.8267C65.9485 20.0682 65.7524 19.1712 65.7524 18.1357C65.7524 17.1257 65.9485 16.2393 66.3405 15.4766C66.7326 14.7138 67.2844 14.1193 67.9961 13.6932C68.712 13.267 69.5515 13.054 70.5145 13.054C71.1623 13.054 71.7652 13.1584 72.3235 13.3672C72.886 13.5717 73.376 13.8807 73.7936 14.294C74.2155 14.7074 74.5436 15.2273 74.778 15.8537C75.0124 16.4759 75.1296 17.2045 75.1296 18.0398V18.7876H66.8391V17.1001H72.5664C72.5664 16.7081 72.4811 16.3608 72.3107 16.0582C72.1402 15.7557 71.9037 15.5192 71.6012 15.3487C71.3029 15.174 70.9556 15.0866 70.5593 15.0866C70.1459 15.0866 69.7794 15.1825 69.4598 15.3743C69.1445 15.5618 68.8973 15.8153 68.7184 16.1349C68.5394 16.4503 68.4478 16.8018 68.4435 17.1896V18.794C68.4435 19.2798 68.533 19.6996 68.712 20.0533C68.8952 20.407 69.153 20.6797 69.4854 20.8714C69.8178 21.0632 70.212 21.1591 70.6679 21.1591C70.9705 21.1591 71.2475 21.1165 71.4989 21.0312C71.7503 20.946 71.9655 20.8182 72.1445 20.6477C72.3235 20.4773 72.4598 20.2685 72.5536 20.0213L75.0721 20.1875C74.9442 20.7926 74.6821 21.321 74.2858 21.7727C73.8938 22.2202 73.3867 22.5696 72.7645 22.821C72.1466 23.0682 71.4328 23.1918 70.6232 23.1918ZM78.6982 23.1662C78.2763 23.1662 77.9141 23.017 77.6115 22.7188C77.3132 22.4162 77.1641 22.054 77.1641 21.6321C77.1641 21.2145 77.3132 20.8565 77.6115 20.5582C77.9141 20.2599 78.2763 20.1108 78.6982 20.1108C79.1073 20.1108 79.4652 20.2599 79.7721 20.5582C80.0789 20.8565 80.2323 21.2145 80.2323 21.6321C80.2323 21.9134 80.1598 22.1712 80.0149 22.4055C79.8743 22.6357 79.689 22.821 79.4588 22.9616C79.2287 23.098 78.9752 23.1662 78.6982 23.1662ZM82.6679 13.1818H85.3909V23.4858C85.3909 24.2443 85.2418 24.858 84.9435 25.3267C84.6452 25.7955 84.2169 26.1385 83.6587 26.3558C83.1047 26.5732 82.442 26.6818 81.6707 26.6818C81.577 26.6818 81.4875 26.6797 81.4023 26.6754C81.3128 26.6754 81.219 26.6733 81.121 26.669V24.5405C81.1935 24.5447 81.2574 24.5469 81.3128 24.5469C81.3639 24.5511 81.4193 24.5533 81.479 24.5533C81.9179 24.5533 82.2247 24.4595 82.3994 24.272C82.5784 24.0888 82.6679 23.8118 82.6679 23.4411V13.1818ZM84.023 11.9162C83.6224 11.9162 83.2773 11.782 82.9875 11.5135C82.6977 11.2408 82.5528 10.9148 82.5528 10.5355C82.5528 10.1605 82.6977 9.83878 82.9875 9.57031C83.2773 9.29758 83.6224 9.16122 84.023 9.16122C84.4321 9.16122 84.7794 9.29758 85.0649 9.57031C85.3547 9.83878 85.4996 10.1605 85.4996 10.5355C85.4996 10.9148 85.3547 11.2408 85.0649 11.5135C84.7794 11.782 84.4321 11.9162 84.023 11.9162ZM95.9412 15.9815L93.4483 16.1349C93.4057 15.9219 93.3141 15.7301 93.1735 15.5597C93.0328 15.3849 92.8475 15.2464 92.6174 15.1442C92.3915 15.0376 92.1209 14.9844 91.8056 14.9844C91.3837 14.9844 91.0279 15.0739 90.7381 15.2528C90.4483 15.4276 90.3034 15.6619 90.3034 15.956C90.3034 16.1903 90.3972 16.3885 90.5847 16.5504C90.7722 16.7124 91.0939 16.8423 91.5499 16.9403L93.3269 17.2983C94.2814 17.4943 94.9931 17.8097 95.4618 18.2443C95.9306 18.679 96.165 19.25 96.165 19.9574C96.165 20.6009 95.9753 21.1655 95.5961 21.6513C95.2211 22.1371 94.7054 22.5163 94.0492 22.7891C93.3972 23.0575 92.6451 23.1918 91.7928 23.1918C90.4931 23.1918 89.4576 22.9212 88.6863 22.38C87.9192 21.8345 87.4696 21.093 87.3375 20.1555L90.0158 20.0149C90.0968 20.4112 90.2928 20.7138 90.6039 20.9226C90.915 21.1271 91.3134 21.2294 91.7992 21.2294C92.2765 21.2294 92.66 21.1378 92.9498 20.9545C93.2438 20.767 93.3929 20.5263 93.3972 20.2322C93.3929 19.9851 93.2885 19.7827 93.084 19.625C92.8794 19.4631 92.5641 19.3395 92.138 19.2543L90.4377 18.9155C89.4789 18.7237 88.7651 18.3913 88.2963 17.9183C87.8319 17.4453 87.5996 16.8423 87.5996 16.1094C87.5996 15.4787 87.7701 14.9354 88.111 14.4794C88.4561 14.0234 88.9398 13.6719 89.562 13.4247C90.1884 13.1776 90.9213 13.054 91.7608 13.054C93.0009 13.054 93.9767 13.3161 94.6884 13.8402C95.4043 14.3643 95.8219 15.0781 95.9412 15.9815Z" fill="#213547"/>
</svg>
