<?xml version="1.0" encoding="UTF-8" standalone="no"?>
<svg
   xmlns:dc="http://purl.org/dc/elements/1.1/"
   xmlns:cc="http://creativecommons.org/ns#"
   xmlns:rdf="http://www.w3.org/1999/02/22-rdf-syntax-ns#"
   xmlns:svg="http://www.w3.org/2000/svg"
   xmlns="http://www.w3.org/2000/svg"
   xmlns:sodipodi="http://sodipodi.sourceforge.net/DTD/sodipodi-0.dtd"
   xmlns:inkscape="http://www.inkscape.org/namespaces/inkscape"
   width="120"
   height="60"
   viewBox="0 0 120 60"
   version="1.1"
   id="svg901"
   sodipodi:docname="vue-ar21.svg"
   inkscape:version="0.92.4 (5da689c313, 2019-01-14)">
  <metadata
     id="metadata907">
    <rdf:RDF>
      <cc:Work
         rdf:about="">
        <dc:format>image/svg+xml</dc:format>
        <dc:type
           rdf:resource="http://purl.org/dc/dcmitype/StillImage" />
        <dc:title></dc:title>
      </cc:Work>
    </rdf:RDF>
  </metadata>
  <defs
     id="defs905" />
  <sodipodi:namedview
     pagecolor="#ffffff"
     bordercolor="#666666"
     borderopacity="1"
     objecttolerance="10"
     gridtolerance="10"
     guidetolerance="10"
     inkscape:pageopacity="0"
     inkscape:pageshadow="2"
     inkscape:window-width="1506"
     inkscape:window-height="702"
     id="namedview903"
     showgrid="false"
     inkscape:zoom="1.4605809"
     inkscape:cx="37.31392"
     inkscape:cy="46"
     inkscape:window-x="70"
     inkscape:window-y="27"
     inkscape:window-maximized="0"
     inkscape:current-layer="svg901"
     inkscape:pagecheckerboard="true" />
  <path
     style="fill:#41b883;fill-rule:evenodd;stroke-width:0.40281391"
     inkscape:connector-curvature="0"
     id="path893"
     d="m 43.482731,11.952421 h 8.482051 L 30.547167,48.860245 8.9885682,11.952421 h 8.6749998 l 12.883599,22.219215 z" />
  <path
     style="fill:#35495e;fill-rule:evenodd;stroke-width:0.40281391"
     inkscape:connector-curvature="0"
     id="path895"
     d="m 35.466734,11.944897 h 8.067154 L 30.535889,34.210435 17.642218,11.944897 h 7.941074 l 4.952597,8.57188 z" />
  <path
     style="fill:#010101;fill-rule:evenodd;stroke-width:0.50266033"
     inkscape:connector-curvature="0"
     id="path897"
     d="m 57.026094,19.231181 c 0,-0.272276 0.151139,-0.499167 0.453429,-0.680703 0.30229,-0.181515 0.618323,-0.272276 0.948069,-0.272276 0.458008,0 0.741977,0.172438 0.851908,0.517339 L 64.116097,34.968635 68.9252,18.795541 c 0.128243,-0.344881 0.403048,-0.517339 0.824412,-0.517339 0.348088,0 0.673264,0.09983 0.975564,0.299501 0.30229,0.199666 0.45343,0.426562 0.45343,0.680701 0,0.01815 -0.0045,0.04538 -0.01375,0.08168 -0.0092,0.0363 -0.01375,0.07261 -0.01375,0.10891 l -5.578524,18.106328 c -0.201526,0.526385 -0.686985,0.789578 -1.456457,0.789578 -0.769473,0 -1.236645,-0.263197 -1.401518,-0.789578 L 57.081312,19.448998 c -0.03664,-0.10891 -0.05496,-0.181516 -0.05496,-0.217817 z M 71.395142,33.17146 v -7.078966 c 0,-0.217823 0.114501,-0.408412 0.343507,-0.571776 0.229008,-0.163365 0.499228,-0.245046 0.810692,-0.245046 0.293126,0 0.554183,0.08622 0.783194,0.258658 0.229007,0.172443 0.343509,0.358492 0.343509,0.558154 v 7.078966 c 0,0.816823 0.311443,1.551963 0.934345,2.205421 0.622901,0.653459 1.364873,0.980189 2.22593,0.980189 0.842761,0 1.575539,-0.322191 2.198435,-0.966566 0.622897,-0.644376 0.934345,-1.384075 0.934345,-2.219044 v -7.106613 c 0,-0.199666 0.114501,-0.381182 0.343508,-0.544532 0.229008,-0.163364 0.499228,-0.245046 0.810691,-0.245046 0.32977,0 0.599975,0.07714 0.81069,0.231435 0.210686,0.154291 0.316028,0.340341 0.316028,0.558153 v 7.106613 c 0,1.397697 -0.535886,2.618357 -1.607608,3.66208 -1.071723,1.043725 -2.340436,1.565587 -3.806044,1.565587 -1.483954,0 -2.761767,-0.521862 -3.833539,-1.565587 -1.071721,-1.043723 -1.607608,-2.264383 -1.607608,-3.66208 z M 84.114962,33.117 v -2.858881 c 0,-1.397697 0.535885,-2.604735 1.607607,-3.621265 1.071723,-1.01648 2.358734,-1.52472 3.861035,-1.52472 1.429013,0 2.665608,0.476478 3.709885,1.429466 1.044277,0.952944 1.56639,2.14641 1.56639,3.580399 0,0.526386 -0.06412,0.948419 -0.192364,1.266101 -0.128243,0.317681 -0.325186,0.544532 -0.590826,0.680702 -0.265647,0.136136 -0.512966,0.222358 -0.741977,0.25866 -0.229007,0.0363 -0.535887,0.05446 -0.920623,0.05446 h -6.018352 v 0.816823 c 0,0.998334 0.361825,1.797011 1.085496,2.396031 0.723679,0.59902 1.662549,0.898505 2.816757,0.898505 0.6046,0 1.131287,-0.09076 1.580113,-0.272276 0.44885,-0.181516 0.81069,-0.358492 1.085494,-0.530909 0.274805,-0.172444 0.494648,-0.25866 0.659541,-0.25866 0.256488,0 0.476331,0.113446 0.659541,0.340342 0.183204,0.226895 0.274804,0.458325 0.274804,0.694274 0,0.41749 -0.416786,0.844068 -1.250367,1.279673 -0.833562,0.43564 -1.864116,0.653459 -3.091562,0.653459 -1.795403,0 -3.261009,-0.48555 -4.396871,-1.45666 -1.135861,-0.971109 -1.703817,-2.246238 -1.703817,-3.825446 z m 2.28087,-2.259861 h 5.083908 c 0.47633,0 0.796916,-0.05899 0.96184,-0.176975 0.164923,-0.117985 0.247323,-0.34942 0.247323,-0.694275 0,-0.816823 -0.302284,-1.533818 -0.906849,-2.150984 -0.604564,-0.617167 -1.346526,-0.92575 -2.22593,-0.92575 -0.861058,0 -1.603035,0.285884 -2.225931,0.857639 -0.622896,0.571776 -0.934345,1.275148 -0.934345,2.110118 z m 9.614888,6.071635 c 0,-0.399338 0.1374,-0.739665 0.4122,-1.021004 0.27481,-0.281354 0.61375,-0.422023 1.01678,-0.422023 0.38474,0 0.71448,0.140674 0.98929,0.422023 0.2748,0.281349 0.41221,0.62169 0.41221,1.021004 0,0.381187 -0.13741,0.712471 -0.41221,0.99381 -0.27481,0.281349 -0.60455,0.422023 -0.98929,0.422023 -0.40304,0 -0.74197,-0.140674 -1.01678,-0.422023 -0.2748,-0.281349 -0.4122,-0.612592 -0.4122,-0.99381 z m 2.03015,6.507441 c 0,-0.290428 0.0916,-0.530911 0.2748,-0.721519 0.18321,-0.190594 0.40304,-0.285888 0.65953,-0.285888 0.71449,0 1.18166,-0.263199 1.40153,-0.789579 0.21986,-0.526381 0.32976,-1.315965 0.32976,-2.368787 V 26.065058 c 0,-0.235975 0.10537,-0.426563 0.31603,-0.571776 0.21069,-0.145214 0.48091,-0.217819 0.81069,-0.217819 0.32977,0 0.60455,0.07261 0.82441,0.217819 0.21984,0.145213 0.32977,0.335801 0.32977,0.571776 v 13.205389 c 0,1.579208 -0.31144,2.831636 -0.93434,3.757386 -0.62291,0.92575 -1.5664,1.388599 -2.83048,1.388599 -0.78778,0 -1.18166,-0.326724 -1.18166,-0.980188 z m 2.3633,-23.007266 c 0,-0.34488 0.1374,-0.644361 0.41221,-0.898506 0.2748,-0.254124 0.61374,-0.381182 1.01678,-0.381182 0.38473,0 0.71449,0.127062 0.98928,0.381182 0.27481,0.254125 0.41221,0.55363 0.41221,0.898506 0,0.344875 -0.1374,0.648934 -0.41221,0.912127 -0.27479,0.263198 -0.60455,0.3948 -0.98928,0.3948 -0.38473,0 -0.71906,-0.131597 -1.00306,-0.3948 -0.28397,-0.263198 -0.42595,-0.567252 -0.42595,-0.912127 z m 4.28353,15.900653 c 0,-0.235973 0.0778,-0.467404 0.23358,-0.694274 0.15573,-0.226895 0.34351,-0.340341 0.56333,-0.340341 0.14657,0 0.35725,0.10891 0.63205,0.326729 0.27479,0.217823 0.66869,0.431102 1.18165,0.639836 0.51296,0.208746 1.11751,0.313118 1.8137,0.313118 0.91605,0 1.58011,-0.163365 1.99234,-0.490095 0.41221,-0.326729 0.61832,-0.73514 0.61832,-1.225233 0,-0.59902 -0.229,-1.075492 -0.68703,-1.429466 -0.45802,-0.353958 -1.01678,-0.62169 -1.67633,-0.803201 -0.65954,-0.181516 -1.31907,-0.381182 -1.97861,-0.59902 -0.65955,-0.217823 -1.2183,-0.580875 -1.67633,-1.089114 -0.45802,-0.50824 -0.68703,-1.179845 -0.68703,-2.014814 0,-1.034625 0.37098,-1.928607 1.11294,-2.681893 0.74197,-0.753287 1.87327,-1.129931 3.39386,-1.129931 0.97099,0 1.85949,0.149748 2.66561,0.449253 0.80611,0.299505 1.20914,0.639836 1.20914,1.021004 0,0.217823 -0.087,0.462864 -0.26106,0.73514 -0.17405,0.272277 -0.38931,0.408412 -0.64582,0.408412 -0.0733,0 -0.42594,-0.131596 -1.05799,-0.3948 -0.63206,-0.263197 -1.25952,-0.394799 -1.88242,-0.394799 -0.84276,0 -1.47023,0.195128 -1.88241,0.585398 -0.41221,0.390261 -0.61833,0.830445 -0.61833,1.320539 0,0.50824 0.22901,0.907604 0.68704,1.19799 0.45801,0.290427 1.02135,0.517338 1.69004,0.680703 0.6687,0.163365 1.3328,0.363031 1.99235,0.59902 0.65954,0.23599 1.2183,0.639837 1.67632,1.211613 0.45802,0.571776 0.68703,1.31144 0.68703,2.219043 0,1.125408 -0.40303,2.014814 -1.20914,2.668273 -0.8061,0.653458 -1.93278,0.980188 -3.38009,0.980188 -1.24579,0 -2.30837,-0.222357 -3.18773,-0.667082 -0.87939,-0.444718 -1.31907,-0.912127 -1.31907,-1.40222 z" />
</svg>
