<svg width="48" height="48" viewBox="0 0 48 48" fill="none" xmlns="http://www.w3.org/2000/svg">
<g clip-path="url(#clip0)">
<path d="M38.4947 37.1765C35.2399 40.7564 30.5692 43 25.38 43C17.0826 43 10.1106 37.2635 8.13379 29.5M8.86718 18.25C11.5088 11.6534 17.9068 7 25.38 7C35.2147 7 42.0001 15.0589 42.0001 25C42.0001 25.5352 41.9318 26.5882 41.9318 26.5882H10.0001" stroke="#6C7898" stroke-width="3" stroke-linecap="round" stroke-linejoin="round"/>
<path d="M40.6004 15.9C42.5958 10.9379 43.0513 6.55871 40.8974 4.63388C36.7976 0.970088 25.8724 6.50626 16.4953 16.9993C7.11824 27.4923 2.84014 38.9686 6.93993 42.6324C9.04199 44.5109 12.9384 43.9709 17.5004 41.5843" stroke="#6C7898" stroke-width="3" stroke-linecap="round" stroke-linejoin="round"/>
</g>
<defs>
<clipPath id="clip0">
<rect width="48" height="48" fill="white"/>
</clipPath>
</defs>
</svg>
