<svg width="33" height="32" viewBox="0 0 33 32" fill="none" xmlns="http://www.w3.org/2000/svg">
<path d="M27.2314 18H26.2314H27.2314ZM16.2314 2L16.8429 1.20872C16.4828 0.930428 15.9801 0.930428 15.62 1.20872L16.2314 2ZM26.2314 18C26.2314 24.0422 21.7879 28 16.2314 28V30C22.8253 30 28.2314 25.2127 28.2314 18H26.2314ZM16.2314 28C10.675 28 6.23145 24.0422 6.23145 18H4.23145C4.23145 25.2127 9.63759 30 16.2314 30V28ZM6.23145 18C6.23145 16.3603 6.83673 14.5948 7.82383 12.8225C8.80644 11.0583 10.1299 9.35413 11.4755 7.85563C12.8183 6.36024 14.1643 5.09039 15.176 4.19366C15.6812 3.74591 16.1012 3.39273 16.3935 3.15261C16.5396 3.03258 16.6537 2.9409 16.7304 2.87989C16.7688 2.84939 16.7978 2.82656 16.8167 2.81169C16.8262 2.80426 16.8332 2.79882 16.8376 2.7954C16.8398 2.7937 16.8413 2.7925 16.8422 2.79181C16.8427 2.79147 16.8429 2.79125 16.8431 2.79116C16.8431 2.79112 16.8431 2.79115 16.8431 2.79113C16.843 2.79119 16.8429 2.79128 16.2314 2C15.62 1.20872 15.6198 1.20888 15.6195 1.20907C15.6194 1.20918 15.6191 1.2094 15.6188 1.20962C15.6183 1.21005 15.6176 1.21061 15.6167 1.21129C15.6149 1.21267 15.6124 1.21457 15.6094 1.21698C15.6032 1.22179 15.5944 1.22866 15.583 1.23753C15.5604 1.25529 15.5276 1.28111 15.4854 1.31469C15.401 1.38185 15.2787 1.48011 15.124 1.60716C14.8148 1.86117 14.3755 2.23065 13.8494 2.69697C12.7986 3.62836 11.3946 4.95226 9.9874 6.51937C8.583 8.08337 7.15645 9.91046 6.07656 11.8494C5.00116 13.7802 4.23145 15.8897 4.23145 18H6.23145ZM16.2314 2C15.62 2.79128 15.6199 2.79119 15.6198 2.79113C15.6198 2.79115 15.6198 2.79112 15.6198 2.79116C15.62 2.79125 15.6202 2.79147 15.6207 2.79181C15.6216 2.7925 15.6231 2.7937 15.6253 2.7954C15.6297 2.79882 15.6367 2.80426 15.6461 2.81169C15.6651 2.82656 15.6941 2.84939 15.7325 2.87989C15.8092 2.9409 15.9232 3.03258 16.0694 3.15261C16.3617 3.39273 16.7817 3.74591 17.2869 4.19366C18.2986 5.09039 19.6446 6.36024 20.9874 7.85563C22.333 9.35413 23.6564 11.0583 24.6391 12.8225C25.6262 14.5948 26.2314 16.3603 26.2314 18H28.2314C28.2314 15.8897 27.4617 13.7802 26.3863 11.8494C25.3064 9.91046 23.8799 8.08337 22.4755 6.51937C21.0683 4.95226 19.6643 3.62836 18.6135 2.69697C18.0874 2.23065 17.6481 1.86117 17.3388 1.60716C17.1842 1.48011 17.0619 1.38185 16.9775 1.31469C16.9353 1.28111 16.9025 1.25529 16.8799 1.23753C16.8685 1.22866 16.8597 1.22179 16.8535 1.21698C16.8504 1.21457 16.848 1.21267 16.8462 1.21129C16.8453 1.21061 16.8446 1.21005 16.8441 1.20962C16.8438 1.2094 16.8435 1.20918 16.8433 1.20907C16.8431 1.20888 16.8429 1.20872 16.2314 2Z" fill="#6C7898"/>
</svg>
