<svg xmlns="http://www.w3.org/2000/svg" width="104" height="107" fill="none" viewBox="0 0 104 107"><g filter="url(#filter0_f)"><circle cx="52" cy="55" r="36" fill="#8EAEDE" fill-opacity=".3"/></g><circle cx="52" cy="43" r="43" fill="#fff"/><path fill="#89DD7C" fill-rule="evenodd" d="M43.57 66.1a23.81 23.81 0 1 1 16.48.07L54.7 51.94a8.61 8.61 0 1 0-5.74-.04l-5.4 14.2Z" clip-rule="evenodd"/><path fill="#0D5B00" d="m43.57 66.1-.53 1.41a1.5 1.5 0 0 0 1.93-.87l-1.4-.54Zm16.48.07-1.4.53a1.5 1.5 0 0 0 1.91.88l-.51-1.41ZM54.7 51.94l-.49-1.42a1.5 1.5 0 0 0-.91 1.95l1.4-.53Zm-5.74-.04 1.4.53a1.5 1.5 0 0 0-.89-1.94l-.51 1.4Zm-22.37-8.1a25.31 25.31 0 0 0 16.45 23.71l1.05-2.81a22.31 22.31 0 0 1-14.5-20.9h-3Zm25.3-25.3a25.3 25.3 0 0 0-25.3 25.3h3a22.3 22.3 0 0 1 22.3-22.3v-3Zm25.3 25.3a25.3 25.3 0 0 0-25.3-25.3v3a22.3 22.3 0 0 1 22.3 22.3h3ZM60.56 67.58A25.31 25.31 0 0 0 77.2 43.8h-3c0 9.63-6.1 17.84-14.65 20.96l1.02 2.82ZM53.3 52.47l5.35 14.23 2.8-1.06L56.1 51.4l-2.8 1.06Zm1.89.89A10.11 10.11 0 0 0 62 43.8h-3c0 3.11-2 5.76-4.79 6.72l.98 2.84ZM62 43.8a10.1 10.1 0 0 0-10.1-10.1v3a7.1 7.1 0 0 1 7.1 7.1h3ZM51.9 33.7a10.1 10.1 0 0 0-10.12 10.1h3a7.1 7.1 0 0 1 7.11-7.1v-3ZM41.77 43.8c0 4.38 2.78 8.1 6.67 9.5l1.02-2.81a7.11 7.11 0 0 1-4.69-6.69h-3Zm3.19 22.84 5.4-14.21-2.81-1.07-5.4 14.21 2.8 1.07Z"/><defs><filter id="filter0_f" width="104" height="104" x="0" y="3" color-interpolation-filters="sRGB" filterUnits="userSpaceOnUse"><feFlood flood-opacity="0" result="BackgroundImageFix"/><feBlend in="SourceGraphic" in2="BackgroundImageFix" result="shape"/><feGaussianBlur result="effect1_foregroundBlur" stdDeviation="8"/></filter></defs></svg>